<svg width="283" height="283" viewBox="0 0 283 283" fill="none" xmlns="http://www.w3.org/2000/svg">
<path d="M138.259 35.6405C192.966 35.784 237.412 83.0921 237.277 141.568C237.141 200.043 192.476 247.117 137.768 246.974C83.0607 246.83 38.6146 199.522 38.7503 141.047C38.886 82.5715 83.5509 35.4971 138.259 35.6405Z" fill="#D2B236" stroke="black" stroke-width="4"/>
<rect x="2.739" y="0.0954691" width="9.50894" height="110.553" rx="4.75447" transform="matrix(0.710124 -0.704077 0.659378 0.751811 102.356 152.784)" fill="#FFFDC7" stroke="black" stroke-width="4"/>
<rect x="0.101491" y="2.91178" width="9.50894" height="110.553" rx="4.75447" transform="matrix(0.710124 0.704077 -0.659378 0.751811 179.137 46.3348)" fill="#FFFDC7" stroke="black" stroke-width="4"/>
<rect x="2.73141" y="0.238526" width="31.0361" height="146.323" rx="15.518" transform="matrix(0.746195 -0.665727 0.619509 0.78499 138.608 25.1939)" fill="#D2B236" stroke="black" stroke-width="4"/>
<rect x="0.253373" y="2.90143" width="31.0361" height="146.323" rx="15.518" transform="matrix(0.746195 0.665727 -0.619509 0.78499 233.049 141.775)" fill="#D2B236" stroke="black" stroke-width="4"/>
<rect x="73.6875" y="107.645" width="206.949" height="67.3531" rx="19.12" fill="#D2B236" stroke="black" stroke-width="4"/>
<rect x="73.6875" y="131.262" width="199.414" height="20.0893" fill="#845E48" stroke="black" stroke-width="4"/>
<path d="M53.207 91.5469C61.6171 87.8208 71.0801 93.9782 71.0801 103.177V179.165C71.0801 188.422 61.5062 194.58 53.083 190.739L9.44336 170.842C4.90964 168.775 2 164.25 2 159.268V122.511C2.00004 117.479 4.96656 112.919 9.56738 110.881L53.207 91.5469Z" fill="#845E48" stroke="black" stroke-width="4"/>
</svg>
