<svg width="3534" height="3534" viewBox="0 0 3534 3534" fill="none" xmlns="http://www.w3.org/2000/svg">
<path d="M1728.89 445.518C2412.74 447.311 2968.31 1038.66 2966.61 1769.61C2964.92 2500.55 2406.61 3088.98 1722.76 3087.19C1038.91 3085.4 483.338 2494.04 485.033 1763.1C486.729 1032.16 1045.04 443.725 1728.89 445.518Z" fill="#3C63E8" stroke="black" stroke-width="50"/>
<rect x="34.2375" y="1.19336" width="118.862" height="1381.92" rx="59.4309" transform="matrix(0.710124 -0.704077 0.659378 0.751811 1279.82 1909.79)" fill="#FFFDC7" stroke="black" stroke-width="50"/>
<rect x="1.26864" y="36.3972" width="118.862" height="1381.92" rx="59.4309" transform="matrix(0.710124 0.704077 -0.659378 0.751811 2239.22 579.177)" fill="#FFFDC7" stroke="black" stroke-width="50"/>
<rect x="34.1426" y="2.98157" width="387.951" height="1829.03" rx="193.975" transform="matrix(0.746195 -0.665727 0.619509 0.78499 1732.79 314.927)" fill="#3C63E8" stroke="black" stroke-width="50"/>
<rect x="3.16717" y="36.2679" width="387.951" height="1829.03" rx="193.975" transform="matrix(0.746195 0.665727 -0.619509 0.78499 2913.32 1772.18)" fill="#3C63E8" stroke="black" stroke-width="50"/>
<rect x="921.225" y="1345.54" width="2586.86" height="841.914" rx="239" fill="#3C63E8" stroke="black" stroke-width="50"/>
<rect x="921.225" y="1640.76" width="2492.67" height="251.116" fill="#845E48" stroke="black" stroke-width="50"/>
<path d="M665.091 1144.34C770.217 1097.77 888.497 1174.73 888.497 1289.71V2239.58C888.497 2355.29 768.826 2432.25 663.535 2384.25L118.038 2135.53C61.3668 2109.69 25.0002 2053.14 25 1990.86V1531.4C25 1468.49 62.0831 1411.5 119.594 1386.02L665.091 1144.34Z" fill="#845E48" stroke="black" stroke-width="50"/>
</svg>
