<svg width="265" height="220" viewBox="0 0 265 220" fill="none" xmlns="http://www.w3.org/2000/svg">
<circle cx="131.51" cy="109.76" r="107.76" fill="#D2B236" stroke="black" stroke-width="4"/>
<path d="M38.3548 76.1058L55.6115 63.2462C56.608 62.5034 57.47 70.6621 57.47 80.8525V138.584C57.47 148.834 56.6218 156.933 55.6115 156.192L38.3548 143.331C37.4485 142.664 36.75 134.98 36.75 125.725V93.7136C36.75 84.4583 37.4485 76.7739 38.3548 76.1058Z" fill="#666666" stroke="black" stroke-width="4" stroke-miterlimit="10"/>
<path d="M246.674 151.668L71.4008 167.703C61.2336 168.628 52.5625 158.457 52.5625 145.75V73.8269C52.5435 60.9925 61.2336 50.8946 71.4008 51.8207L246.674 67.8538C255.919 68.6867 262.962 78.2674 262.962 89.8067V129.717C262.907 141.257 255.807 150.837 246.674 151.668Z" fill="#666666" stroke="black" stroke-width="4" stroke-miterlimit="10"/>
<circle cx="14.48" cy="109.761" r="12.48" fill="#666666" stroke="black" stroke-width="4"/>
</svg>
