<svg width="265" height="220" viewBox="0 0 265 220" fill="none" xmlns="http://www.w3.org/2000/svg">
<circle cx="131.51" cy="109.76" r="107.76" fill="#3C63E8" stroke="black" stroke-width="4"/>
<path d="M38.4173 76.1058L55.674 63.2462C56.6705 62.5034 57.5325 70.6621 57.5325 80.8525V138.584C57.5325 148.834 56.6843 156.933 55.674 156.192L38.4173 143.331C37.511 142.664 36.8125 134.98 36.8125 125.725V93.7136C36.8125 84.4583 37.511 76.7739 38.4173 76.1058Z" fill="#666666" stroke="black" stroke-width="4" stroke-miterlimit="10"/>
<path d="M246.674 151.668L71.4008 167.703C61.2336 168.628 52.5625 158.457 52.5625 145.75V73.8269C52.5435 60.9925 61.2336 50.8946 71.4008 51.8207L246.674 67.8538C255.919 68.6867 262.962 78.2674 262.962 89.8067V129.717C262.907 141.257 255.807 150.837 246.674 151.668Z" fill="#666666" stroke="black" stroke-width="4" stroke-miterlimit="10"/>
<circle cx="14.48" cy="109.761" r="12.48" fill="#666666" stroke="black" stroke-width="4"/>
</svg>
