<svg width="3312" height="2744" viewBox="0 0 3312 2744" fill="none" xmlns="http://www.w3.org/2000/svg">
<circle cx="1644" cy="1372" r="1347" fill="#3C63E8" stroke="black" stroke-width="50"/>
<path d="M480.06 951.333L695.769 790.588C708.225 781.302 719 883.286 719 1010.67V1732.31C719 1860.44 708.397 1961.68 695.769 1952.41L480.06 1791.65C468.731 1783.31 460 1687.26 460 1571.57V1171.43C460 1055.74 468.731 959.684 480.06 951.333Z" fill="#666666" stroke="black" stroke-width="50" stroke-miterlimit="10"/>
<path d="M3083.39 1895.83L892.479 2096.27C765.389 2107.82 657 1980.7 657 1821.86V922.815C656.763 762.385 765.389 636.161 892.479 647.737L3083.39 848.15C3198.95 858.562 3287 978.32 3287 1122.56V1621.44C3286.31 1765.69 3197.55 1885.45 3083.39 1895.83Z" fill="#666666" stroke="black" stroke-width="50" stroke-miterlimit="10"/>
<circle cx="181" cy="1372" r="156" fill="#666666" stroke="black" stroke-width="50"/>
</svg>
