<svg width="220" height="220" viewBox="0 0 220 220" fill="none" xmlns="http://www.w3.org/2000/svg">
<circle cx="109.76" cy="109.76" r="107.76" fill="#964B00" stroke="black" stroke-width="4"/>
<circle cx="109.75" cy="192.52" r="25" fill="#FF931E" stroke="black" stroke-width="4"/>
<circle cx="167.875" cy="165.562" r="25" fill="#FF931E" stroke="black" stroke-width="4"/>
<circle cx="171.562" cy="53.8828" r="25" fill="#FF931E" stroke="black" stroke-width="4"/>
<circle cx="47.875" cy="54.0391" r="25" fill="#FF931E" stroke="black" stroke-width="4"/>
<circle cx="54" cy="171.562" r="25" fill="#FF931E" stroke="black" stroke-width="4"/>
<circle cx="109.75" cy="27" r="25" fill="#FF931E" stroke="black" stroke-width="4"/>
<circle cx="192.562" cy="109.723" r="25" fill="#FF931E" stroke="black" stroke-width="4"/>
<circle cx="27" cy="109.723" r="25" fill="#FF931E" stroke="black" stroke-width="4"/>
<mask id="path-10-inside-1_149_16" fill="white">
<path d="M109.821 28.8828C154.49 28.8828 190.702 65.094 190.702 109.763C190.702 154.431 154.49 190.643 109.821 190.643C65.1527 190.642 28.9414 154.431 28.9414 109.763C28.9415 65.0941 65.1527 28.883 109.821 28.8828ZM109.814 58.0156C81.2354 58.0157 58.0674 81.1836 58.0674 109.763C58.0674 138.342 81.2353 161.51 109.814 161.51C138.394 161.51 161.562 138.342 161.562 109.763C161.561 81.1836 138.394 58.0156 109.814 58.0156Z"/>
</mask>
<path d="M109.821 28.8828C154.49 28.8828 190.702 65.094 190.702 109.763C190.702 154.431 154.49 190.643 109.821 190.643C65.1527 190.642 28.9414 154.431 28.9414 109.763C28.9415 65.0941 65.1527 28.883 109.821 28.8828ZM109.814 58.0156C81.2354 58.0157 58.0674 81.1836 58.0674 109.763C58.0674 138.342 81.2353 161.51 109.814 161.51C138.394 161.51 161.562 138.342 161.562 109.763C161.561 81.1836 138.394 58.0156 109.814 58.0156Z" fill="#552B00"/>
<path d="M109.821 28.8828V24.8828H109.821L109.821 28.8828ZM190.702 109.763H194.702V109.763L190.702 109.763ZM109.821 190.643L109.821 194.643H109.821V190.643ZM28.9414 109.763L24.9414 109.763V109.763H28.9414ZM109.814 58.0156V54.0156H109.814L109.814 58.0156ZM58.0674 109.763L54.0674 109.763V109.763H58.0674ZM109.814 161.51L109.814 165.51H109.814V161.51ZM161.562 109.763H165.562V109.763L161.562 109.763ZM109.821 28.8828V32.8828C152.281 32.8828 186.702 67.3032 186.702 109.763L190.702 109.763L194.702 109.763C194.702 62.8848 156.699 24.8828 109.821 24.8828V28.8828ZM190.702 109.763H186.702C186.702 152.222 152.281 186.643 109.821 186.643V190.643V194.643C156.699 194.643 194.702 156.641 194.702 109.763H190.702ZM109.821 190.643L109.821 186.643C67.3618 186.642 32.9414 152.222 32.9414 109.763H28.9414H24.9414C24.9414 156.641 62.9436 194.642 109.821 194.643L109.821 190.643ZM28.9414 109.763L32.9414 109.763C32.9415 67.3033 67.3619 32.883 109.821 32.8828L109.821 28.8828L109.821 24.8828C62.9436 24.883 24.9415 62.8849 24.9414 109.763L28.9414 109.763ZM109.814 58.0156L109.814 54.0156C79.0262 54.0157 54.0674 78.9745 54.0674 109.763L58.0674 109.763L62.0674 109.763C62.0674 83.3927 83.4445 62.0157 109.814 62.0156L109.814 58.0156ZM58.0674 109.763H54.0674C54.0674 140.551 79.0262 165.51 109.814 165.51L109.814 161.51L109.814 157.51C83.4445 157.51 62.0674 136.133 62.0674 109.763H58.0674ZM109.814 161.51V165.51C140.603 165.51 165.562 140.551 165.562 109.763H161.562H157.562C157.562 136.133 136.184 157.51 109.814 157.51V161.51ZM161.562 109.763L165.562 109.763C165.561 78.9744 140.603 54.0156 109.814 54.0156V58.0156V62.0156C136.184 62.0156 157.561 83.3927 157.562 109.763L161.562 109.763Z" fill="black" mask="url(#path-10-inside-1_149_16)"/>
</svg>
