<svg width="2744" height="2744" viewBox="0 0 2744 2744" fill="none" xmlns="http://www.w3.org/2000/svg">
<circle cx="1372" cy="1372" r="1347" fill="#3C63E8" stroke="black" stroke-width="50"/>
<circle cx="1371.5" cy="2406.5" r="312.5" fill="#FF931E" stroke="black" stroke-width="50"/>
<circle cx="2098.5" cy="2069.5" r="312.5" fill="#FF931E" stroke="black" stroke-width="50"/>
<circle cx="2144.5" cy="673.5" r="312.5" fill="#FF931E" stroke="black" stroke-width="50"/>
<circle cx="598.5" cy="675.5" r="312.5" fill="#FF931E" stroke="black" stroke-width="50"/>
<circle cx="674.5" cy="2144.5" r="312.5" fill="#FF931E" stroke="black" stroke-width="50"/>
<circle cx="1371.5" cy="337.5" r="312.5" fill="#FF931E" stroke="black" stroke-width="50"/>
<circle cx="2406.5" cy="1371.5" r="312.5" fill="#FF931E" stroke="black" stroke-width="50"/>
<circle cx="337.5" cy="1371.5" r="312.5" fill="#FF931E" stroke="black" stroke-width="50"/>
<mask id="path-10-inside-1_126_61" fill="white">
<path d="M1372 361C1930.36 361 2383 813.64 2383 1372C2383 1930.36 1930.36 2383 1372 2383C813.64 2383 361 1930.36 361 1372C361 813.64 813.64 361 1372 361ZM1371.84 725C1014.6 725 725 1014.6 725 1371.84C725 1729.08 1014.6 2018.68 1371.84 2018.68C1729.08 2018.68 2018.68 1729.08 2018.68 1371.84C2018.68 1014.6 1729.08 725 1371.84 725Z"/>
</mask>
<path d="M1372 361C1930.36 361 2383 813.64 2383 1372C2383 1930.36 1930.36 2383 1372 2383C813.64 2383 361 1930.36 361 1372C361 813.64 813.64 361 1372 361ZM1371.84 725C1014.6 725 725 1014.6 725 1371.84C725 1729.08 1014.6 2018.68 1371.84 2018.68C1729.08 2018.68 2018.68 1729.08 2018.68 1371.84C2018.68 1014.6 1729.08 725 1371.84 725Z" fill="#91A7F1"/>
<path d="M1371.84 725L1371.84 675H1371.84V725ZM725 1371.84L675 1371.84L675 1371.84L725 1371.84ZM1371.84 2018.68L1371.84 2068.68L1371.84 2068.68L1371.84 2018.68ZM2018.68 1371.84L2068.68 1371.84V1371.84H2018.68ZM1372 361V411C1902.75 411 2333 841.254 2333 1372H2383H2433C2433 786.026 1957.97 311 1372 311V361ZM2383 1372H2333C2333 1902.75 1902.75 2333 1372 2333V2383V2433C1957.97 2433 2433 1957.97 2433 1372H2383ZM1372 2383V2333C841.254 2333 411 1902.75 411 1372H361H311C311 1957.97 786.026 2433 1372 2433V2383ZM361 1372H411C411 841.254 841.254 411 1372 411V361V311C786.026 311 311 786.026 311 1372H361ZM1371.84 725V675C986.986 675 675 986.986 675 1371.84H725H775C775 1042.21 1042.21 775 1371.84 775V725ZM725 1371.84L675 1371.84C675 1756.69 986.986 2068.68 1371.84 2068.68V2018.68V1968.68C1042.21 1968.68 775 1701.47 775 1371.84L725 1371.84ZM1371.84 2018.68L1371.84 2068.68C1756.69 2068.68 2068.68 1756.69 2068.68 1371.84L2018.68 1371.84L1968.68 1371.84C1968.68 1701.47 1701.47 1968.68 1371.84 1968.68L1371.84 2018.68ZM2018.68 1371.84H2068.68C2068.68 986.986 1756.69 675 1371.84 675L1371.84 725L1371.84 775C1701.47 775 1968.68 1042.21 1968.68 1371.84H2018.68Z" fill="black" mask="url(#path-10-inside-1_126_61)"/>
</svg>
