<svg width="247" height="247" viewBox="0 0 247 247" fill="none" xmlns="http://www.w3.org/2000/svg">
<g filter="url(#filter0_d_149_357)">
<rect x="0.319946" width="245.76" height="245.76" rx="20" fill="#D2B236"/>
<rect x="2.31995" y="2" width="241.76" height="241.76" rx="18" stroke="black" stroke-width="4"/>
</g>
<path d="M60.1008 90.1105C77.4431 90.1105 91.5018 76.0518 91.5018 58.7096C91.5018 41.3673 77.4431 27.3086 60.1008 27.3086C42.7585 27.3086 28.6998 41.3673 28.6998 58.7096C28.6998 76.0518 42.7585 90.1105 60.1008 90.1105Z" fill="#DDA95E" stroke="black" stroke-width="4" stroke-miterlimit="10"/>
<path d="M56.3508 136.642C73.6931 136.642 87.7518 122.583 87.7518 105.241C87.7518 87.8985 73.6931 73.8398 56.3508 73.8398C39.0085 73.8398 24.9498 87.8985 24.9498 105.241C24.9498 122.583 39.0085 136.642 56.3508 136.642Z" fill="#DDA95E" stroke="black" stroke-width="4" stroke-miterlimit="10"/>
<path d="M60.1008 224.126C77.4431 224.126 91.5018 210.067 91.5018 192.725C91.5018 175.383 77.4431 161.324 60.1008 161.324C42.7585 161.324 28.6998 175.383 28.6998 192.725C28.6998 210.067 42.7585 224.126 60.1008 224.126Z" fill="#DDA95E" stroke="black" stroke-width="4" stroke-miterlimit="10"/>
<path d="M47.0383 185.036C64.3806 185.036 78.4393 170.978 78.4393 153.635C78.4393 136.293 64.3806 122.234 47.0383 122.234C29.696 122.234 15.6373 136.293 15.6373 153.635C15.6373 170.978 29.696 185.036 47.0383 185.036Z" fill="#DDA95E" stroke="black" stroke-width="4" stroke-miterlimit="10"/>
<path d="M110.351 222.267C127.693 222.267 141.752 208.208 141.752 190.866C141.752 173.524 127.693 159.465 110.351 159.465C93.0085 159.465 78.9498 173.524 78.9498 190.866C78.9498 208.208 93.0085 222.267 110.351 222.267Z" fill="#DDA95E" stroke="black" stroke-width="4" stroke-miterlimit="10"/>
<path d="M186.663 222.267C204.006 222.267 218.064 208.208 218.064 190.866C218.064 173.524 204.006 159.465 186.663 159.465C169.321 159.465 155.262 173.524 155.262 190.866C155.262 208.208 169.321 222.267 186.663 222.267Z" fill="#DDA95E" stroke="black" stroke-width="4" stroke-miterlimit="10"/>
<path d="M93.6008 181.314C110.943 181.314 125.002 167.255 125.002 149.913C125.002 132.57 110.943 118.512 93.6008 118.512C76.2585 118.512 62.1998 132.57 62.1998 149.913C62.1998 167.255 76.2585 181.314 93.6008 181.314Z" fill="#DDA95E" stroke="black" stroke-width="4" stroke-miterlimit="10"/>
<path d="M82.4133 116.169C99.7556 116.169 113.814 102.11 113.814 84.7682C113.814 67.4259 99.7556 53.3672 82.4133 53.3672C65.071 53.3672 51.0123 67.4259 51.0123 84.7682C51.0123 102.11 65.071 116.169 82.4133 116.169Z" fill="#DDA95E" stroke="black" stroke-width="4" stroke-miterlimit="10"/>
<path d="M141.976 80.8019C159.318 80.8019 173.377 66.7432 173.377 49.401C173.377 32.0587 159.318 18 141.976 18C124.634 18 110.575 32.0587 110.575 49.401C110.575 66.7432 124.634 80.8019 141.976 80.8019Z" fill="#DDA95E" stroke="black" stroke-width="4" stroke-miterlimit="10"/>
<path d="M110.351 86.3879C127.693 86.3879 141.752 72.3292 141.752 54.9869C141.752 37.6446 127.693 23.5859 110.351 23.5859C93.0085 23.5859 78.9498 37.6446 78.9498 54.9869C78.9498 72.3292 93.0085 86.3879 110.351 86.3879Z" fill="#DDA95E" stroke="black" stroke-width="4" stroke-miterlimit="10"/>
<path d="M199.663 90.1105C217.006 90.1105 231.064 76.0518 231.064 58.7096C231.064 41.3673 217.006 27.3086 199.663 27.3086C182.321 27.3086 168.262 41.3673 168.262 58.7096C168.262 76.0518 182.321 90.1105 199.663 90.1105Z" fill="#DDA95E" stroke="black" stroke-width="4" stroke-miterlimit="10"/>
<path d="M181.101 144.087C198.443 144.087 212.502 130.028 212.502 112.686C212.502 95.3438 198.443 81.2852 181.101 81.2852C163.759 81.2852 149.7 95.3438 149.7 112.686C149.7 130.028 163.759 144.087 181.101 144.087Z" fill="#DDA95E" stroke="black" stroke-width="4" stroke-miterlimit="10"/>
<path d="M173.663 97.5558C191.006 97.5558 205.064 83.4971 205.064 66.1549C205.064 48.8126 191.006 34.7539 173.663 34.7539C156.321 34.7539 142.262 48.8126 142.262 66.1549C142.262 83.4971 156.321 97.5558 173.663 97.5558Z" fill="#DDA95E" stroke="black" stroke-width="4" stroke-miterlimit="10"/>
<path d="M201.538 153.396C218.881 153.396 232.939 139.337 232.939 121.995C232.939 104.652 218.881 90.5938 201.538 90.5938C184.196 90.5938 170.137 104.652 170.137 121.995C170.137 139.337 184.196 153.396 201.538 153.396Z" fill="#DDA95E" stroke="black" stroke-width="4" stroke-miterlimit="10"/>
<path d="M136.413 114.306C153.756 114.306 167.814 100.247 167.814 82.9049C167.814 65.5626 153.756 51.5039 136.413 51.5039C119.071 51.5039 105.012 65.5626 105.012 82.9049C105.012 100.247 119.071 114.306 136.413 114.306Z" fill="#DDA95E" stroke="black" stroke-width="4" stroke-miterlimit="10"/>
<path d="M164.351 138.505C181.693 138.505 195.752 124.446 195.752 107.104C195.752 89.7618 181.693 75.7031 164.351 75.7031C147.009 75.7031 132.95 89.7618 132.95 107.104C132.95 124.446 147.009 138.505 164.351 138.505Z" fill="#DDA95E" stroke="black" stroke-width="4" stroke-miterlimit="10"/>
<path d="M190.413 194.345C207.756 194.345 221.814 180.286 221.814 162.944C221.814 145.602 207.756 131.543 190.413 131.543C173.071 131.543 159.012 145.602 159.012 162.944C159.012 180.286 173.071 194.345 190.413 194.345Z" fill="#DDA95E" stroke="black" stroke-width="4" stroke-miterlimit="10"/>
<path d="M141.976 220.403C159.318 220.403 173.377 206.345 173.377 189.003C173.377 171.66 159.318 157.602 141.976 157.602C124.634 157.602 110.575 171.66 110.575 189.003C110.575 206.345 124.634 220.403 141.976 220.403Z" fill="#DDA95E" stroke="black" stroke-width="4" stroke-miterlimit="10"/>
<path d="M106.601 138.505C123.943 138.505 138.002 124.446 138.002 107.104C138.002 89.7618 123.943 75.7031 106.601 75.7031C89.2585 75.7031 75.1998 89.7618 75.1998 107.104C75.1998 124.446 89.2585 138.505 106.601 138.505Z" fill="#DDA95E" stroke="black" stroke-width="4" stroke-miterlimit="10"/>
<path d="M145.726 175.732C163.068 175.732 177.127 161.673 177.127 144.331C177.127 126.988 163.068 112.93 145.726 112.93C128.384 112.93 114.325 126.988 114.325 144.331C114.325 161.673 128.384 175.732 145.726 175.732Z" fill="#DDA95E" stroke="black" stroke-width="4" stroke-miterlimit="10"/>
<defs>
<filter id="filter0_d_149_357" x="-5.37038e-05" y="0" width="246.4" height="246.4" filterUnits="userSpaceOnUse" color-interpolation-filters="sRGB">
<feFlood flood-opacity="0" result="BackgroundImageFix"/>
<feColorMatrix in="SourceAlpha" type="matrix" values="0 0 0 0 0 0 0 0 0 0 0 0 0 0 0 0 0 0 127 0" result="hardAlpha"/>
<feOffset dy="0.32"/>
<feGaussianBlur stdDeviation="0.16"/>
<feComposite in2="hardAlpha" operator="out"/>
<feColorMatrix type="matrix" values="0 0 0 0 0 0 0 0 0 0 0 0 0 0 0 0 0 0 0.25 0"/>
<feBlend mode="normal" in2="BackgroundImageFix" result="effect1_dropShadow_149_357"/>
<feBlend mode="normal" in="SourceGraphic" in2="effect1_dropShadow_149_357" result="shape"/>
</filter>
</defs>
</svg>
