<svg width="247" height="247" viewBox="0 0 247 247" fill="none" xmlns="http://www.w3.org/2000/svg">
<g filter="url(#filter0_d_149_311)">
<rect x="0.320007" width="245.76" height="245.76" rx="20" fill="#964B00"/>
<rect x="2.32001" y="2" width="241.76" height="241.76" rx="18" stroke="black" stroke-width="4"/>
</g>
<path d="M60.1634 90.1105C77.5056 90.1105 91.5643 76.0518 91.5643 58.7096C91.5643 41.3673 77.5056 27.3086 60.1634 27.3086C42.8211 27.3086 28.7624 41.3673 28.7624 58.7096C28.7624 76.0518 42.8211 90.1105 60.1634 90.1105Z" fill="#DDA95E" stroke="black" stroke-width="4" stroke-miterlimit="10"/>
<path d="M56.4134 136.642C73.7556 136.642 87.8143 122.583 87.8143 105.241C87.8143 87.8985 73.7556 73.8398 56.4134 73.8398C39.0711 73.8398 25.0124 87.8985 25.0124 105.241C25.0124 122.583 39.0711 136.642 56.4134 136.642Z" fill="#DDA95E" stroke="black" stroke-width="4" stroke-miterlimit="10"/>
<path d="M60.1634 224.126C77.5056 224.126 91.5643 210.067 91.5643 192.725C91.5643 175.383 77.5056 161.324 60.1634 161.324C42.8211 161.324 28.7624 175.383 28.7624 192.725C28.7624 210.067 42.8211 224.126 60.1634 224.126Z" fill="#DDA95E" stroke="black" stroke-width="4" stroke-miterlimit="10"/>
<path d="M47.1009 185.04C64.4431 185.04 78.5018 170.982 78.5018 153.639C78.5018 136.297 64.4431 122.238 47.1009 122.238C29.7586 122.238 15.6999 136.297 15.6999 153.639C15.6999 170.982 29.7586 185.04 47.1009 185.04Z" fill="#DDA95E" stroke="black" stroke-width="4" stroke-miterlimit="10"/>
<path d="M110.413 222.267C127.756 222.267 141.814 208.208 141.814 190.866C141.814 173.524 127.756 159.465 110.413 159.465C93.0711 159.465 79.0124 173.524 79.0124 190.866C79.0124 208.208 93.0711 222.267 110.413 222.267Z" fill="#DDA95E" stroke="black" stroke-width="4" stroke-miterlimit="10"/>
<path d="M186.726 222.267C204.068 222.267 218.127 208.208 218.127 190.866C218.127 173.524 204.068 159.465 186.726 159.465C169.384 159.465 155.325 173.524 155.325 190.866C155.325 208.208 169.384 222.267 186.726 222.267Z" fill="#DDA95E" stroke="black" stroke-width="4" stroke-miterlimit="10"/>
<path d="M93.6634 181.314C111.006 181.314 125.064 167.255 125.064 149.913C125.064 132.57 111.006 118.512 93.6634 118.512C76.3211 118.512 62.2624 132.57 62.2624 149.913C62.2624 167.255 76.3211 181.314 93.6634 181.314Z" fill="#DDA95E" stroke="black" stroke-width="4" stroke-miterlimit="10"/>
<path d="M82.4759 116.169C99.8181 116.169 113.877 102.11 113.877 84.7682C113.877 67.4259 99.8181 53.3672 82.4759 53.3672C65.1336 53.3672 51.0749 67.4259 51.0749 84.7682C51.0749 102.11 65.1336 116.169 82.4759 116.169Z" fill="#DDA95E" stroke="black" stroke-width="4" stroke-miterlimit="10"/>
<path d="M142.038 80.8019C159.381 80.8019 173.439 66.7432 173.439 49.401C173.439 32.0587 159.381 18 142.038 18C124.696 18 110.637 32.0587 110.637 49.401C110.637 66.7432 124.696 80.8019 142.038 80.8019Z" fill="#DDA95E" stroke="black" stroke-width="4" stroke-miterlimit="10"/>
<path d="M110.413 86.3879C127.756 86.3879 141.814 72.3292 141.814 54.9869C141.814 37.6446 127.756 23.5859 110.413 23.5859C93.0711 23.5859 79.0124 37.6446 79.0124 54.9869C79.0124 72.3292 93.0711 86.3879 110.413 86.3879Z" fill="#DDA95E" stroke="black" stroke-width="4" stroke-miterlimit="10"/>
<path d="M199.726 90.1105C217.068 90.1105 231.127 76.0518 231.127 58.7096C231.127 41.3673 217.068 27.3086 199.726 27.3086C182.384 27.3086 168.325 41.3673 168.325 58.7096C168.325 76.0518 182.384 90.1105 199.726 90.1105Z" fill="#DDA95E" stroke="black" stroke-width="4" stroke-miterlimit="10"/>
<path d="M181.101 144.087C198.443 144.087 212.502 130.028 212.502 112.686C212.502 95.3438 198.443 81.2852 181.101 81.2852C163.759 81.2852 149.7 95.3438 149.7 112.686C149.7 130.028 163.759 144.087 181.101 144.087Z" fill="#DDA95E" stroke="black" stroke-width="4" stroke-miterlimit="10"/>
<path d="M173.663 97.5558C191.006 97.5558 205.064 83.4971 205.064 66.1549C205.064 48.8126 191.006 34.7539 173.663 34.7539C156.321 34.7539 142.262 48.8126 142.262 66.1549C142.262 83.4971 156.321 97.5558 173.663 97.5558Z" fill="#DDA95E" stroke="black" stroke-width="4" stroke-miterlimit="10"/>
<path d="M201.601 153.396C218.943 153.396 233.002 139.337 233.002 121.995C233.002 104.652 218.943 90.5938 201.601 90.5938C184.259 90.5938 170.2 104.652 170.2 121.995C170.2 139.337 184.259 153.396 201.601 153.396Z" fill="#DDA95E" stroke="black" stroke-width="4" stroke-miterlimit="10"/>
<path d="M136.476 114.306C153.818 114.306 167.877 100.247 167.877 82.9049C167.877 65.5626 153.818 51.5039 136.476 51.5039C119.134 51.5039 105.075 65.5626 105.075 82.9049C105.075 100.247 119.134 114.306 136.476 114.306Z" fill="#DDA95E" stroke="black" stroke-width="4" stroke-miterlimit="10"/>
<path d="M164.351 138.505C181.693 138.505 195.752 124.446 195.752 107.104C195.752 89.7618 181.693 75.7031 164.351 75.7031C147.009 75.7031 132.95 89.7618 132.95 107.104C132.95 124.446 147.009 138.505 164.351 138.505Z" fill="#DDA95E" stroke="black" stroke-width="4" stroke-miterlimit="10"/>
<path d="M190.413 194.345C207.756 194.345 221.814 180.286 221.814 162.944C221.814 145.602 207.756 131.543 190.413 131.543C173.071 131.543 159.012 145.602 159.012 162.944C159.012 180.286 173.071 194.345 190.413 194.345Z" fill="#DDA95E" stroke="black" stroke-width="4" stroke-miterlimit="10"/>
<path d="M142.038 220.403C159.381 220.403 173.439 206.345 173.439 189.003C173.439 171.66 159.381 157.602 142.038 157.602C124.696 157.602 110.637 171.66 110.637 189.003C110.637 206.345 124.696 220.403 142.038 220.403Z" fill="#DDA95E" stroke="black" stroke-width="4" stroke-miterlimit="10"/>
<path d="M106.663 138.505C124.006 138.505 138.064 124.446 138.064 107.104C138.064 89.7618 124.006 75.7031 106.663 75.7031C89.3211 75.7031 75.2624 89.7618 75.2624 107.104C75.2624 124.446 89.3211 138.505 106.663 138.505Z" fill="#DDA95E" stroke="black" stroke-width="4" stroke-miterlimit="10"/>
<path d="M145.726 175.732C163.068 175.732 177.127 161.673 177.127 144.331C177.127 126.988 163.068 112.93 145.726 112.93C128.384 112.93 114.325 126.988 114.325 144.331C114.325 161.673 128.384 175.732 145.726 175.732Z" fill="#DDA95E" stroke="black" stroke-width="4" stroke-miterlimit="10"/>
<defs>
<filter id="filter0_d_149_311" x="7.33137e-06" y="0" width="246.4" height="246.4" filterUnits="userSpaceOnUse" color-interpolation-filters="sRGB">
<feFlood flood-opacity="0" result="BackgroundImageFix"/>
<feColorMatrix in="SourceAlpha" type="matrix" values="0 0 0 0 0 0 0 0 0 0 0 0 0 0 0 0 0 0 127 0" result="hardAlpha"/>
<feOffset dy="0.32"/>
<feGaussianBlur stdDeviation="0.16"/>
<feComposite in2="hardAlpha" operator="out"/>
<feColorMatrix type="matrix" values="0 0 0 0 0 0 0 0 0 0 0 0 0 0 0 0 0 0 0.25 0"/>
<feBlend mode="normal" in2="BackgroundImageFix" result="effect1_dropShadow_149_311"/>
<feBlend mode="normal" in="SourceGraphic" in2="effect1_dropShadow_149_311" result="shape"/>
</filter>
</defs>
</svg>
