<svg width="220" height="220" viewBox="0 0 220 220" fill="none" xmlns="http://www.w3.org/2000/svg">
<circle cx="109.76" cy="109.76" r="107.76" fill="#D2B236" stroke="black" stroke-width="4"/>
<circle cx="109.688" cy="192.52" r="25" fill="#FF931E" stroke="black" stroke-width="4"/>
<circle cx="167.875" cy="165.562" r="25" fill="#FF931E" stroke="black" stroke-width="4"/>
<circle cx="171.562" cy="53.8828" r="25" fill="#FF931E" stroke="black" stroke-width="4"/>
<circle cx="47.875" cy="54.0391" r="25" fill="#FF931E" stroke="black" stroke-width="4"/>
<circle cx="53.9375" cy="171.562" r="25" fill="#FF931E" stroke="black" stroke-width="4"/>
<circle cx="109.688" cy="27" r="25" fill="#FF931E" stroke="black" stroke-width="4"/>
<circle cx="192.5" cy="109.723" r="25" fill="#FF931E" stroke="black" stroke-width="4"/>
<circle cx="27" cy="109.723" r="25" fill="#FF931E" stroke="black" stroke-width="4"/>
<mask id="path-10-inside-1_149_42" fill="white">
<path d="M109.696 28.8828C154.365 28.8828 190.577 65.094 190.577 109.763C190.577 154.431 154.365 190.643 109.696 190.643C65.0277 190.642 28.8164 154.431 28.8164 109.763C28.8165 65.0941 65.0277 28.883 109.696 28.8828ZM109.689 58.0039C81.1104 58.004 57.9424 81.1719 57.9424 109.751C57.9424 138.33 81.1103 161.498 109.689 161.498C138.269 161.498 161.437 138.33 161.437 109.751C161.436 81.1718 138.269 58.0039 109.689 58.0039Z"/>
</mask>
<path d="M109.696 28.8828C154.365 28.8828 190.577 65.094 190.577 109.763C190.577 154.431 154.365 190.643 109.696 190.643C65.0277 190.642 28.8164 154.431 28.8164 109.763C28.8165 65.0941 65.0277 28.883 109.696 28.8828ZM109.689 58.0039C81.1104 58.004 57.9424 81.1719 57.9424 109.751C57.9424 138.33 81.1103 161.498 109.689 161.498C138.269 161.498 161.437 138.33 161.437 109.751C161.436 81.1718 138.269 58.0039 109.689 58.0039Z" fill="#947D26"/>
<path d="M109.696 28.8828V24.8828H109.696L109.696 28.8828ZM190.577 109.763H194.577V109.763L190.577 109.763ZM109.696 190.643L109.696 194.643H109.696V190.643ZM28.8164 109.763L24.8164 109.763V109.763H28.8164ZM109.689 58.0039V54.0039H109.689L109.689 58.0039ZM57.9424 109.751L53.9424 109.751V109.751H57.9424ZM109.689 161.498L109.689 165.498H109.689V161.498ZM161.437 109.751H165.437V109.751L161.437 109.751ZM109.696 28.8828V32.8828C152.156 32.8828 186.577 67.3032 186.577 109.763L190.577 109.763L194.577 109.763C194.577 62.8848 156.574 24.8828 109.696 24.8828V28.8828ZM190.577 109.763H186.577C186.577 152.222 152.156 186.643 109.696 186.643V190.643V194.643C156.574 194.643 194.577 156.641 194.577 109.763H190.577ZM109.696 190.643L109.696 186.643C67.2368 186.642 32.8164 152.222 32.8164 109.763H28.8164H24.8164C24.8164 156.641 62.8186 194.642 109.696 194.643L109.696 190.643ZM28.8164 109.763L32.8164 109.763C32.8165 67.3033 67.2369 32.883 109.696 32.8828L109.696 28.8828L109.696 24.8828C62.8186 24.883 24.8165 62.8849 24.8164 109.763L28.8164 109.763ZM109.689 58.0039L109.689 54.0039C78.9012 54.004 53.9424 78.9627 53.9424 109.751L57.9424 109.751L61.9424 109.751C61.9424 83.381 83.3195 62.004 109.689 62.0039L109.689 58.0039ZM57.9424 109.751H53.9424C53.9424 140.539 78.9012 165.498 109.689 165.498L109.689 161.498L109.689 157.498C83.3195 157.498 61.9424 136.121 61.9424 109.751H57.9424ZM109.689 161.498V165.498C140.478 165.498 165.437 140.539 165.437 109.751H161.437H157.437C157.437 136.121 136.059 157.498 109.689 157.498V161.498ZM161.437 109.751L165.437 109.751C165.436 78.9627 140.478 54.0039 109.689 54.0039V58.0039V62.0039C136.059 62.0039 157.436 83.381 157.437 109.751L161.437 109.751Z" fill="black" mask="url(#path-10-inside-1_149_42)"/>
</svg>
