<svg width="220" height="220" viewBox="0 0 220 220" fill="none" xmlns="http://www.w3.org/2000/svg">
<circle cx="109.76" cy="109.76" r="107.76" fill="#D9D9D9" stroke="black" stroke-width="4"/>
<circle cx="109.75" cy="192.52" r="25" fill="#FF931E" stroke="black" stroke-width="4"/>
<circle cx="167.875" cy="165.562" r="25" fill="#FF931E" stroke="black" stroke-width="4"/>
<circle cx="171.562" cy="53.8828" r="25" fill="#FF931E" stroke="black" stroke-width="4"/>
<circle cx="47.875" cy="54.0391" r="25" fill="#FF931E" stroke="black" stroke-width="4"/>
<circle cx="53.9375" cy="171.562" r="25" fill="#FF931E" stroke="black" stroke-width="4"/>
<circle cx="109.75" cy="27" r="25" fill="#FF931E" stroke="black" stroke-width="4"/>
<circle cx="192.5" cy="109.723" r="25" fill="#FF931E" stroke="black" stroke-width="4"/>
<circle cx="27" cy="109.723" r="25" fill="#FF931E" stroke="black" stroke-width="4"/>
<mask id="path-10-inside-1_149_3" fill="white">
<path d="M109.759 28.8828C154.428 28.8828 190.64 65.094 190.64 109.763C190.64 154.431 154.428 190.643 109.759 190.643C65.0902 190.642 28.8789 154.431 28.8789 109.763C28.879 65.0941 65.0902 28.883 109.759 28.8828ZM109.752 58.0156C81.1729 58.0157 58.0049 81.1836 58.0049 109.763C58.0049 138.342 81.1728 161.51 109.752 161.51C138.331 161.51 161.499 138.342 161.499 109.763C161.499 81.1836 138.331 58.0156 109.752 58.0156Z"/>
</mask>
<path d="M109.759 28.8828C154.428 28.8828 190.64 65.094 190.64 109.763C190.64 154.431 154.428 190.643 109.759 190.643C65.0902 190.642 28.8789 154.431 28.8789 109.763C28.879 65.0941 65.0902 28.883 109.759 28.8828ZM109.752 58.0156C81.1729 58.0157 58.0049 81.1836 58.0049 109.763C58.0049 138.342 81.1728 161.51 109.752 161.51C138.331 161.51 161.499 138.342 161.499 109.763C161.499 81.1836 138.331 58.0156 109.752 58.0156Z" fill="#BCBCBC"/>
<path d="M109.759 28.8828V24.8828H109.759L109.759 28.8828ZM190.64 109.763H194.64V109.763L190.64 109.763ZM109.759 190.643L109.759 194.643H109.759V190.643ZM28.8789 109.763L24.8789 109.763V109.763H28.8789ZM109.752 58.0156V54.0156H109.752L109.752 58.0156ZM58.0049 109.763L54.0049 109.763V109.763H58.0049ZM109.752 161.51L109.752 165.51H109.752V161.51ZM161.499 109.763H165.499V109.763L161.499 109.763ZM109.759 28.8828V32.8828C152.218 32.8828 186.64 67.3032 186.64 109.763L190.64 109.763L194.64 109.763C194.64 62.8848 156.637 24.8828 109.759 24.8828V28.8828ZM190.64 109.763H186.64C186.64 152.222 152.218 186.643 109.759 186.643V190.643V194.643C156.637 194.643 194.64 156.641 194.64 109.763H190.64ZM109.759 190.643L109.759 186.643C67.2993 186.642 32.8789 152.222 32.8789 109.763H28.8789H24.8789C24.8789 156.641 62.8811 194.642 109.759 194.643L109.759 190.643ZM28.8789 109.763L32.8789 109.763C32.879 67.3033 67.2994 32.883 109.759 32.8828L109.759 28.8828L109.759 24.8828C62.8811 24.883 24.879 62.8849 24.8789 109.763L28.8789 109.763ZM109.752 58.0156L109.752 54.0156C78.9637 54.0157 54.0049 78.9745 54.0049 109.763L58.0049 109.763L62.0049 109.763C62.0049 83.3927 83.382 62.0157 109.752 62.0156L109.752 58.0156ZM58.0049 109.763H54.0049C54.0049 140.551 78.9637 165.51 109.752 165.51L109.752 161.51L109.752 157.51C83.382 157.51 62.0049 136.133 62.0049 109.763H58.0049ZM109.752 161.51V165.51C140.54 165.51 165.499 140.551 165.499 109.763H161.499H157.499C157.499 136.133 136.122 157.51 109.752 157.51V161.51ZM161.499 109.763L165.499 109.763C165.499 78.9744 140.54 54.0156 109.752 54.0156V58.0156V62.0156C136.122 62.0156 157.499 83.3927 157.499 109.763L161.499 109.763Z" fill="black" mask="url(#path-10-inside-1_149_3)"/>
</svg>
