<svg width="220" height="220" viewBox="0 0 220 220" fill="none" xmlns="http://www.w3.org/2000/svg">
<circle cx="109.76" cy="109.76" r="107.76" fill="#A19D94" stroke="black" stroke-width="4"/>
<circle cx="109.75" cy="192.52" r="25" fill="#FF931E" stroke="black" stroke-width="4"/>
<circle cx="167.875" cy="165.562" r="25" fill="#FF931E" stroke="black" stroke-width="4"/>
<circle cx="171.562" cy="53.8828" r="25" fill="#FF931E" stroke="black" stroke-width="4"/>
<circle cx="47.875" cy="54.0391" r="25" fill="#FF931E" stroke="black" stroke-width="4"/>
<circle cx="54" cy="171.562" r="25" fill="#FF931E" stroke="black" stroke-width="4"/>
<circle cx="109.75" cy="27" r="25" fill="#FF931E" stroke="black" stroke-width="4"/>
<circle cx="192.562" cy="109.723" r="25" fill="#FF931E" stroke="black" stroke-width="4"/>
<circle cx="27" cy="109.723" r="25" fill="#FF931E" stroke="black" stroke-width="4"/>
<mask id="path-10-inside-1_149_29" fill="white">
<path d="M109.821 28.8828C154.49 28.8828 190.702 65.094 190.702 109.763C190.702 154.431 154.49 190.643 109.821 190.643C65.1527 190.642 28.9414 154.431 28.9414 109.763C28.9415 65.0941 65.1527 28.883 109.821 28.8828ZM109.814 58.0039C81.2354 58.004 58.0674 81.1719 58.0674 109.751C58.0674 138.33 81.2353 161.498 109.814 161.498C138.394 161.498 161.562 138.33 161.562 109.751C161.561 81.1718 138.394 58.0039 109.814 58.0039Z"/>
</mask>
<path d="M109.821 28.8828C154.49 28.8828 190.702 65.094 190.702 109.763C190.702 154.431 154.49 190.643 109.821 190.643C65.1527 190.642 28.9414 154.431 28.9414 109.763C28.9415 65.0941 65.1527 28.883 109.821 28.8828ZM109.814 58.0039C81.2354 58.004 58.0674 81.1719 58.0674 109.751C58.0674 138.33 81.2353 161.498 109.814 161.498C138.394 161.498 161.562 138.33 161.562 109.751C161.561 81.1718 138.394 58.0039 109.814 58.0039Z" fill="#6C6963"/>
<path d="M109.821 28.8828V24.8828H109.821L109.821 28.8828ZM190.702 109.763H194.702V109.763L190.702 109.763ZM109.821 190.643L109.821 194.643H109.821V190.643ZM28.9414 109.763L24.9414 109.763V109.763H28.9414ZM109.814 58.0039V54.0039H109.814L109.814 58.0039ZM58.0674 109.751L54.0674 109.751V109.751H58.0674ZM109.814 161.498L109.814 165.498H109.814V161.498ZM161.562 109.751H165.562V109.751L161.562 109.751ZM109.821 28.8828V32.8828C152.281 32.8828 186.702 67.3032 186.702 109.763L190.702 109.763L194.702 109.763C194.702 62.8848 156.699 24.8828 109.821 24.8828V28.8828ZM190.702 109.763H186.702C186.702 152.222 152.281 186.643 109.821 186.643V190.643V194.643C156.699 194.643 194.702 156.641 194.702 109.763H190.702ZM109.821 190.643L109.821 186.643C67.3618 186.642 32.9414 152.222 32.9414 109.763H28.9414H24.9414C24.9414 156.641 62.9436 194.642 109.821 194.643L109.821 190.643ZM28.9414 109.763L32.9414 109.763C32.9415 67.3033 67.3619 32.883 109.821 32.8828L109.821 28.8828L109.821 24.8828C62.9436 24.883 24.9415 62.8849 24.9414 109.763L28.9414 109.763ZM109.814 58.0039L109.814 54.0039C79.0262 54.004 54.0674 78.9627 54.0674 109.751L58.0674 109.751L62.0674 109.751C62.0674 83.381 83.4445 62.004 109.814 62.0039L109.814 58.0039ZM58.0674 109.751H54.0674C54.0674 140.539 79.0262 165.498 109.814 165.498L109.814 161.498L109.814 157.498C83.4445 157.498 62.0674 136.121 62.0674 109.751H58.0674ZM109.814 161.498V165.498C140.603 165.498 165.562 140.539 165.562 109.751H161.562H157.562C157.562 136.121 136.184 157.498 109.814 157.498V161.498ZM161.562 109.751L165.562 109.751C165.561 78.9627 140.603 54.0039 109.814 54.0039V58.0039V62.0039C136.184 62.0039 157.561 83.381 157.562 109.751L161.562 109.751Z" fill="black" mask="url(#path-10-inside-1_149_29)"/>
</svg>
