<svg width="1000" height="1173" viewBox="0 0 1000 1173" fill="none" xmlns="http://www.w3.org/2000/svg">
<rect x="470.095" y="1173" width="790.354" height="59.3087" transform="rotate(-90 470.095 1173)" fill="#D9D9D9"/>
<rect x="423.035" y="382.646" width="59.3087" height="153.429" transform="rotate(-90 423.035 382.646)" fill="#C4C4C4"/>
<path d="M499.75 0L599.126 329.533L400.374 329.533L499.75 0Z" fill="#D9D9D9"/>
<rect y="960" width="1000" height="40" fill="white"/>
<path d="M500 473C776.142 473 1000 690.849 1000 959.58C1000 959.72 999.999 959.86 999.999 960H938.796C938.796 959.877 938.797 959.755 938.797 959.632C938.797 724.01 742.519 533 500.398 533C258.278 533 62.0001 724.01 62 959.632C62 959.755 62.0009 959.877 62.001 960H0.000976562C0.000855138 959.86 0 959.72 0 959.58C0.00010169 690.849 223.858 473 500 473Z" fill="#AC842E"/>
</svg>
