<svg width="2365" height="2141" viewBox="0 0 2365 2141" fill="none" xmlns="http://www.w3.org/2000/svg">
<path d="M1410 25C1663.01 25 1875.24 199.657 1932.67 434.981C2166.66 493.364 2340 704.938 2340 957C2340 1054.99 2313.8 1146.87 2268.02 1226C2313.8 1305.13 2340 1397.01 2340 1495C2340 1792.13 2099.13 2033 1802 2033C1754.21 2033 1707.88 2026.77 1663.77 2015.07C1575.45 2078.59 1467.09 2116 1350 2116C1223.02 2116 1106.31 2072.01 1014.29 1998.43C1011.97 1997.77 1009.66 1997.11 1007.35 1996.43C946.795 2020.04 880.911 2033 812 2033C528.61 2033 296.396 1813.89 275.527 1535.84C124.961 1440.48 25 1272.41 25 1081C25 889.484 125.07 721.339 275.774 626.004C274.6 611.491 274 596.815 274 582C274 284.871 514.871 44 812 44C916.599 44 1014.23 73.8507 1096.83 125.497C1185.04 62.2406 1293.17 25 1410 25Z" fill="#437C39"/>
<path d="M1932.67 434.981L1908.39 440.91L1911.97 455.581L1926.62 459.238L1932.67 434.981ZM2268.02 1226L2246.38 1213.48L2239.14 1226L2246.38 1238.52L2268.02 1226ZM1663.77 2015.07L1670.18 1990.91L1658.76 1987.88L1649.17 1994.78L1663.77 2015.07ZM1014.29 1998.43L1029.9 1978.91L1025.97 1975.76L1021.12 1974.38L1014.29 1998.43ZM1007.35 1996.43L1014.37 1972.44L1006.2 1970.05L998.27 1973.14L1007.35 1996.43ZM275.527 1535.84L300.457 1533.97L299.517 1521.44L288.904 1514.72L275.527 1535.84ZM275.774 626.004L289.14 647.131L301.912 639.051L300.693 623.987L275.774 626.004ZM1096.83 125.497L1083.57 146.695L1097.78 155.577L1111.39 145.813L1096.83 125.497ZM1410 25V50C1651.22 50 1853.62 216.519 1908.39 440.91L1932.67 434.981L1956.96 429.053C1896.85 182.795 1674.81 0 1410 0V25ZM1932.67 434.981L1926.62 459.238C2149.73 514.909 2315 716.685 2315 957H2340H2365C2365 693.192 2183.58 471.82 1938.73 410.725L1932.67 434.981ZM2340 957H2315C2315 1050.48 2290.02 1138.05 2246.38 1213.48L2268.02 1226L2289.66 1238.52C2337.58 1155.68 2365 1059.51 2365 957H2340ZM2268.02 1226L2246.38 1238.52C2290.02 1313.95 2315 1401.52 2315 1495H2340H2365C2365 1392.49 2337.58 1296.32 2289.66 1213.48L2268.02 1226ZM2340 1495H2315C2315 1778.32 2085.32 2008 1802 2008V2033V2058C2112.94 2058 2365 1805.94 2365 1495H2340ZM1802 2033V2008C1756.39 2008 1712.21 2002.05 1670.18 1990.91L1663.77 2015.07L1657.36 2039.24C1703.54 2051.48 1752.03 2058 1802 2058V2033ZM1663.77 2015.07L1649.17 1994.78C1564.96 2055.34 1461.68 2091 1350 2091V2116V2141C1472.5 2141 1585.93 2101.84 1678.37 2035.37L1663.77 2015.07ZM1350 2116V2091C1228.9 2091 1117.65 2049.06 1029.9 1978.91L1014.29 1998.43L998.68 2017.96C1094.97 2094.95 1217.14 2141 1350 2141V2116ZM1014.29 1998.43L1021.12 1974.38C1018.87 1973.74 1016.62 1973.09 1014.37 1972.44L1007.35 1996.43L1000.34 2020.43C1002.7 2021.12 1005.08 2021.81 1007.47 2022.48L1014.29 1998.43ZM1007.35 1996.43L998.27 1973.14C940.562 1995.64 877.754 2008 812 2008V2033V2058C884.069 2058 953.029 2044.44 1016.43 2019.72L1007.35 1996.43ZM812 2033V2008C541.79 2008 320.355 1799.07 300.457 1533.97L275.527 1535.84L250.597 1537.71C272.438 1828.71 515.43 2058 812 2058V2033ZM275.527 1535.84L288.904 1514.72C145.269 1423.75 50 1263.49 50 1081H25H0C0 1281.33 104.652 1457.21 262.151 1556.96L275.527 1535.84ZM25 1081H50C50 898.41 145.373 738.077 289.14 647.131L275.774 626.004L262.409 604.876C104.766 704.601 0 880.557 0 1081H25ZM275.774 626.004L300.693 623.987C299.572 610.143 299 596.141 299 582H274H249C249 597.49 249.627 612.839 250.856 628.021L275.774 626.004ZM274 582H299C299 298.678 528.678 69 812 69V44V19C501.064 19 249 271.064 249 582H274ZM812 44V69C911.777 69 1004.83 97.4605 1083.57 146.695L1096.83 125.497L1110.08 104.299C1023.62 50.2409 921.421 19 812 19V44ZM1096.83 125.497L1111.39 145.813C1195.5 85.5014 1298.57 50 1410 50V25V0C1287.77 0 1174.58 38.9798 1082.26 105.181L1096.83 125.497Z" fill="black"/>
<circle cx="1244.02" cy="1105.59" r="509.939" fill="#518B47"/>
<circle cx="991.565" cy="805.102" r="300.49" fill="#518B47"/>
<circle cx="1325.57" cy="794.49" r="300.49" fill="#518B47"/>
<circle cx="1544.51" cy="1014.55" r="300.49" fill="#518B47"/>
<circle cx="1544.51" cy="1315.04" r="300.49" fill="#518B47"/>
<circle cx="1292.05" cy="1361.4" r="300.49" fill="#518B47"/>
<circle cx="991.565" cy="1315.04" r="300.49" fill="#518B47"/>
<circle cx="852.49" cy="1083.81" r="300.49" fill="#518B47"/>
</svg>
