<svg width="215" height="122" viewBox="0 0 215 122" fill="none" xmlns="http://www.w3.org/2000/svg">
<path d="M195 0C206.046 0 215 8.95431 215 20V102C215 113.046 206.046 122 195 122H20C8.95431 122 0 113.046 0 102V20C0 8.95431 8.95431 0 20 0H195ZM97.9219 79.7891C97.0104 79.4766 96.0989 79.6979 95.1875 80.4531C94.849 80.7135 94.5755 81 94.3672 81.3125C94.1589 81.5989 93.9114 81.8724 93.625 82.1328C93.1823 82.4974 92.7265 82.875 92.2578 83.2656C91.8152 83.6562 91.4765 84.0469 91.2422 84.4375C90.7474 85.3489 90.4349 86.5339 90.3047 87.9922C90.2266 88.7734 90.2266 89.6719 90.3047 90.6875C90.3828 91.677 90.3177 92.5495 90.1094 93.3047C89.9792 93.7213 89.875 94.2292 89.7969 94.8281C89.7188 95.401 89.6927 96.0131 89.7188 96.6641C89.7969 97.9399 90.0574 98.6041 90.5 98.6562C91.099 98.7344 91.4635 99.3203 91.5938 100.414C91.6198 100.779 91.711 101.169 91.8672 101.586C92.0234 102.003 92.1276 102.471 92.1797 102.992C92.2578 103.513 92.2708 103.943 92.2188 104.281C92.1927 104.62 92.2188 104.958 92.2969 105.297C92.4531 106.286 92.8959 107.029 93.625 107.523C94.276 107.966 94.7969 108.539 95.1875 109.242C95.3958 109.685 95.5911 110.023 95.7734 110.258C96.1901 110.674 96.8412 110.883 97.7266 110.883C98.2473 110.883 98.6771 110.674 99.0156 110.258L99.4062 109.711C99.5364 109.529 99.7449 109.333 100.031 109.125C100.344 108.943 100.76 108.682 101.281 108.344C101.828 107.979 102.349 107.523 102.844 106.977C103.339 106.404 103.729 105.674 104.016 104.789C104.328 103.878 104.68 103.331 105.07 103.148C105.148 103.096 105.227 103.031 105.305 102.953C105.409 102.875 105.565 102.641 105.773 102.25C105.982 101.833 106.073 100.779 106.047 99.0859C106.021 98.4089 105.982 97.7317 105.93 97.0547C105.878 96.3777 105.943 95.9219 106.125 95.6875C106.542 95.0625 106.75 94.4375 106.75 93.8125C106.75 93.3177 106.646 92.8229 106.438 92.3281C106.359 92.1458 106.268 91.9635 106.164 91.7812C106.086 91.599 106.021 91.3255 105.969 90.9609C105.943 90.5703 105.982 89.8932 106.086 88.9297C106.216 87.9662 106.112 87.1979 105.773 86.625C105.643 86.4427 105.565 86.1302 105.539 85.6875C105.383 84.5156 104.927 83.4349 104.172 82.4453C103.859 82.0286 103.482 81.638 103.039 81.2734C102.622 80.9089 101.945 80.6745 101.008 80.5703C100.07 80.4661 99.0416 80.2057 97.9219 79.7891ZM151.868 101.091C151.385 101.033 150.791 101.035 150.086 101.097C148.379 101.245 147.732 101.863 148.145 102.951C148.188 103.077 148.232 103.219 148.275 103.376C148.391 103.769 148.221 105.399 147.765 108.265C147.672 108.887 147.762 109.397 148.034 109.794C148.156 109.953 148.294 110.074 148.448 110.155C148.603 110.237 148.781 110.296 148.983 110.332C149.17 110.352 149.466 110.39 149.871 110.446C150.276 110.502 150.798 110.585 151.437 110.693C152.059 110.801 152.497 110.757 152.752 110.56C152.863 110.484 152.943 110.399 152.992 110.307C153.041 110.214 153.145 110.138 153.303 110.079C153.46 110.02 153.624 110.017 153.795 110.067C153.966 110.103 154.145 110.146 154.331 110.197C154.502 110.248 154.665 110.283 154.821 110.302C154.977 110.305 155.111 110.246 155.224 110.124C155.336 109.986 155.371 109.846 155.327 109.704C155.284 109.562 155.179 109.364 155.013 109.11C154.847 108.841 154.798 108.598 154.865 108.381C154.981 108.087 155.399 107.932 156.118 107.917C156.431 107.909 156.775 107.932 157.148 107.987C157.523 108.027 157.943 108.107 158.409 108.228C158.86 108.332 159.227 108.348 159.51 108.276C159.793 108.205 160.062 108.062 160.316 107.85C160.626 107.966 160.915 108.004 161.182 107.963C161.448 107.922 161.66 107.872 161.817 107.813C161.959 107.754 162.126 107.696 162.314 107.638C162.504 107.564 162.739 107.507 163.021 107.467C163.288 107.426 163.671 107.427 164.17 107.47C164.669 107.497 165.093 107.435 165.44 107.287C165.803 107.139 165.981 106.901 165.973 106.573C165.892 106.009 165.744 105.63 165.529 105.438C165.361 105.293 165.121 105.209 164.809 105.187C164.497 105.164 164.123 105.124 163.687 105.067C163.235 105.01 162.625 105.012 161.857 105.072L161.539 104.643C161.478 104.579 161.425 104.507 161.38 104.428C161.319 104.348 161.25 104.292 161.173 104.259C161.08 104.21 160.964 104.184 160.823 104.181C160.683 104.177 160.471 104.219 160.188 104.307C159.904 104.394 159.613 104.435 159.316 104.428C159.192 104.425 159.051 104.422 158.896 104.418C158.724 104.398 158.497 104.393 158.216 104.402C157.434 104.431 156.801 104.416 156.317 104.358C155.99 104.335 155.702 104.282 155.454 104.198C155.206 104.114 155.021 103.976 154.9 103.786C154.78 103.58 154.81 103.323 154.989 103.015C155.07 102.892 155.151 102.761 155.232 102.622C155.298 102.467 155.311 102.265 155.27 102.014C155.229 101.747 155.124 101.557 154.955 101.443C154.77 101.33 154.466 101.284 154.044 101.306C153.622 101.312 153.278 101.295 153.013 101.258C152.25 101.147 151.868 101.091 151.868 101.091ZM193.303 79.6328C191.193 79.4506 189.553 79.763 188.381 80.5703C188.042 80.8047 187.756 81.1173 187.521 81.5078C187.287 81.8984 187.014 82.2891 186.701 82.6797C186.389 83.0442 186.011 83.4219 185.568 83.8125C185.152 84.177 184.891 84.5938 184.787 85.0625C184.683 85.5051 184.631 85.8959 184.631 86.2344C184.631 86.5729 184.644 86.9115 184.67 87.25C184.722 87.5625 184.774 87.9922 184.826 88.5391C184.904 89.086 184.8 90.0495 184.514 91.4297C184.331 92.3411 184.136 93.474 183.928 94.8281C183.641 96.677 183.811 98.461 184.436 100.18C185.243 102.471 185.751 104.242 185.959 105.492C186.011 105.727 186.037 105.922 186.037 106.078C186.063 106.234 186.089 106.404 186.115 106.586C186.141 106.742 186.402 106.951 186.896 107.211C187.079 107.289 187.261 107.38 187.443 107.484C187.58 107.562 187.717 107.662 187.854 107.784L188.146 108.062C188.303 108.224 188.459 108.422 188.615 108.656C188.85 108.943 189.162 109.151 189.553 109.281C189.943 109.411 190.243 109.411 190.451 109.281C190.685 109.177 190.881 109.125 191.037 109.125C191.219 109.125 191.35 109.19 191.428 109.32C192.339 110.466 193.303 110.414 194.318 109.164C194.501 108.904 194.657 108.656 194.787 108.422C194.917 108.188 195.008 108.031 195.061 107.953C195.113 107.849 195.191 107.706 195.295 107.523C195.425 107.315 195.555 107.094 195.686 106.859C195.842 106.625 195.985 106.404 196.115 106.195C196.271 105.987 196.402 105.831 196.506 105.727C196.61 105.596 196.779 105.44 197.014 105.258L197.717 104.711C197.977 104.503 198.212 104.294 198.42 104.086C198.628 103.878 198.771 103.669 198.85 103.461C198.954 103.253 199.032 102.628 199.084 101.586C199.084 101.195 199.097 100.792 199.123 100.375C199.149 99.9584 199.227 99.5025 199.357 99.0078C199.514 98.487 199.735 97.8489 200.021 97.0938C200.308 96.3386 200.477 95.1015 200.529 93.3828C200.555 92.4193 200.594 91.4687 200.646 90.5312C200.699 89.5938 200.516 88.4349 200.1 87.0547C199.943 86.4557 199.761 85.9349 199.553 85.4922C199.37 85.0234 199.188 84.6849 199.006 84.4766C198.85 84.2682 198.667 84.112 198.459 84.0078C198.251 83.8776 198.081 83.6823 197.951 83.4219L197.248 82.0156C196.91 81.3125 196.506 80.8307 196.037 80.5703C195.074 80.0235 194.162 79.7109 193.303 79.6328ZM174.631 79.6719C174.162 79.5938 173.641 79.5807 173.068 79.6328C172.522 79.6849 172.17 79.9193 172.014 80.3359C171.962 80.5182 171.923 80.7266 171.896 80.9609C171.87 81.1953 171.779 81.4818 171.623 81.8203C171.467 82.1588 171.428 82.6277 171.506 83.2266C171.584 83.8255 171.584 84.4896 171.506 85.2188C171.454 85.9478 171.597 86.4818 171.936 86.8203C172.274 87.1588 172.639 87.3411 173.029 87.3672C173.42 87.3672 173.654 87.4714 173.732 87.6797C173.758 87.7839 173.771 87.9401 173.771 88.1484C173.771 88.3568 173.758 88.6433 173.732 89.0078C173.706 89.5026 173.745 90.3621 173.85 91.5859C173.928 92.2109 173.941 93.0183 173.889 94.0078C173.811 95.6484 173.941 96.7682 174.279 97.3672C174.618 97.862 174.657 98.4609 174.396 99.1641C174.24 99.6328 174.149 100.44 174.123 101.586C174.097 102.003 174.071 102.458 174.045 102.953C174.045 103.422 173.967 103.695 173.811 103.773C173.68 103.799 173.537 103.839 173.381 103.891C173.225 103.917 173.055 103.969 172.873 104.047C172.691 104.099 172.534 104.216 172.404 104.398C172.274 104.555 172.183 104.919 172.131 105.492C172.079 106.065 172.092 106.664 172.17 107.289C172.326 108.851 172.639 109.633 173.107 109.633C173.446 109.633 173.811 109.711 174.201 109.867C174.331 109.919 174.462 109.945 174.592 109.945C174.722 109.971 174.891 109.945 175.1 109.867C175.334 109.789 175.529 109.75 175.686 109.75C175.868 109.776 176.115 109.802 176.428 109.828C176.766 109.854 177.17 109.75 177.639 109.516C177.951 109.359 178.238 109.242 178.498 109.164C178.758 109.112 179.084 109.034 179.475 108.93C179.891 108.799 180.269 108.591 180.607 108.305C180.92 107.94 181.102 107.602 181.154 107.289C181.18 107.107 181.193 106.885 181.193 106.625C181.219 106.365 181.285 106 181.389 105.531C181.571 104.724 181.571 104.177 181.389 103.891C181.285 103.76 181.063 103.695 180.725 103.695C180.36 103.695 180.087 103.474 179.904 103.031C180.113 101.573 180.217 100.01 180.217 98.3438L180.139 91.8203C180.139 89.555 180.243 88.2528 180.451 87.9141C180.581 87.7318 180.725 87.6407 180.881 87.6406C181.063 87.6146 181.232 87.5885 181.389 87.5625C181.571 87.5365 181.753 87.4713 181.936 87.3672C182.118 87.237 182.313 86.8853 182.521 86.3125C182.73 85.7136 182.717 84.9453 182.482 84.0078C182.404 83.5912 182.378 83.2005 182.404 82.8359C182.456 82.4714 182.482 82.1328 182.482 81.8203C182.482 81.4818 182.43 81.1693 182.326 80.8828C182.248 80.5964 182.014 80.349 181.623 80.1406C181.258 79.9323 180.712 79.8932 179.982 80.0234C179.67 80.0755 179.344 80.1406 179.006 80.2188C178.693 80.2708 178.407 80.2969 178.146 80.2969C177.808 80.2968 177.092 80.1666 175.998 79.9062C175.581 79.8021 175.126 79.724 174.631 79.6719ZM19.4453 79.8281C19.1068 79.6979 18.7161 79.724 18.2734 79.9062C17.8568 80.0885 17.5052 80.3229 17.2188 80.6094C16.724 80.349 16.3333 80.3229 16.0469 80.5312C15.4219 80.0625 14.6406 80.1146 13.7031 80.6875C13.0522 81.1302 12.8438 81.8464 13.0781 82.8359C13.1562 83.2526 13.2344 83.6432 13.3125 84.0078C13.4167 84.3724 13.5078 84.75 13.5859 85.1406C13.6641 85.5312 13.7161 85.9219 13.7422 86.3125C13.7943 86.6771 13.7812 87.0808 13.7031 87.5234C13.625 87.9661 13.6771 88.6173 13.8594 89.4766C13.9896 89.9712 14.1459 90.2317 14.3281 90.2578C14.4323 90.2839 14.5365 90.5833 14.6406 91.1562C14.7708 91.7032 15.0052 92.8881 15.3438 94.7109C15.6823 96.5078 16.0208 97.9271 16.3594 98.9688C16.776 100.245 17.1406 101.925 17.4531 104.008C17.5573 104.737 17.6354 105.388 17.6875 105.961C17.7656 106.508 17.8698 106.938 18 107.25C18.1562 107.562 18.3255 107.784 18.5078 107.914C18.6901 108.018 19.0547 108.161 19.6016 108.344C20.1484 108.5 20.6432 108.721 21.0859 109.008C21.789 109.45 22.4141 109.424 22.9609 108.93C23.1953 108.695 23.3906 108.422 23.5469 108.109C23.7031 107.771 23.8333 107.445 23.9375 107.133C24.0677 106.82 24.1458 106.521 24.1719 106.234L24.25 105.297C24.3021 104.984 24.3672 104.659 24.4453 104.32C24.5234 103.982 24.6928 103.591 24.9531 103.148C25.2396 102.706 25.5 101.898 25.7344 100.727C25.8125 100.31 25.8906 99.9713 25.9688 99.7109C26.0469 99.4246 26.1641 99.2813 26.3203 99.2812C26.5807 99.2812 26.8281 99.8932 27.0625 101.117C27.1406 101.612 27.2057 102.159 27.2578 102.758C27.3099 103.357 27.349 104.034 27.375 104.789C27.4271 105.544 27.5703 106.195 27.8047 106.742C28.0651 107.263 28.4558 107.628 28.9766 107.836C29.3151 107.94 29.6016 108.253 29.8359 108.773L30.0703 109.32C30.1745 109.503 30.3829 109.659 30.6953 109.789C31.0338 109.919 31.3464 109.815 31.6328 109.477C31.9453 109.164 32.1536 108.695 32.2578 108.07C32.362 107.445 32.6354 106.586 33.0781 105.492L33.625 104.008C33.8333 103.487 34.0287 102.979 34.2109 102.484C34.3932 101.99 34.4583 101.286 34.4062 100.375C34.3802 99.9323 34.4714 99.4374 34.6797 98.8906C34.8359 98.4741 34.9792 98.1745 35.1094 97.9922C35.2395 97.7839 35.3438 97.6146 35.4219 97.4844C35.5 97.3542 35.5651 97.2239 35.6172 97.0938C35.6693 96.9635 35.6953 96.6249 35.6953 96.0781C35.6953 95.5313 36.0339 93.9817 36.7109 91.4297C36.8411 90.9349 36.9583 90.1145 37.0625 88.9688C37.1146 88.5782 37.1667 88.2135 37.2188 87.875C37.2708 87.5105 37.349 87.1718 37.4531 86.8594C37.5833 86.5208 37.7396 85.8307 37.9219 84.7891C37.974 84.3724 38.026 83.9817 38.0781 83.6172C38.1302 83.2266 38.1693 82.8099 38.1953 82.3672C38.2474 81.9245 38.1302 81.4818 37.8438 81.0391C37.5833 80.5703 37.2188 80.401 36.75 80.5312C36.3074 80.6354 35.9557 80.7266 35.6953 80.8047C35.461 80.8568 35.1874 80.8828 34.875 80.8828C34.5625 80.8828 34.0416 80.7265 33.3125 80.4141C32.2969 79.9453 31.5677 80.0495 31.125 80.7266C30.8907 81.0651 30.8776 81.547 31.0859 82.1719C31.2682 82.6927 31.2943 83.3828 31.1641 84.2422C31.112 84.763 30.9687 85.0495 30.7344 85.1016C30.5001 85.1538 30.3177 85.5444 30.1875 86.2734C30.1354 86.5859 30.0833 86.9115 30.0312 87.25C30.0052 87.5625 29.9661 87.875 29.9141 88.1875C29.888 88.4739 29.8229 88.7605 29.7188 89.0469C29.6146 89.3333 29.5495 89.7892 29.5234 90.4141L29.5625 93.0312C29.5625 93.5 29.5365 93.9297 29.4844 94.3203C29.3542 95.2838 28.9896 95.4922 28.3906 94.9453C28 94.5807 27.8047 93.9947 27.8047 93.1875C27.8047 92.7449 27.8177 92.4193 27.8438 92.2109C27.8958 91.9766 27.9349 91.7812 27.9609 91.625C27.987 91.4427 27.987 91.2734 27.9609 91.1172C27.9349 90.9349 27.8047 90.5963 27.5703 90.1016C27.336 89.6068 27.2318 89.1119 27.2578 88.6172C27.2839 88.1224 27.2969 87.6276 27.2969 87.1328C27.2969 86.612 27.2838 86.2344 27.2578 86L27.1797 85.2188C27.1536 84.9323 27.1146 84.6067 27.0625 84.2422C27.0365 83.8776 26.9974 83.2526 26.9453 82.3672C26.9193 81.4818 26.8281 80.8438 26.6719 80.4531C26.5677 80.2448 26.4635 80.1016 26.3594 80.0234C26.2552 79.9453 26.0989 79.8802 25.8906 79.8281C25.6823 79.7761 25.4609 79.8672 25.2266 80.1016C24.9923 80.3099 24.862 80.5573 24.8359 80.8438L24.5625 81.9766C24.5625 82.0807 24.6146 82.198 24.7188 82.3281C24.4844 82.927 24.1458 83.3959 23.7031 83.7344C23.625 84.151 23.5599 84.5417 23.5078 84.9062C23.4557 85.2448 23.3776 85.7397 23.2734 86.3906C23.1693 87.0156 23.0521 88.0704 22.9219 89.5547C22.8958 90.0755 22.8568 90.5834 22.8047 91.0781C22.7786 91.5468 22.7526 91.9505 22.7266 92.2891C22.7005 92.6015 22.7135 92.9141 22.7656 93.2266C22.8177 93.539 22.8568 93.8255 22.8828 94.0859C22.9349 94.3463 22.9609 94.5677 22.9609 94.75C22.9609 94.9062 22.8828 95.0235 22.7266 95.1016C22.4662 95.1796 22.2448 95.0755 22.0625 94.7891C21.9844 94.6328 21.9193 94.4635 21.8672 94.2812C21.8151 94.099 21.763 93.8906 21.7109 93.6562C21.6589 93.3959 21.6328 92.9661 21.6328 92.3672C21.6589 91.7422 21.5807 90.8828 21.3984 89.7891C21.2422 88.6954 21.1641 87.6797 21.1641 86.7422V85.5703C21.1641 85.1797 21.112 84.5286 21.0078 83.6172C20.9297 82.6797 20.8125 81.9375 20.6562 81.3906C20.5521 81 20.4088 80.6745 20.2266 80.4141C20.0443 80.1276 19.7839 79.9323 19.4453 79.8281ZM47.7266 79.2812C46.9193 79.2292 45.8385 79.3333 44.4844 79.5938C44.0938 79.6719 43.5598 79.6979 42.8828 79.6719C42.2058 79.6198 41.5416 79.6068 40.8906 79.6328C39.823 79.6589 39.2891 80.0495 39.2891 80.8047C39.2891 80.987 39.3021 81.1823 39.3281 81.3906C39.3802 81.5729 39.4583 81.7943 39.5625 82.0547C39.6667 82.2891 39.6927 82.7969 39.6406 83.5781C39.6406 83.9166 39.6146 84.2422 39.5625 84.5547C39.5104 84.8411 39.3932 85.1016 39.2109 85.3359C39.0547 85.5703 38.9766 85.9089 38.9766 86.3516C38.9766 86.7942 39.1198 87.1589 39.4062 87.4453C39.5365 87.6536 39.849 87.7317 40.3438 87.6797C40.526 87.6797 40.7084 87.6927 40.8906 87.7188C41.0729 87.7188 41.2682 87.8229 41.4766 88.0312C41.7109 88.2396 41.8281 88.8906 41.8281 89.9844C41.8281 90.4531 41.8151 90.948 41.7891 91.4688C41.7891 91.9896 41.8021 92.5495 41.8281 93.1484C41.8802 93.7213 41.9453 94.2813 42.0234 94.8281C42.1016 95.3489 42.1146 95.987 42.0625 96.7422L41.9062 97.6797C41.8802 97.9661 41.8411 98.2917 41.7891 98.6562C41.7631 99.0208 41.8933 99.4896 42.1797 100.062C42.4401 100.557 42.5052 101.182 42.375 101.938C42.3229 102.25 42.2578 102.55 42.1797 102.836C42.1276 103.096 42.1016 103.344 42.1016 103.578C42.1015 103.891 41.9583 104.112 41.6719 104.242C41.5417 104.32 41.3854 104.411 41.2031 104.516C41.0469 104.594 40.8385 104.815 40.5781 105.18C40.3438 105.544 40.2787 106.365 40.3828 107.641C40.4609 108.344 40.6693 108.865 41.0078 109.203C41.8411 110.036 43.0261 110.036 44.5625 109.203C45.1875 108.891 45.9427 108.813 46.8281 108.969C47.1145 109.021 47.375 109.073 47.6094 109.125C47.8697 109.177 48.1172 109.125 48.3516 108.969C48.7682 108.682 49.0938 108.044 49.3281 107.055C49.4062 106.638 49.4453 106.247 49.4453 105.883C49.4714 105.492 49.4453 105.193 49.3672 104.984C49.2891 104.776 49.0677 104.607 48.7031 104.477C48.5469 104.424 48.4036 104.372 48.2734 104.32C48.1693 104.242 48.0911 104.086 48.0391 103.852C47.987 103.617 48 102.862 48.0781 101.586C48.1042 101.065 48.1302 100.531 48.1562 99.9844C48.2083 99.4115 48.2213 98.8515 48.1953 98.3047C48.2995 97.8099 48.3516 97.3802 48.3516 97.0156C48.3516 96.6511 48.4297 96.1692 48.5859 95.5703C48.7422 94.9714 48.8073 94.4245 48.7812 93.9297C48.7812 93.4089 48.6901 92.7708 48.5078 92.0156C47.961 89.2293 48.1303 87.7189 49.0156 87.4844C50.1093 87.25 50.6041 86.4817 50.5 85.1797C50.4479 84.5547 50.4219 83.9427 50.4219 83.3438C50.4219 82.7448 50.4089 82.1718 50.3828 81.625C50.3307 80.4531 49.9792 79.737 49.3281 79.4766C49.0937 79.3984 48.5598 79.3333 47.7266 79.2812ZM115.148 81.5859C114.836 79.8151 114.029 79.2943 112.727 80.0234C112.518 80.1536 112.245 80.323 111.906 80.5312C111.594 80.7395 111.112 80.8568 110.461 80.8828C110.044 80.9089 109.641 81.0651 109.25 81.3516C108.781 81.7162 108.508 82.784 108.43 84.5547V85.7656C108.43 86.1562 108.404 86.5599 108.352 86.9766C108.299 87.3932 108.326 87.6667 108.43 87.7969C108.56 87.9271 108.651 88.0703 108.703 88.2266C108.755 88.3568 108.742 88.6824 108.664 89.2031C108.612 89.724 108.638 90.4532 108.742 91.3906C108.846 92.3281 108.794 93.4219 108.586 94.6719C108.508 95.1406 108.443 95.5573 108.391 95.9219C108.339 96.2864 108.352 96.6381 108.43 96.9766C108.508 97.289 108.677 97.6407 108.938 98.0312C109.198 98.3958 109.354 98.7344 109.406 99.0469C109.484 99.3594 109.576 100.102 109.68 101.273C109.784 102.419 109.914 103.357 110.07 104.086C110.357 105.596 111.06 106.69 112.18 107.367C112.44 107.549 112.674 107.693 112.883 107.797C113.117 107.875 113.299 107.966 113.43 108.07C113.56 108.148 113.69 108.279 113.82 108.461C113.977 108.617 114.133 108.786 114.289 108.969C115.044 109.828 115.773 109.906 116.477 109.203L116.828 108.852C116.932 108.721 117.05 108.643 117.18 108.617C117.31 108.565 117.544 108.565 117.883 108.617C118.221 108.643 118.573 108.682 118.938 108.734C119.302 108.76 119.641 108.799 119.953 108.852C120.266 108.878 120.5 108.865 120.656 108.812C120.943 108.734 121.19 108.487 121.398 108.07C121.815 107.367 122.466 106.768 123.352 106.273C123.794 106.013 124.12 105.74 124.328 105.453C124.771 104.88 124.927 103.93 124.797 102.602C124.745 102.107 124.797 101.599 124.953 101.078C125.109 100.557 125.096 99.9713 124.914 99.3203C124.81 98.9557 124.667 98.4349 124.484 97.7578C124.302 97.0808 124.341 96.5599 124.602 96.1953C124.732 96.0131 124.862 95.8177 124.992 95.6094C125.122 95.4011 125.227 95.0624 125.305 94.5938C125.409 94.125 125.513 92.7708 125.617 90.5312C125.643 89.5157 125.656 88.4479 125.656 87.3281C125.656 86.1823 125.617 85.1146 125.539 84.125C125.487 83.1354 125.383 82.276 125.227 81.5469C125.096 80.8177 124.927 80.362 124.719 80.1797C124.51 79.9974 124.276 79.9062 124.016 79.9062C123.781 79.9063 123.521 79.9323 123.234 79.9844C122.974 80.0104 122.7 80.0625 122.414 80.1406C122.154 80.1927 121.919 80.2188 121.711 80.2188C121.529 80.2187 121.281 80.1797 120.969 80.1016C120.682 80.0235 120.37 79.9714 120.031 79.9453C119.719 79.8932 119.406 79.8932 119.094 79.9453C118.807 79.9714 118.56 80.1016 118.352 80.3359C118.169 80.5704 118.078 81.1564 118.078 82.0938C118.078 83.0312 118.13 84.086 118.234 85.2578C118.339 86.4036 118.456 87.5235 118.586 88.6172C118.716 89.7109 118.807 90.5313 118.859 91.0781C118.937 91.9375 118.911 92.6276 118.781 93.1484C118.729 93.3307 118.625 93.5652 118.469 93.8516C118.339 94.112 118.273 94.7111 118.273 95.6484C118.352 98.7994 117.922 100.453 116.984 100.609C115.891 100.818 115.344 98.9555 115.344 95.0234L115.539 86.1562C115.487 84.2032 115.357 82.6797 115.148 81.5859ZM67.6875 79.6719C67.2448 79.5157 66.6849 79.5807 66.0078 79.8672C65.3829 80.2317 64.901 80.388 64.5625 80.3359C64.224 80.2838 63.8724 80.1536 63.5078 79.9453C62.7266 79.4505 61.6979 79.5287 60.4219 80.1797C59.7969 80.4661 58.7291 80.5703 57.2188 80.4922C56.3074 80.4661 55.6172 80.4661 55.1484 80.4922C54.7058 80.4922 54.1848 80.4661 53.5859 80.4141C53.0131 80.362 52.6094 80.5313 52.375 80.9219C52.1667 81.2864 52.0885 81.6641 52.1406 82.0547C52.2187 82.4453 52.1667 82.836 51.9844 83.2266C51.8282 83.6171 51.737 84.0209 51.7109 84.4375C51.6849 84.8541 51.75 85.2709 51.9062 85.6875C52.0625 86.1041 52.2188 86.5469 52.375 87.0156C52.5573 87.4583 52.6484 87.9401 52.6484 88.4609C52.6745 88.9557 52.6875 89.4375 52.6875 89.9062C52.7135 90.3489 52.7656 90.7396 52.8438 91.0781C52.9479 91.4166 53.1693 91.6641 53.5078 91.8203C54.4713 92.2109 55.1354 91.9765 55.5 91.1172C55.6562 90.7787 55.7995 90.4922 55.9297 90.2578C56.0599 89.9974 56.2813 89.8542 56.5938 89.8281C57.2188 89.8281 57.5833 90.5052 57.6875 91.8594C57.7656 92.5365 57.7656 93.9168 57.6875 96C57.6614 97.1198 57.4922 98.3177 57.1797 99.5938C57.0755 100.036 56.9844 100.44 56.9062 100.805C56.8542 101.169 56.8542 101.534 56.9062 101.898C56.9583 102.237 57.0756 102.458 57.2578 102.562C57.4401 102.641 57.6745 102.849 57.9609 103.188C58.2474 103.526 58.4167 103.969 58.4688 104.516C58.5208 105.062 58.5469 105.531 58.5469 105.922C58.5729 106.286 58.612 106.716 58.6641 107.211C58.7422 107.706 58.9506 107.992 59.2891 108.07C59.5755 108.201 59.7969 108.474 59.9531 108.891C60.0312 109.047 60.1094 109.19 60.1875 109.32C60.2916 109.477 60.4349 109.568 60.6172 109.594C60.8255 109.646 60.9948 109.607 61.125 109.477C61.2812 109.372 61.5027 109.138 61.7891 108.773C62.0755 108.409 62.3881 108.148 62.7266 107.992C63.664 107.576 64.1328 106.846 64.1328 105.805C64.1328 105.362 64.0937 104.984 64.0156 104.672L63.7812 103.734C63.7292 103.422 63.7031 103.122 63.7031 102.836C63.7031 102.55 63.7813 102.302 63.9375 102.094C64.25 101.677 64.4062 100.909 64.4062 99.7891C64.4062 99.2683 64.3802 98.7083 64.3281 98.1094C64.3021 97.5105 64.276 96.9244 64.25 96.3516C64.224 95.7526 64.1719 95.0364 64.0938 94.2031C64.0156 93.3438 63.9635 92.5234 63.9375 91.7422C63.9115 90.935 63.9375 90.2448 64.0156 89.6719C64.0937 89.073 64.2891 88.7344 64.6016 88.6562C64.9141 88.5521 65.1484 88.6693 65.3047 89.0078C65.487 89.3463 65.6563 89.737 65.8125 90.1797C65.9948 90.5963 66.2162 90.987 66.4766 91.3516C66.737 91.6901 67.1537 91.8203 67.7266 91.7422C68.5078 91.612 68.9245 91.039 68.9766 90.0234C69.0026 89.6068 68.9766 89.1771 68.8984 88.7344C68.8464 88.2917 68.7943 87.862 68.7422 87.4453C68.7161 87.0287 68.7813 86.1562 68.9375 84.8281C69.0156 84.3334 69.0677 83.7994 69.0938 83.2266C69.1458 82.6537 69.1328 82.0807 69.0547 81.5078C69.0026 80.9089 68.8724 80.4922 68.6641 80.2578C68.4557 80.0234 68.1302 79.8281 67.6875 79.6719ZM143.078 79.6719C142.635 79.5157 142.075 79.5807 141.398 79.8672C140.773 80.2317 140.292 80.388 139.953 80.3359C139.615 80.2838 139.263 80.1536 138.898 79.9453C138.117 79.4506 137.089 79.5287 135.812 80.1797C135.187 80.4661 134.12 80.5703 132.609 80.4922C131.698 80.4661 131.008 80.4661 130.539 80.4922C130.096 80.4922 129.575 80.4661 128.977 80.4141C128.404 80.362 128 80.5313 127.766 80.9219C127.557 81.2864 127.479 81.6641 127.531 82.0547C127.609 82.4453 127.557 82.836 127.375 83.2266C127.219 83.6171 127.128 84.0209 127.102 84.4375C127.076 84.8541 127.141 85.2709 127.297 85.6875C127.453 86.1042 127.609 86.5469 127.766 87.0156C127.948 87.4583 128.039 87.9401 128.039 88.4609C128.065 88.9557 128.078 89.4375 128.078 89.9062C128.104 90.3489 128.156 90.7396 128.234 91.0781C128.339 91.4166 128.56 91.6641 128.898 91.8203C129.862 92.2109 130.526 91.9765 130.891 91.1172C131.047 90.7787 131.19 90.4922 131.32 90.2578C131.451 89.9974 131.672 89.8542 131.984 89.8281C132.609 89.8281 132.974 90.5052 133.078 91.8594C133.156 92.5365 133.156 93.9168 133.078 96C133.052 97.1198 132.883 98.3177 132.57 99.5938C132.466 100.036 132.375 100.44 132.297 100.805C132.245 101.169 132.245 101.534 132.297 101.898C132.349 102.237 132.466 102.458 132.648 102.562C132.831 102.641 133.065 102.849 133.352 103.188C133.638 103.526 133.807 103.969 133.859 104.516C133.911 105.062 133.938 105.531 133.938 105.922C133.964 106.286 134.003 106.716 134.055 107.211C134.133 107.706 134.341 107.992 134.68 108.07C134.966 108.201 135.188 108.474 135.344 108.891C135.422 109.047 135.5 109.19 135.578 109.32C135.682 109.477 135.826 109.568 136.008 109.594C136.216 109.646 136.385 109.607 136.516 109.477C136.672 109.372 136.893 109.138 137.18 108.773C137.466 108.409 137.779 108.148 138.117 107.992C139.055 107.576 139.523 106.846 139.523 105.805C139.523 105.362 139.484 104.984 139.406 104.672L139.172 103.734C139.12 103.422 139.094 103.122 139.094 102.836C139.094 102.55 139.172 102.302 139.328 102.094C139.641 101.677 139.797 100.909 139.797 99.7891C139.797 99.2683 139.771 98.7083 139.719 98.1094C139.693 97.5105 139.667 96.9244 139.641 96.3516C139.615 95.7526 139.562 95.0364 139.484 94.2031C139.406 93.3438 139.354 92.5234 139.328 91.7422C139.302 90.935 139.328 90.2448 139.406 89.6719C139.484 89.073 139.68 88.7344 139.992 88.6562C140.305 88.5521 140.539 88.6693 140.695 89.0078C140.878 89.3464 141.047 89.737 141.203 90.1797C141.385 90.5963 141.607 90.987 141.867 91.3516C142.128 91.6901 142.544 91.8203 143.117 91.7422C143.898 91.612 144.315 91.039 144.367 90.0234C144.393 89.6068 144.367 89.1771 144.289 88.7344C144.237 88.2917 144.185 87.862 144.133 87.4453C144.107 87.0287 144.172 86.1562 144.328 84.8281C144.406 84.3334 144.458 83.7994 144.484 83.2266C144.536 82.6537 144.523 82.0807 144.445 81.5078C144.393 80.9089 144.263 80.4922 144.055 80.2578C143.846 80.0234 143.521 79.8281 143.078 79.6719ZM77.7656 79.7109C77.2969 79.5808 76.8151 79.5807 76.3203 79.7109C75.8516 79.8411 75.3176 79.9193 74.7188 79.9453C72.8438 80.0495 71.737 80.5313 71.3984 81.3906C71.1641 81.9374 71.0729 82.4193 71.125 82.8359C71.3073 84.5026 71.1771 86.0261 70.7344 87.4062C70.448 88.3177 70.4089 89.099 70.6172 89.75C70.8516 90.401 71.125 90.974 71.4375 91.4688C71.75 91.9635 71.8672 92.6797 71.7891 93.6172C71.763 93.9557 71.724 94.2813 71.6719 94.5938C71.6459 94.8802 71.6849 95.1016 71.7891 95.2578C71.9193 95.4141 71.9583 95.6224 71.9062 95.8828C71.8542 96.1432 71.8672 96.4428 71.9453 96.7812C72.0495 97.0937 72.0755 97.4714 72.0234 97.9141C71.9974 98.3567 72.0495 98.7214 72.1797 99.0078C72.3099 99.2682 72.349 99.5807 72.2969 99.9453C72.2448 100.284 72.2448 100.596 72.2969 100.883C72.3489 101.169 72.375 101.651 72.375 102.328C72.375 102.979 72.3099 103.617 72.1797 104.242C71.8412 105.57 71.9453 106.534 72.4922 107.133C72.7526 107.393 72.9609 107.667 73.1172 107.953C73.8463 109.151 74.7188 109.698 75.7344 109.594C76.0729 109.568 76.3985 109.216 76.7109 108.539C76.8151 108.253 76.9323 107.979 77.0625 107.719C77.1927 107.432 77.362 107.211 77.5703 107.055C77.7786 106.872 77.9088 106.703 77.9609 106.547C78.0391 106.365 78.0391 105.961 77.9609 105.336C77.9089 104.711 77.9089 103.825 77.9609 102.68V101.078C77.987 100.583 78.013 100.128 78.0391 99.7109C78.0911 99.2943 78.2214 98.9427 78.4297 98.6562C78.664 98.3698 79.0287 98.2266 79.5234 98.2266C80.0182 98.2005 80.3828 98.3698 80.6172 98.7344C80.7734 98.9427 80.8516 99.4375 80.8516 100.219V101.195L80.8125 104.164C80.7604 105.232 80.9167 105.987 81.2812 106.43C81.6719 106.872 82.1667 107.185 82.7656 107.367C82.8958 108.799 83.4298 109.516 84.3672 109.516C85.2005 109.516 85.7344 108.956 85.9688 107.836C86.0729 107.341 86.138 106.781 86.1641 106.156C86.1901 105.505 86.2292 104.854 86.2812 104.203C86.3333 103.422 86.5547 102.654 86.9453 101.898C87.0495 101.638 87.1406 101.378 87.2188 101.117C87.3229 100.857 87.349 100.336 87.2969 99.5547C87.2448 98.7735 87.2708 97.7968 87.375 96.625C87.4792 95.4531 87.4531 94.138 87.2969 92.6797C87.1406 91.2214 87.1537 89.9323 87.3359 88.8125C87.4661 88.0053 87.5312 87.3542 87.5312 86.8594C87.5573 86.3646 87.5833 85.8567 87.6094 85.3359C87.6354 84.7891 87.6875 84.3724 87.7656 84.0859C87.8438 83.7734 87.8177 83.2786 87.6875 82.6016C87.5834 81.8985 87.6615 81.4167 87.9219 81.1562C87.0885 79.8802 86.1901 79.5286 85.2266 80.1016C84.862 80.3359 84.5755 80.4661 84.3672 80.4922C84.1589 80.5182 83.9244 80.414 83.6641 80.1797C83.4297 79.9193 83.1172 79.763 82.7266 79.7109C82.362 79.6329 81.9583 79.8542 81.5156 80.375C81.073 80.8958 80.7995 81.4558 80.6953 82.0547C80.5912 82.6536 80.5781 83.4089 80.6562 84.3203C80.7344 85.2057 80.7865 86.4428 80.8125 88.0312C80.8385 89.0989 80.9167 89.9974 81.0469 90.7266C80.9427 90.9088 80.8255 91.0391 80.6953 91.1172C79.7839 91.69 79.0677 91.7422 78.5469 91.2734C78.3906 91.1172 78.2865 90.9218 78.2344 90.6875C78.1823 90.4271 78.2214 90.0624 78.3516 89.5938C78.5078 89.099 78.5599 88.2786 78.5078 87.1328C78.5078 86.6641 78.5208 86.1823 78.5469 85.6875C78.5729 85.1667 78.6641 84.5416 78.8203 83.8125C78.9765 83.0574 79.0286 82.5104 78.9766 82.1719C78.9505 81.9896 78.8984 81.8073 78.8203 81.625C78.7682 81.4427 78.7031 81.1041 78.625 80.6094C78.5469 80.1146 78.2604 79.8151 77.7656 79.7109ZM98.1953 89.125C98.7943 89.125 99.3021 89.6198 99.7188 90.6094C100.135 91.5729 100.344 92.7318 100.344 94.0859C100.344 95.414 100.292 96.5078 100.188 97.3672C99.875 100.492 99.3151 102.055 98.5078 102.055C97.987 102.055 97.5833 101.651 97.2969 100.844C97.1927 100.505 97.1146 100.141 97.0625 99.75C97.0104 99.3334 96.9844 98.8776 96.9844 98.3828C96.9844 97.862 96.9974 97.3281 97.0234 96.7812C97.0495 96.2084 97.0104 95.6875 96.9062 95.2188C96.8281 94.75 96.6849 94.4115 96.4766 94.2031C96.2943 93.9688 96.1641 93.6692 96.0859 93.3047C96.0339 92.9401 96.2162 92.1848 96.6328 91.0391C97.1015 89.7631 97.6224 89.1251 98.1953 89.125ZM192.248 89.4766C192.743 89.4245 193.055 89.5286 193.186 89.7891C193.342 90.0234 193.42 90.4271 193.42 91V94.75C193.446 95.1927 193.485 95.7006 193.537 96.2734C193.615 96.8464 193.511 97.8751 193.225 99.3594C193.146 99.776 193.094 100.141 193.068 100.453C193.068 100.766 193.042 100.987 192.99 101.117C192.756 101.716 192.508 102.016 192.248 102.016C191.779 102.015 191.428 101.195 191.193 99.5547C191.115 98.9037 191.063 98.2786 191.037 97.6797C191.011 97.0547 190.985 96.5859 190.959 96.2734C190.933 95.9349 190.673 95.2578 190.178 94.2422C189.839 93.5391 189.891 92.8619 190.334 92.2109L190.646 91.6641C190.777 91.4818 190.881 91.2473 190.959 90.9609C191.037 90.6485 191.154 90.3359 191.311 90.0234C191.467 89.6849 191.779 89.5026 192.248 89.4766ZM149.416 90.5088C149.229 90.5045 149.039 90.5699 148.849 90.7061C148.404 91.0084 148.17 91.6518 148.147 92.6357C148.138 93.0575 148.183 93.4575 148.284 93.835C148.37 94.1963 148.512 94.4651 148.711 94.6416C148.91 94.8181 149.393 94.915 150.158 94.9326C150.486 94.9401 150.807 94.9401 151.119 94.9316C151.432 94.9076 151.73 94.8832 152.012 94.8584C152.278 94.8177 152.575 94.8167 152.902 94.8555C153.23 94.8943 153.566 94.9022 153.91 94.8789C154.239 94.8396 154.474 94.8444 154.613 94.8945C154.923 95.0111 155.074 95.2414 155.066 95.585C155.062 95.788 155.011 95.9514 154.914 96.0742C154.85 96.1662 154.762 96.2419 154.651 96.3018C154.541 96.3617 154.329 96.3656 154.018 96.3115C153.707 96.2419 153.379 96.2179 153.034 96.2412C152.69 96.2645 152.393 96.2499 152.145 96.1973C151.88 96.1443 151.427 96.1104 150.787 96.0957L150.085 96.0801C149.882 96.0754 149.694 96.0557 149.523 96.0205C149.352 95.9853 149.133 95.9954 148.866 96.0518C148.128 96.2067 147.91 96.8425 148.213 97.959C147.863 98.2166 147.707 98.5264 147.746 98.8867C147.785 99.2313 147.911 99.5313 148.124 99.7861C148.337 100.025 148.647 100.173 149.052 100.229C149.457 100.27 149.863 100.287 150.27 100.28C150.676 100.258 151.044 100.259 151.371 100.282C151.699 100.29 152.02 100.298 152.332 100.305C152.644 100.312 152.941 100.311 153.223 100.302C153.489 100.292 153.7 100.266 153.857 100.223C154.015 100.179 154.383 100.157 154.961 100.154C155.18 100.144 155.43 100.125 155.712 100.101C155.978 100.075 156.348 99.9823 156.82 99.8213C157.293 99.6446 157.778 99.6722 158.272 99.9023C158.489 100.001 158.824 100.055 159.276 100.065C159.714 100.075 160.175 100.071 160.66 100.051C161.145 100.031 161.583 100.002 161.975 99.9639C162.367 99.9104 162.595 99.853 162.659 99.792C162.708 99.7308 162.833 99.7102 163.035 99.7305C163.238 99.7351 163.401 99.7775 163.524 99.8584C163.632 99.939 163.906 99.946 164.345 99.8779C164.533 99.851 164.69 99.8233 164.815 99.7949C164.941 99.7666 165.037 99.6743 165.104 99.5195C165.154 99.349 165.235 99.2181 165.347 99.127C165.458 99.0358 165.61 98.9146 165.801 98.7627C166.007 98.6111 166.101 98.2847 166.081 97.7842C166.086 97.5655 166.067 97.3614 166.024 97.1729C165.982 96.9846 165.907 96.8579 165.799 96.793C165.707 96.7127 164.872 96.631 163.296 96.5479C162.656 96.5175 162.023 96.4948 161.398 96.4805C160.758 96.4657 160.258 96.4624 159.898 96.4697C159.729 96.3408 159.634 96.1041 159.61 95.7598C159.598 95.6032 159.617 95.4549 159.667 95.3154C159.717 95.1761 159.844 95.0773 160.049 95.0195C160.253 94.9617 160.613 94.9628 161.127 95.0215C161.642 95.0646 162.414 95.1521 163.442 95.2852C164.455 95.4022 165.136 95.3709 165.484 95.1914C165.895 94.9819 166.071 94.4622 166.012 93.6328C165.988 93.3042 165.932 93.0059 165.845 92.7383C165.757 92.4551 165.676 92.2732 165.6 92.1934C165.508 92.0977 165.377 92.048 165.205 92.0439C165.018 92.0396 164.736 92.0409 164.36 92.0479C163.97 92.0545 163.698 91.9858 163.545 91.8418C163.086 91.425 162.644 91.2814 162.219 91.4121C162.014 91.4855 161.833 91.5212 161.677 91.5176C161.521 91.514 161.364 91.5104 161.208 91.5068C161.037 91.4873 160.881 91.4759 160.74 91.4727C160.584 91.4535 160.451 91.4655 160.341 91.5098C159.931 91.6722 159.33 91.6119 158.54 91.3281C158.168 91.2102 157.27 91.1343 155.849 91.1016C155.052 91.0832 154.303 91.0425 153.602 90.9795C153.18 90.9542 152.79 90.9223 152.432 90.8828C152.074 90.8277 151.708 90.7488 151.335 90.6465C150.962 90.5442 150.588 90.5116 150.212 90.5498C150.071 90.5622 149.954 90.5597 149.86 90.542C149.751 90.5239 149.603 90.5131 149.416 90.5088ZM150.592 80.1504C149.756 79.8029 149.192 79.8679 148.899 80.3457C148.785 80.5619 148.783 80.9681 148.895 81.5645C148.964 81.9255 148.988 82.27 148.965 82.5977C148.677 82.9035 148.651 83.3169 148.889 83.8379C149.097 84.3115 149.156 84.7978 149.066 85.2959C149.014 85.529 148.947 85.7382 148.864 85.9238C148.782 86.1095 148.676 86.3106 148.546 86.5264C148.416 86.7421 148.347 87.0374 148.338 87.4121C148.329 87.787 148.415 88.1256 148.596 88.4268C148.776 88.7278 148.99 88.9592 149.236 89.1211C149.467 89.2671 149.693 89.327 149.912 89.3008C150.132 89.2589 150.352 89.2401 150.57 89.2451L151.904 89.3232C152.107 89.3279 152.296 89.3085 152.469 89.2656C152.626 89.2225 152.86 89.2204 153.172 89.2588C153.468 89.2968 153.695 89.2784 153.853 89.2041C154.011 89.1296 154.317 89.097 154.77 89.1074L155.683 89.1523C155.902 89.1418 156.145 89.1238 156.411 89.0986C156.662 89.0733 157.011 89.1519 157.46 89.334C157.909 89.5006 158.362 89.5423 158.817 89.459C159.288 89.3916 159.542 89.2404 159.578 89.0068C159.614 88.8205 159.757 88.715 160.007 88.6895C160.132 88.6767 160.265 88.6794 160.405 88.6982C160.53 88.7011 160.679 88.6884 160.852 88.6611C161.008 88.6335 161.156 88.6453 161.296 88.6953C161.435 88.7454 161.63 88.797 161.879 88.8496C162.361 88.97 162.754 88.8456 163.06 88.4775C163.172 88.3553 163.329 88.3275 163.53 88.3945C163.623 88.4436 163.755 88.4941 163.926 88.5449C164.081 88.5953 164.346 88.6242 164.721 88.6328C165.096 88.6258 165.42 88.4693 165.692 88.1631C165.949 87.8564 166.067 87.4996 166.045 87.0928C166.039 86.6864 166.11 86.3443 166.257 86.0664C166.322 85.9585 166.386 85.8501 166.451 85.7422C166.614 85.4491 166.62 85.1841 166.47 84.9463C166.379 84.8036 166.281 84.6606 166.175 84.5176C166.069 84.3589 165.987 84.1849 165.929 83.9961C165.855 83.8069 165.845 83.5641 165.898 83.2686C165.936 82.9726 165.927 82.7299 165.869 82.541C165.795 82.3518 165.596 82.1442 165.273 81.918C165.028 81.7092 164.772 81.6018 164.507 81.5957C164.398 81.5932 164.28 81.5976 164.155 81.6104C164.015 81.6071 163.804 81.5787 163.524 81.5254C163.244 81.4721 163.017 81.4826 162.844 81.5566C162.67 81.6308 162.533 81.8235 162.432 82.1338C162.315 82.4436 162.331 82.7877 162.479 83.166C162.537 83.3392 162.596 83.528 162.653 83.7324C162.696 83.9209 162.706 84.1402 162.685 84.3896C162.663 84.6392 162.564 84.8487 162.389 85.0166C162.197 85.184 162.029 85.3677 161.884 85.5674L161.017 85.5469C160.658 85.5386 160.408 85.5257 160.268 85.5068C160.127 85.4879 159.965 85.3978 159.781 85.2373C159.444 84.9482 159.403 84.4082 159.655 83.6172C159.767 83.5104 159.855 83.3871 159.921 83.248C160.022 82.9378 159.959 82.6469 159.73 82.376C159.624 82.2642 159.5 82.176 159.361 82.1104C159.207 82.0443 159.059 82.017 158.918 82.0293C158.777 82.0261 158.521 81.9656 158.148 81.8477C157.963 81.7966 157.846 81.7708 157.799 81.7695C157.474 81.6371 157.2 81.6145 156.979 81.7031C156.743 81.7914 156.63 81.9609 156.64 82.2109C156.637 82.3047 156.581 82.4059 156.469 82.5127C156.437 82.5432 156.412 82.5893 156.395 82.6514C156.378 82.698 156.407 82.8003 156.481 82.958C156.541 83.1 156.518 83.3812 156.415 83.8008C156.365 83.9558 156.322 84.1113 156.287 84.2666C156.253 84.4063 156.25 84.5238 156.279 84.6182C156.293 84.6965 156.283 84.7821 156.25 84.875C156.217 84.968 156.152 85.053 156.057 85.1289C155.849 85.3115 155.559 85.3357 155.188 85.2021C154.831 85.0845 154.611 84.7901 154.528 84.3193C154.486 84.1308 154.485 83.834 154.525 83.4287C154.566 83.0077 154.654 82.6113 154.787 82.2393C154.821 82.1462 154.853 82.0764 154.886 82.0303C154.918 81.9842 154.934 81.9374 154.936 81.8906C154.941 81.6563 154.76 81.3551 154.394 80.9873C154.211 80.7644 154.018 80.6512 153.815 80.6465C153.737 80.6447 153.659 80.6424 153.581 80.6406C153.487 80.6385 153.371 80.6048 153.231 80.5391C153 80.4244 152.758 80.3798 152.508 80.4053C152.383 80.4024 152.273 80.3996 152.18 80.3975C152.086 80.3953 151.969 80.3694 151.83 80.3193C151.691 80.2692 151.48 80.2408 151.199 80.2344C151.105 80.2322 151.012 80.2297 150.918 80.2275C150.824 80.2254 150.716 80.2 150.592 80.1504ZM63.7031 12.0938C59.4844 11.7292 56.2031 12.3542 53.8594 13.9688C53.1823 14.4375 52.6094 15.0625 52.1406 15.8438C51.6719 16.625 51.125 17.4063 50.5 18.1875C49.875 18.9167 49.1198 19.6719 48.2344 20.4531C47.4011 21.1823 46.8802 22.0156 46.6719 22.9531C46.4635 23.8385 46.3594 24.6198 46.3594 25.2969C46.3594 25.974 46.3854 26.651 46.4375 27.3281C46.5417 27.9531 46.6458 28.8125 46.75 29.9062C46.9062 31 46.6979 32.9271 46.125 35.6875C45.7604 37.5104 45.3698 39.776 44.9531 42.4844C44.3802 46.1823 44.7188 49.75 45.9688 53.1875C47.5833 57.7708 48.599 61.3125 49.0156 63.8125C49.1198 64.2812 49.1719 64.6719 49.1719 64.9844C49.224 65.2969 49.276 65.6354 49.3281 66C49.3802 66.3125 49.9011 66.7292 50.8906 67.25C51.2552 67.4062 51.6198 67.5885 51.9844 67.7969C52.349 68.0052 52.7135 68.2917 53.0781 68.6562C53.4948 69.0208 53.9115 69.5156 54.3281 70.1406C54.7969 70.7135 55.4219 71.1302 56.2031 71.3906C56.9844 71.651 57.5833 71.651 58 71.3906C58.4687 71.1823 58.8594 71.0781 59.1719 71.0781C59.5365 71.0781 59.7969 71.2083 59.9531 71.4688C61.776 73.7604 63.7031 73.6562 65.7344 71.1562C66.099 70.6354 66.4115 70.1406 66.6719 69.6719C66.9323 69.2031 67.1146 68.8906 67.2188 68.7344C67.3229 68.526 67.4792 68.2396 67.6875 67.875C67.9479 67.4583 68.2083 67.0156 68.4688 66.5469C68.7812 66.0781 69.0677 65.6354 69.3281 65.2188C69.6406 64.8021 69.901 64.4896 70.1094 64.2812C70.3177 64.0208 70.6563 63.7083 71.125 63.3438L72.5312 62.25C73.0521 61.8333 73.5208 61.4167 73.9375 61C74.3542 60.5833 74.6406 60.1667 74.7969 59.75C75.0052 59.3333 75.1615 58.0833 75.2656 56C75.2656 55.2188 75.2917 54.4115 75.3438 53.5781C75.3958 52.7448 75.5521 51.8333 75.8125 50.8438C76.125 49.8021 76.5677 48.526 77.1406 47.0156C77.7135 45.5052 78.0521 43.0312 78.1562 39.5938C78.2083 37.6667 78.2865 35.7656 78.3906 33.8906C78.4948 32.0156 78.1302 29.6979 77.2969 26.9375C76.9844 25.7396 76.6198 24.6979 76.2031 23.8125C75.8385 22.875 75.474 22.1979 75.1094 21.7812C74.7969 21.3646 74.4323 21.0521 74.0156 20.8438C73.599 20.5833 73.2604 20.1927 73 19.6719L71.5938 16.8594C70.9167 15.4531 70.1094 14.4896 69.1719 13.9688C67.2448 12.875 65.4219 12.25 63.7031 12.0938ZM147.297 13.1094C146.255 12.5365 144.979 12.5104 143.469 13.0312C142.792 13.2917 142.141 13.5781 141.516 13.8906C140.891 14.2031 140.24 14.4635 139.562 14.6719C137.323 15.401 136.307 16.7292 136.516 18.6562C136.568 19.5938 136.385 20.2708 135.969 20.6875C135.76 20.8958 135.552 21.2083 135.344 21.625C134.458 23.2396 134.302 27.4844 134.875 34.3594C134.979 35.6615 135.214 38.5521 135.578 43.0312C135.109 46.625 134.823 49.1771 134.719 50.6875C134.667 51.8854 134.693 52.9531 134.797 53.8906C134.901 54.776 135.188 55.4271 135.656 55.8438C136.125 56.2604 136.464 56.5729 136.672 56.7812C136.88 56.9375 136.984 57.276 136.984 57.7969L137.453 60.6875L137.219 62.5625C137.219 62.9271 137.323 63.5521 137.531 64.4375C137.74 65.2708 137.896 66.2083 138 67.25C138.104 68.2396 138.312 69.2031 138.625 70.1406C138.938 71.0781 139.615 71.8073 140.656 72.3281C141.125 72.5885 141.646 72.7708 142.219 72.875C142.792 72.9792 143.417 72.901 144.094 72.6406C144.771 72.4323 145.422 72.3802 146.047 72.4844C146.724 72.6406 147.375 72.7448 148 72.7969C148.677 72.901 149.25 72.8229 149.719 72.5625C150.188 72.3542 150.813 72.0677 151.594 71.7031C152.427 71.3385 153 71.4427 153.312 72.0156C153.885 72.901 154.719 73.1875 155.812 72.875C157.01 72.5104 157.948 71.7031 158.625 70.4531C158.99 69.7761 159.354 69.2552 159.719 68.8906C160.135 68.474 160.682 67.9531 161.359 67.3281C162.089 66.651 162.609 65.8958 162.922 65.0625C163.182 64.3854 163.469 63.8125 163.781 63.3438C164.094 62.875 164.354 62.4583 164.562 62.0938C164.823 61.6771 165.005 61.2865 165.109 60.9219C165.266 60.5052 165.318 60.0365 165.266 59.5156C165.266 58.9427 165.318 58.4479 165.422 58.0312C165.526 57.5625 165.604 57.1458 165.656 56.7812C165.76 56.3646 165.839 56 165.891 55.6875C165.943 55.3229 165.865 54.8542 165.656 54.2812C165.448 53.7083 165.318 53.1354 165.266 52.5625C165.266 51.9896 164.979 51.3906 164.406 50.7656C163.885 50.0885 163.234 49.4896 162.453 48.9688C161.672 48.3958 160.995 47.6146 160.422 46.625C161.464 46.1042 162.271 45.4531 162.844 44.6719C163.104 44.3594 163.286 44.0729 163.391 43.8125C163.547 43.5521 163.755 43.3177 164.016 43.1094C164.328 42.849 164.641 42.6927 164.953 42.6406C165.318 42.5365 165.708 42.25 166.125 41.7812C166.542 41.2604 166.802 40.6354 166.906 39.9062C167.01 39.1771 167.245 38.3958 167.609 37.5625C167.974 36.7292 168.078 35.9219 167.922 35.1406C167.818 34.3073 167.87 33.526 168.078 32.7969C168.286 32.0677 168.286 31.2344 168.078 30.2969C167.974 29.8281 168 29.3594 168.156 28.8906C168.625 27.1198 168.443 25.2448 167.609 23.2656C167.87 21.4948 167.193 19.6719 165.578 17.7969C164.849 16.9635 164.016 16.2083 163.078 15.5312C162.193 14.8542 161.333 14.2292 160.5 13.6562C159.719 13.0833 158.755 12.8229 157.609 12.875C156.516 12.9271 155.37 13.0573 154.172 13.2656C152.974 13.4219 151.802 13.5781 150.656 13.7344C149.51 13.8385 148.391 13.6302 147.297 13.1094ZM40.9688 13.1094C40.2396 12.6927 39.5104 12.5885 38.7812 12.7969C38.0521 12.9531 37.1927 13.2135 36.2031 13.5781C35.2135 13.8906 34.0937 13.9948 32.8438 13.8906C32.3229 13.8385 31.776 13.7604 31.2031 13.6562C30.6823 13.5521 29.901 13.5 28.8594 13.5C27.8698 13.4479 26.75 13.5521 25.5 13.8125C24.3021 14.0208 23.1823 14.0729 22.1406 13.9688C21.1511 13.8125 20.3437 13.6562 19.7188 13.5C19.0938 13.2917 18.2864 13.1094 17.2969 12.9531C16.3073 12.7448 15.3958 12.9792 14.5625 13.6562C13.625 14.4375 13.1042 15.5313 13 16.9375C13 17.5625 13.0521 18.1615 13.1562 18.7344C13.2604 19.3073 13.4167 19.9063 13.625 20.5312C13.8333 21.1562 13.7292 22.7448 13.3125 25.2969C13.1562 26.2344 13.0521 27.224 13 28.2656C12.9479 29.2552 13.0521 30.2188 13.3125 31.1562C13.625 32.0417 14.0417 32.6667 14.5625 33.0312C16.0208 34.0729 17.8177 34.0469 19.9531 32.9531C21.776 31.9635 23.2604 31.7552 24.4062 32.3281C24.9792 32.6406 25.7865 32.5625 26.8281 32.0938C27.1406 31.9896 27.4271 31.9375 27.6875 31.9375C27.9479 31.9375 28.1562 32.1719 28.3125 32.6406C28.5208 33.1094 28 34.5938 26.75 37.0938C26.2813 38.0312 25.8125 38.9167 25.3438 39.75C24.875 40.5312 24.6146 41.0781 24.5625 41.3906C24.5104 41.651 24.5365 41.8854 24.6406 42.0938C24.7448 42.3021 24.8229 42.5104 24.875 42.7188C24.9792 42.875 25.0573 43.0573 25.1094 43.2656C25.1615 43.474 25.0833 43.7604 24.875 44.125C24.7187 44.4375 24.4062 44.724 23.9375 44.9844C23.4688 45.1927 23.1042 45.4792 22.8438 45.8438C22.6354 46.2083 22.5052 46.5469 22.4531 46.8594C22.401 47.1719 22.2969 47.5885 22.1406 48.1094C22.0365 48.5781 21.8281 49.2031 21.5156 49.9844C21.2552 50.7135 20.7083 51.8594 19.875 53.4219C19.0417 54.9844 18.4167 56.2865 18 57.3281C17.8438 57.7969 17.7135 58.2135 17.6094 58.5781L17.2969 59.5156C17.2448 59.8281 17.1406 60.1406 16.9844 60.4531C16.8281 60.7656 16.6198 61.2083 16.3594 61.7812C16.151 62.3542 16.2292 63.1094 16.5938 64.0469C16.75 64.6198 16.8542 65.6354 16.9062 67.0938C17.0104 68.5 17.2188 69.4375 17.5312 69.9062C18.1042 70.7396 18.9375 71.1042 20.0312 71C20.5 71 20.9688 70.974 21.4375 70.9219C21.9583 70.8698 22.5052 70.974 23.0781 71.2344C23.651 71.4948 24.0677 71.625 24.3281 71.625C24.6406 71.625 24.9271 71.5729 25.1875 71.4688C26.5937 70.6354 28.599 70.6094 31.2031 71.3906C31.724 71.5469 32.2448 71.6771 32.7656 71.7812C33.2865 71.9375 33.8333 71.9375 34.4062 71.7812C35.0312 71.625 35.6302 71.5208 36.2031 71.4688C36.8281 71.4688 37.4271 71.4167 38 71.3125C38.5729 71.2604 39.0938 71.1562 39.5625 71C40.0833 70.7917 40.526 70.4271 40.8906 69.9062C41.2552 69.3854 41.3333 68.5521 41.125 67.4062C40.9167 66.2604 40.7604 65.2188 40.6562 64.2812C40.6042 63.3438 40.6042 62.6406 40.6562 62.1719C40.7604 61.651 40.8385 61.2083 40.8906 60.8438C40.9427 60.4271 40.9167 60.0625 40.8125 59.75C40.7604 59.4375 40.4479 59.099 39.875 58.7344C39.3021 58.3177 38.4948 58.1875 37.4531 58.3438C36.4636 58.5 35.5781 58.8125 34.7969 59.2812C34.0677 59.6979 33.4687 59.9062 33 59.9062C32.5312 59.9062 31.776 59.8542 30.7344 59.75C29.6927 59.6458 28.4948 59.8021 27.1406 60.2188C27.349 59.9583 27.5573 59.6719 27.7656 59.3594C27.974 58.9948 28.2344 58.6562 28.5469 58.3438C29.1198 57.5625 29.7708 56.625 30.5 55.5312C31.2292 54.4375 31.9844 52.7187 32.7656 50.375C33.026 49.5938 33.2344 49.099 33.3906 48.8906C33.599 48.6823 33.8333 48.5781 34.0938 48.5781C34.3542 48.5781 34.6146 48.3698 34.875 47.9531C35.0833 47.5885 35.1615 47.3802 35.1094 47.3281C35.0573 47.224 35.0052 47.0677 34.9531 46.8594C34.9011 46.651 35.2396 45.9479 35.9688 44.75C36.4375 43.9688 36.8281 43.2135 37.1406 42.4844C37.4531 41.7552 37.7396 41.0781 38 40.4531C38.3125 39.776 38.625 39.125 38.9375 38.5C39.3021 37.8229 39.901 37.0156 40.7344 36.0781C41.6198 35.0885 42.0885 34.0469 42.1406 32.9531C42.2448 31.8073 42.0885 30.6354 41.6719 29.4375C40.7344 27.1979 40.9427 23.7864 42.2969 19.2031C43.1823 16.1823 42.7396 14.151 40.9688 13.1094ZM117.609 12.875C115.891 12.875 114.589 13.6042 113.703 15.0625C113.339 15.6354 113.052 16.2344 112.844 16.8594C112.688 17.4844 112.531 18.1615 112.375 18.8906C112.219 19.6198 111.854 20.1927 111.281 20.6094C110.708 20.974 110.161 21.4167 109.641 21.9375C109.12 22.4583 108.781 23.3958 108.625 24.75C108.521 25.2708 108.443 25.7656 108.391 26.2344C108.339 26.7031 108.208 27.1458 108 27.5625C107.844 27.9271 107.766 28.3438 107.766 28.8125C107.766 29.0729 107.688 29.8281 107.531 31.0781C107.427 32.276 107.193 33.0833 106.828 33.5C106.516 33.8646 106.177 34.0469 105.812 34.0469C105.5 34.0469 105.214 33.8646 104.953 33.5C104.693 33.1354 104.615 32.6146 104.719 31.9375C104.823 31.2604 104.875 30.8438 104.875 30.6875C104.875 30.5312 104.823 30.401 104.719 30.2969C104.667 30.1406 104.589 29.9323 104.484 29.6719C104.432 29.4115 104.406 28.5781 104.406 27.1719C104.406 25.7135 103.885 22.7969 102.844 18.4219C102.479 16.8073 100.839 15.6354 97.9219 14.9062C97.6094 14.6458 97.2448 14.4375 96.8281 14.2812C95.3177 13.6042 93.9635 13.6302 92.7656 14.3594C92.1927 14.724 90.5 14.8542 87.6875 14.75C86.2292 14.6979 85.1615 15.0365 84.4844 15.7656C83.8594 16.4427 83.3385 17.3021 82.9219 18.3438C82.6094 19.4375 82.5312 20.7917 82.6875 22.4062C82.7917 23.1875 82.8958 23.9427 83 24.6719C83.1042 25.401 83.1823 26.1823 83.2344 27.0156C83.3385 27.849 83.3906 28.8385 83.3906 29.9844C83.3906 31.1302 83.2083 32.25 82.8438 33.3438C82.5312 34.3854 82.401 35.2969 82.4531 36.0781C82.5052 36.8073 82.5052 37.7708 82.4531 38.9688C82.401 40.1667 82.5052 41.1562 82.7656 41.9375C83.0781 42.6667 83.651 43.3698 84.4844 44.0469C85.2135 44.5156 85.5 45.4271 85.3438 46.7812C85.2396 47.3542 85.1094 47.9271 84.9531 48.5C84.849 49.0208 84.849 49.6198 84.9531 50.2969C85.0573 50.974 85.0312 51.6771 84.875 52.4062C84.7188 53.1354 84.7188 53.7344 84.875 54.2031C85.0833 54.6719 85.1615 55.1146 85.1094 55.5312C85.0573 55.9479 85.0052 56.4167 84.9531 56.9375C84.9531 57.4062 84.9792 57.9271 85.0312 58.5C85.0833 59.0729 85.2396 59.6458 85.5 60.2188C85.7604 60.7396 85.9167 61.7812 85.9688 63.3438C86.0208 63.9167 86.0469 64.4896 86.0469 65.0625L86.2031 66.7812C86.3073 67.3021 86.3073 67.901 86.2031 68.5781C86.099 69.2031 86.2813 69.776 86.75 70.2969C87.2188 70.8177 87.9479 71.1562 88.9375 71.3125C89.9271 71.5208 91.1771 71.2083 92.6875 70.375C94.5625 69.3333 95.5521 68.1875 95.6562 66.9375C95.7083 66.625 95.7083 66.3646 95.6562 66.1562C95.6042 65.9479 95.6823 65.6875 95.8906 65.375C96.099 65.0625 96.2812 64.6458 96.4375 64.125C96.5938 63.6042 96.3854 63.0573 95.8125 62.4844C95.2396 61.8594 94.9271 61.0781 94.875 60.1406C94.875 59.2031 95.2136 58.526 95.8906 58.1094C96.5677 57.6927 96.8542 56.8333 96.75 55.5312C96.6979 55.0104 96.6198 54.4375 96.5156 53.8125C96.4635 53.1875 96.5156 52.4844 96.6719 51.7031C96.8281 50.8698 96.9062 50.1146 96.9062 49.4375C96.9062 48.7604 96.776 47.7708 96.5156 46.4688C96.2552 45.1667 96.2812 44.0208 96.5938 43.0312C96.9583 41.9896 97.1146 41.2865 97.0625 40.9219C97.0625 40.5573 97.0104 40.1667 96.9062 39.75L96.75 38.5C96.6979 38.0833 96.6979 37.7448 96.75 37.4844C96.8542 37.1719 97.0625 37.0417 97.375 37.0938C97.7396 37.1458 98.2083 38.5 98.7812 41.1562C98.9896 42.3021 99.1979 43.5781 99.4062 44.9844C99.6667 46.3385 99.9531 48.0573 100.266 50.1406C100.63 52.1718 100.969 53.2916 101.281 53.5C101.958 53.9167 102.323 54.4896 102.375 55.2188C102.427 55.8958 102.297 56.7812 101.984 57.875C101.203 60.6354 101.073 62.4583 101.594 63.3438C101.958 63.9688 102.219 64.6198 102.375 65.2969C102.531 65.974 102.74 66.651 103 67.3281C103.26 68.0052 103.599 68.6042 104.016 69.125C104.484 69.5937 105.135 69.8542 105.969 69.9062C106.802 69.9062 107.479 69.2812 108 68.0312C108.208 67.5104 108.365 67.0156 108.469 66.5469C108.573 66.0261 108.677 65.6875 108.781 65.5312C109.562 64.3854 109.953 62.875 109.953 61C109.953 59.6458 110.083 58.5 110.344 57.5625C110.396 57.25 110.448 56.9635 110.5 56.7031C110.604 56.4427 110.656 55.6354 110.656 54.2812C110.656 52.875 110.917 51.599 111.438 50.4531C111.698 49.8802 111.984 49.3854 112.297 48.9688C112.609 48.5 112.974 47.9271 113.391 47.25C113.859 46.5729 114.198 44.3854 114.406 40.6875C114.615 37.3542 115.031 35.6875 115.656 35.6875C116.333 35.6875 116.672 36.3646 116.672 37.7188C116.672 39.0208 116.516 40.4531 116.203 42.0156C116.047 42.7969 116.125 43.7344 116.438 44.8281C116.646 45.349 116.62 45.974 116.359 46.7031C115.63 48.4219 115.682 50.9479 116.516 54.2812C116.776 55.375 116.802 56.3125 116.594 57.0938C116.438 57.875 116.672 59.0208 117.297 60.5312C117.557 61.1562 117.87 61.7292 118.234 62.25C118.599 62.7187 119.068 63.0312 119.641 63.1875C120.214 63.2917 120.682 63.7604 121.047 64.5938C121.203 65.0104 121.281 65.4271 121.281 65.8438C121.281 66.2083 121.151 66.5729 120.891 66.9375C120.682 67.25 120.578 67.7969 120.578 68.5781C120.63 69.3073 121.021 69.776 121.75 69.9844C122.219 70.1406 122.531 70.4792 122.688 71C122.792 71.2083 122.896 71.3906 123 71.5469C123.156 71.7031 123.495 71.8073 124.016 71.8594C124.589 71.9635 125.057 71.7292 125.422 71.1562C125.786 70.6354 126.073 69.9844 126.281 69.2031C126.49 68.4219 126.646 67.6406 126.75 66.8594C126.906 66.026 127.115 65.4271 127.375 65.0625C127.688 64.6458 127.844 63.7344 127.844 62.3281C127.844 60.9219 127.792 59.3854 127.688 57.7188C127.583 56.0521 127.453 54.4115 127.297 52.7969C127.193 51.1823 127.141 49.9583 127.141 49.125C127.141 47.8229 127.505 45.5833 128.234 42.4062C128.547 41.0521 128.859 39.6458 129.172 38.1875C130.474 32.1979 130.5 27.6927 129.25 24.6719C130.188 22.849 130.422 21.3125 129.953 20.0625C130.214 19.5938 130.396 18.8385 130.5 17.7969C130.552 17.224 130.318 16.5208 129.797 15.6875C129.328 14.8542 128.521 14.3333 127.375 14.125C126.281 13.9167 125.344 13.8125 124.562 13.8125C123.833 13.8125 123.052 13.9427 122.219 14.2031C120.813 13.3177 119.276 12.875 117.609 12.875ZM186.281 11.9375C185.708 11.9375 184.641 12.3802 183.078 13.2656C182.245 13.7344 181.438 14.0469 180.656 14.2031C179.875 14.3594 179.094 14.5417 178.312 14.75C176.542 15.1146 175.031 16.0521 173.781 17.5625C172.479 19.125 171.776 20.8438 171.672 22.7188C171.672 23.5521 171.698 24.3854 171.75 25.2188C171.854 26 171.906 26.8073 171.906 27.6406C171.906 28.474 171.802 29.2552 171.594 29.9844C171.385 30.6615 171.125 31.5208 170.812 32.5625C170.5 33.6042 170.63 34.5156 171.203 35.2969C171.568 35.8177 171.854 36.1302 172.062 36.2344C172.271 36.3385 172.453 36.4948 172.609 36.7031C172.818 36.9115 173.026 37.3281 173.234 37.9531C173.443 38.526 173.781 39.8281 174.25 41.8594C174.719 43.8906 175.839 45.6875 177.609 47.25C178.391 47.9271 179.224 48.5 180.109 48.9688C180.995 49.4375 181.906 49.9323 182.844 50.4531C185.188 51.7552 186.359 53.6302 186.359 56.0781V59.4375C186.255 61.5208 185.656 62.6146 184.562 62.7188C183.573 62.8229 182.896 62.1979 182.531 60.8438C182.375 60.3229 182.271 59.75 182.219 59.125V56.9375C182.219 56.1562 181.776 55.6354 180.891 55.375C180.526 55.2708 180.161 55.2448 179.797 55.2969C179.484 55.349 179.224 55.5052 179.016 55.7656C178.859 56.026 178.625 56.3125 178.312 56.625C178 56.9375 177.375 57.1198 176.438 57.1719C175.5 57.224 174.406 57.7448 173.156 58.7344C172.583 59.2552 172.271 59.8802 172.219 60.6094V62.9531C172.271 63.7865 172.245 64.4375 172.141 64.9062C172.089 65.3229 172.193 65.7917 172.453 66.3125C172.766 66.7812 173.339 67.0156 174.172 67.0156H175.109C175.422 67.0156 175.708 67.0677 175.969 67.1719C176.229 67.224 176.568 67.6406 176.984 68.4219C177.453 69.151 178.026 69.8281 178.703 70.4531C179.432 71.0781 180.214 71.4688 181.047 71.625C181.88 71.7812 183.052 71.8594 184.562 71.8594C186.125 71.9115 187.583 71.7292 188.938 71.3125C190.135 70.9479 191.047 70.3229 191.672 69.4375C191.932 69.0729 192.115 68.7344 192.219 68.4219C192.375 68.1094 192.557 67.849 192.766 67.6406C192.974 67.4323 193.443 67.1198 194.172 66.7031C194.901 66.2865 195.604 65.5052 196.281 64.3594C197.01 63.2135 197.375 61.5729 197.375 59.4375C197.375 58.8646 197.401 58.4479 197.453 58.1875C197.505 57.875 197.557 57.5365 197.609 57.1719C197.661 56.7552 197.714 56.2865 197.766 55.7656C197.87 55.2448 197.974 54.5417 198.078 53.6562C198.443 51.2604 198.286 49.151 197.609 47.3281C197.453 46.9115 197.245 46.651 196.984 46.5469C196.776 46.4427 196.542 46.3385 196.281 46.2344C196.021 46.0781 195.708 45.9219 195.344 45.7656C195.031 45.6094 194.641 45.2448 194.172 44.6719C193.703 44.099 193.156 43.6823 192.531 43.4219L190.812 42.6406C190.24 42.3802 189.797 42.25 189.484 42.25C189.172 42.25 188.859 42.276 188.547 42.3281C188.286 42.3281 188 42.3021 187.688 42.25C187.375 42.1979 186.984 41.9375 186.516 41.4688C186.099 41 185.786 40.0885 185.578 38.7344C185.526 38.1615 185.5 37.6146 185.5 37.0938C185.5 36.5729 185.448 36.0781 185.344 35.6094C185.292 35.1406 185.37 34.3854 185.578 33.3438C185.839 32.25 186.359 31.3385 187.141 30.6094C187.714 30.1406 188.391 29.9323 189.172 29.9844C189.953 30.0365 190.448 30.4271 190.656 31.1562C190.76 31.4688 190.734 31.8594 190.578 32.3281C190.422 32.7448 190.266 33.2135 190.109 33.7344C189.589 35.3489 189.667 36.6771 190.344 37.7188C191.021 38.7083 191.88 39.3594 192.922 39.6719C193.964 39.9844 194.667 39.9583 195.031 39.5938C195.188 39.3854 195.318 39.2031 195.422 39.0469C195.578 38.8385 195.839 38.7344 196.203 38.7344C196.568 38.7344 197.036 38.7604 197.609 38.8125C198.182 38.8646 198.781 38.8385 199.406 38.7344C200.031 38.6302 200.604 38.3698 201.125 37.9531C201.646 37.5365 202.01 36.8333 202.219 35.8438C202.479 34.8021 202.557 33.9948 202.453 33.4219C202.349 32.849 202.115 32.0156 201.75 30.9219C201.385 29.8281 201.229 28.1615 201.281 25.9219C201.333 24.3594 201.177 22.7708 200.812 21.1562C200.5 19.5417 199.641 17.9792 198.234 16.4688C196.047 14.125 193.964 12.8229 191.984 12.5625C191.359 12.4583 190.786 12.4062 190.266 12.4062C189.797 12.4062 189.328 12.3802 188.859 12.3281C188.443 12.276 188.052 12.1979 187.688 12.0938C187.375 11.9896 186.906 11.9375 186.281 11.9375ZM148.781 52.4844C148.885 50.9219 149.536 50.3229 150.734 50.6875C151.724 51 152.427 51.8333 152.844 53.1875C153.104 53.9167 153.182 54.9062 153.078 56.1562C153.026 57.3542 152.74 58.3698 152.219 59.2031C152.01 59.5677 151.75 59.9063 151.438 60.2188C151.177 60.5312 150.891 61 150.578 61.625C150.318 61.4167 150.031 61.2083 149.719 61C149.406 60.7917 149.094 60.5573 148.781 60.2969C148.625 59.6198 148.469 58.9948 148.312 58.4219C148.208 57.849 148.234 56.9896 148.391 55.8438C148.547 54.6979 148.677 53.5781 148.781 52.4844ZM61.5938 31.7812C62.5833 31.6771 63.2083 31.8854 63.4688 32.4062C63.7812 32.875 63.9375 33.6823 63.9375 34.8281V42.3281C63.9896 43.2135 64.0677 44.2292 64.1719 45.375C64.3281 46.5208 64.1198 48.5781 63.5469 51.5469C63.3906 52.3802 63.2865 53.1094 63.2344 53.7344C63.2344 54.3594 63.1823 54.8021 63.0781 55.0625C62.6094 56.2604 62.1146 56.8594 61.5938 56.8594C60.6563 56.8593 59.9531 55.2187 59.4844 51.9375C59.3281 50.6354 59.224 49.3854 59.1719 48.1875C59.1198 46.9375 59.0677 46 59.0156 45.375C58.9635 44.6979 58.4427 43.3438 57.4531 41.3125C56.776 39.9063 56.8802 38.5521 57.7656 37.25L58.3906 36.1562C58.651 35.7917 58.8594 35.3229 59.0156 34.75C59.1719 34.125 59.4063 33.5 59.7188 32.875C60.0312 32.1979 60.6563 31.8333 61.5938 31.7812ZM148.312 29.75C148.729 29.0729 149.198 28.8646 149.719 29.125C150.292 29.3854 150.786 29.724 151.203 30.1406C151.672 30.5052 152.193 30.7917 152.766 31C153.339 31.1562 153.729 31.7031 153.938 32.6406C154.198 33.526 153.99 34.5156 153.312 35.6094C152.688 36.651 152.349 37.5365 152.297 38.2656C152.297 38.9427 152.271 39.6198 152.219 40.2969C152.115 40.974 151.854 41.7031 151.438 42.4844C151.021 43.2135 150.552 43.5781 150.031 43.5781C149.042 43.5781 148.547 42.1979 148.547 39.4375C148.547 38.0833 148.599 36.7031 148.703 35.2969C148.859 33.8906 148.729 32.7708 148.312 31.9375C147.948 31.1042 147.948 30.375 148.312 29.75Z" fill="white"/>
</svg>
