<svg width="2562" height="1482" viewBox="0 0 2562 1482" fill="none" xmlns="http://www.w3.org/2000/svg">
<path d="M315.918 954.906C308.757 956.208 301.27 956.859 293.457 956.859C286.296 957.51 278.809 958.812 270.996 960.766C263.835 962.719 256.999 962.719 250.488 960.766C243.978 959.464 237.467 957.836 230.957 955.883C198.405 946.117 173.34 946.443 155.762 956.859C152.507 958.161 148.926 958.812 145.02 958.812C141.764 958.812 136.556 957.185 129.395 953.93C122.233 950.674 115.397 949.372 108.887 950.023C103.027 950.674 97.168 951 91.3086 951C77.6367 952.302 67.2201 947.745 60.0586 937.328C56.1523 931.469 53.5482 919.75 52.2461 902.172C51.5951 883.943 50.293 871.247 48.3398 864.086C43.7826 852.367 42.806 842.927 45.4102 835.766C48.6654 828.604 51.2695 823.07 53.2227 819.164C55.1758 815.258 56.4779 811.352 57.1289 807.445C58.431 803.539 59.7331 799.633 61.0352 795.727C62.3372 791.169 63.9648 785.961 65.918 780.102C71.1263 767.081 78.9388 750.805 89.3555 731.273C99.7721 711.742 106.608 697.419 109.863 688.305C113.77 678.539 116.374 670.727 117.676 664.867C119.629 658.357 120.931 653.148 121.582 649.242C122.233 645.336 123.861 641.104 126.465 636.547C129.72 631.99 134.277 628.409 140.137 625.805C145.996 622.549 149.902 618.969 151.855 615.062C154.46 610.505 155.436 606.924 154.785 604.32C154.134 601.716 153.158 599.438 151.855 597.484C151.204 594.88 150.228 592.276 148.926 589.672C147.624 587.068 147.298 584.138 147.949 580.883C148.6 576.977 151.855 570.141 157.715 560.375C163.574 549.958 169.434 538.891 175.293 527.172C190.918 495.922 197.428 477.367 194.824 471.508C192.871 465.648 190.267 462.719 187.012 462.719C183.757 462.719 180.176 463.37 176.27 464.672C163.249 470.531 153.158 471.508 145.996 467.602C131.673 460.44 113.118 463.044 90.332 475.414C63.6393 489.086 41.1784 489.411 22.9492 476.391C16.4388 471.833 11.2305 464.021 7.32422 452.953C4.06901 441.234 2.76693 429.19 3.41797 416.82C4.06901 403.799 5.37109 391.43 7.32422 379.711C12.5326 347.81 13.8346 327.953 11.2305 320.141C8.6263 312.328 6.67318 304.841 5.37109 297.68C4.06901 290.518 3.41797 283.031 3.41797 275.219C4.72005 257.641 11.2305 243.969 22.9492 234.203C33.3659 225.74 44.7591 222.81 57.1289 225.414C69.4987 227.367 79.5898 229.646 87.4023 232.25C95.2148 234.203 105.306 236.156 117.676 238.109C130.697 239.411 144.694 238.76 159.668 236.156C175.293 232.901 189.29 231.599 201.66 232.25C214.681 232.25 224.447 232.901 230.957 234.203C238.118 235.505 244.954 236.482 251.465 237.133C267.09 238.435 281.087 237.133 293.457 233.227C305.827 228.669 316.569 225.414 325.684 223.461C334.798 220.857 343.913 222.159 353.027 227.367C375.163 240.388 380.697 265.779 369.629 303.539C352.702 360.831 350.098 403.474 361.816 431.469C367.025 446.443 368.978 461.091 367.676 475.414C367.025 489.086 361.165 502.107 350.098 514.477C339.681 526.195 332.194 536.286 327.637 544.75C323.73 552.562 319.824 560.701 315.918 569.164C312.663 576.977 309.082 585.44 305.176 594.555C301.27 603.669 296.387 613.109 290.527 622.875C281.413 637.849 277.181 646.638 277.832 649.242C278.483 651.846 279.134 653.799 279.785 655.102C280.436 655.753 279.46 658.357 276.855 662.914C273.6 668.122 270.345 670.727 267.09 670.727C263.835 670.727 260.905 672.029 258.301 674.633C256.348 677.237 253.743 683.422 250.488 693.188C240.723 722.484 231.283 743.969 222.168 757.641C213.053 771.312 204.915 783.031 197.754 792.797C193.848 796.703 190.592 800.935 187.988 805.492C185.384 809.398 182.78 812.979 180.176 816.234C197.103 811.026 212.077 809.073 225.098 810.375C238.118 811.677 247.559 812.328 253.418 812.328C259.277 812.328 266.764 809.724 275.879 804.516C285.645 798.656 296.712 794.75 309.082 792.797C322.103 790.844 332.194 792.471 339.355 797.68C346.517 802.237 350.423 806.469 351.074 810.375C352.376 814.281 352.702 818.839 352.051 824.047C351.4 828.604 350.423 834.138 349.121 840.648C348.47 846.508 348.47 855.297 349.121 867.016C350.423 878.734 352.376 891.755 354.98 906.078C357.585 920.401 356.608 930.818 352.051 937.328C347.493 943.839 341.96 948.396 335.449 951C329.59 952.953 323.079 954.255 315.918 954.906ZM421.387 405.102C420.736 396.638 420.41 388.174 420.41 379.711C420.41 371.247 421.712 361.482 424.316 350.414C426.921 338.695 433.431 328.279 443.848 319.164C454.915 309.398 464.355 299.958 472.168 290.844C479.98 281.078 486.816 271.312 492.676 261.547C498.535 251.781 505.697 243.969 514.16 238.109C543.457 217.927 584.473 210.115 637.207 214.672C658.691 216.625 681.478 224.438 705.566 238.109C717.285 244.62 727.376 256.664 735.84 274.242C744.303 291.169 750.163 302.888 753.418 309.398C756.673 315.909 760.905 320.792 766.113 324.047C771.322 326.651 775.879 330.557 779.785 335.766C784.342 340.974 788.9 349.438 793.457 361.156C798.665 372.224 803.223 385.245 807.129 400.219C817.546 434.724 822.103 463.695 820.801 487.133C819.499 510.57 818.522 534.333 817.871 558.422C816.569 601.391 812.337 632.315 805.176 651.195C798.014 670.076 792.48 686.026 788.574 699.047C785.319 711.417 783.366 722.81 782.715 733.227C782.064 743.643 781.738 753.734 781.738 763.5C780.436 789.542 778.483 805.167 775.879 810.375C773.926 815.583 770.345 820.792 765.137 826C759.928 831.208 754.069 836.417 747.559 841.625C741.699 846.182 735.84 850.74 729.98 855.297C724.121 859.854 719.889 863.76 717.285 867.016C714.681 869.62 711.426 873.526 707.52 878.734C704.264 883.943 700.684 889.477 696.777 895.336C693.522 901.195 690.267 906.729 687.012 911.938C684.408 916.495 682.454 920.076 681.152 922.68C679.85 924.633 677.572 928.539 674.316 934.398C671.061 940.258 667.155 946.443 662.598 952.953C637.207 984.203 613.118 985.505 590.332 956.859C588.379 953.604 585.124 951.977 580.566 951.977C576.66 951.977 571.777 953.279 565.918 955.883C560.71 959.138 553.223 959.138 543.457 955.883C533.691 952.628 525.879 947.419 520.02 940.258C514.811 932.445 509.603 926.26 504.395 921.703C499.837 917.146 495.28 913.565 490.723 910.961C486.165 908.357 481.608 906.078 477.051 904.125C464.681 897.615 458.171 892.406 457.52 888.5C456.868 883.943 456.217 879.711 455.566 875.805C455.566 871.898 454.915 867.016 453.613 861.156C448.405 829.906 435.71 785.635 415.527 728.344C399.902 685.375 395.671 640.779 402.832 594.555C408.04 560.701 412.923 532.38 417.48 509.594C424.642 475.089 427.246 451 425.293 437.328C423.991 423.656 422.689 412.914 421.387 405.102ZM610.84 460.766C599.121 461.417 591.309 465.974 587.402 474.438C583.496 482.25 580.566 490.062 578.613 497.875C576.66 505.036 574.056 510.896 570.801 515.453C568.197 520.01 565.592 524.568 562.988 529.125C551.921 545.401 550.618 562.328 559.082 579.906C571.452 605.297 577.962 622.224 578.613 630.688C579.264 638.5 579.915 650.219 580.566 665.844C581.217 680.818 582.52 696.443 584.473 712.719C590.332 753.734 599.121 774.242 610.84 774.242C617.35 774.242 623.535 766.755 629.395 751.781C630.697 748.526 631.348 742.992 631.348 735.18C631.999 727.367 633.301 718.253 635.254 707.836C642.415 670.727 645.02 645.01 643.066 630.688C641.764 616.365 640.788 603.669 640.137 592.602C640.137 581.534 640.137 570.141 640.137 558.422V498.852C640.137 484.529 638.184 474.438 634.277 468.578C631.022 462.068 623.21 459.464 610.84 460.766ZM1311.04 224.438C1331.87 224.438 1351.07 229.971 1368.65 241.039C1379.07 237.784 1388.83 236.156 1397.95 236.156C1407.71 236.156 1419.43 237.458 1433.11 240.062C1447.43 242.667 1457.52 249.177 1463.38 259.594C1469.89 270.01 1472.82 278.799 1472.17 285.961C1470.87 298.982 1468.59 308.422 1465.33 314.281C1471.19 329.906 1468.26 349.112 1456.54 371.898C1472.17 409.659 1471.84 465.974 1455.57 540.844C1451.66 559.073 1447.75 576.651 1443.85 593.578C1434.73 633.292 1430.18 661.286 1430.18 677.562C1430.18 687.979 1430.83 703.279 1432.13 723.461C1434.08 743.643 1435.71 764.151 1437.01 784.984C1438.31 805.818 1438.96 825.023 1438.96 842.602C1438.96 860.18 1437.01 871.573 1433.11 876.781C1429.85 881.339 1427.25 888.826 1425.29 899.242C1423.99 909.008 1422.04 918.773 1419.43 928.539C1416.83 938.305 1413.25 946.443 1408.69 952.953C1404.13 960.115 1398.27 963.044 1391.11 961.742C1384.6 961.091 1380.37 959.789 1378.42 957.836C1377.12 955.883 1375.81 953.604 1374.51 951C1372.56 944.49 1368.65 940.258 1362.79 938.305C1353.68 935.701 1348.8 929.841 1348.14 920.727C1348.14 910.961 1349.45 904.125 1352.05 900.219C1355.31 895.661 1356.93 891.104 1356.93 886.547C1356.93 881.339 1355.96 876.13 1354 870.922C1349.45 860.505 1343.59 854.646 1336.43 853.344C1329.26 851.391 1323.4 847.484 1318.85 841.625C1314.29 835.115 1310.38 827.953 1307.13 820.141C1299.32 801.26 1296.39 786.938 1298.34 777.172C1300.94 767.406 1300.62 755.688 1297.36 742.016C1286.95 700.349 1286.3 668.773 1295.41 647.289C1298.67 638.174 1298.99 630.362 1296.39 623.852C1292.48 610.18 1291.5 598.461 1293.46 588.695C1297.36 569.164 1299.32 551.26 1299.32 534.984C1299.32 518.057 1295.08 509.594 1286.62 509.594C1278.81 509.594 1273.6 530.427 1271 572.094C1268.39 618.318 1264.16 645.661 1258.3 654.125C1253.09 662.589 1248.54 669.75 1244.63 675.609C1240.72 680.818 1237.14 687.003 1233.89 694.164C1227.38 708.487 1224.12 724.438 1224.12 742.016C1224.12 758.943 1223.47 769.034 1222.17 772.289C1221.52 775.544 1220.87 779.125 1220.21 783.031C1216.96 794.75 1215.33 809.073 1215.33 826C1215.33 849.438 1210.45 868.318 1200.68 882.641C1199.38 884.594 1198.08 888.826 1196.78 895.336C1195.48 901.195 1193.52 907.38 1190.92 913.891C1184.41 929.516 1175.94 937.328 1165.53 937.328C1155.11 936.677 1146.97 933.422 1141.11 927.562C1135.9 921.052 1131.67 913.565 1128.42 905.102C1125.16 896.638 1122.56 888.174 1120.61 879.711C1118.65 871.247 1115.4 863.109 1110.84 855.297C1104.33 844.229 1105.96 821.443 1115.72 786.938C1119.63 773.266 1121.26 762.198 1120.61 753.734C1119.95 744.62 1115.4 737.458 1106.93 732.25C1103.03 729.646 1098.8 715.648 1094.24 690.258C1090.33 664.216 1086.75 642.732 1083.5 625.805C1080.89 608.227 1078.29 592.276 1075.68 577.953C1068.52 544.75 1062.66 527.823 1058.11 527.172C1054.2 526.521 1051.6 528.148 1050.29 532.055C1049.64 535.31 1049.64 539.542 1050.29 544.75C1050.94 549.958 1051.6 555.167 1052.25 560.375C1053.55 565.583 1054.2 570.466 1054.2 575.023C1054.85 579.581 1052.9 588.37 1048.34 601.391C1044.43 613.76 1044.11 628.083 1047.36 644.359C1050.62 660.635 1052.25 673.005 1052.25 681.469C1052.25 689.932 1051.27 699.372 1049.32 709.789C1047.36 719.555 1046.71 728.344 1047.36 736.156C1048.67 743.969 1049.64 751.13 1050.29 757.641C1051.6 773.917 1048.01 784.659 1039.55 789.867C1031.09 795.076 1026.86 803.539 1026.86 815.258C1027.51 826.977 1031.41 836.742 1038.57 844.555C1045.74 851.716 1048.34 858.552 1046.39 865.062C1044.43 871.573 1042.15 876.781 1039.55 880.688C1036.95 884.594 1035.97 887.849 1036.62 890.453C1037.27 893.057 1037.27 896.312 1036.62 900.219C1035.32 915.844 1022.95 930.167 999.512 943.188C980.632 953.604 965.007 957.51 952.637 954.906C940.267 952.953 931.152 948.721 925.293 942.211C919.434 935.701 917.155 928.539 918.457 920.727C919.759 912.263 919.759 904.776 918.457 898.266C917.806 891.104 917.155 883.943 916.504 876.781C916.504 869.62 916.178 862.458 915.527 855.297C914.876 835.766 912.923 822.745 909.668 816.234C906.413 809.073 904.46 801.911 903.809 794.75C903.158 787.589 902.832 781.078 902.832 775.219C903.483 768.708 904.134 762.849 904.785 757.641C905.436 752.432 904.46 746.898 901.855 741.039C899.902 735.18 899.902 727.693 901.855 718.578C903.809 709.464 904.134 700.674 902.832 692.211C901.53 683.747 901.53 676.26 902.832 669.75C904.785 662.589 906.413 655.427 907.715 648.266C909.668 631.339 906.087 619.945 896.973 614.086C886.556 605.622 879.395 596.833 875.488 587.719C872.233 577.953 870.931 565.583 871.582 550.609C872.233 535.635 872.233 523.591 871.582 514.477C870.931 504.711 872.559 493.318 876.465 480.297C881.022 466.625 883.301 452.628 883.301 438.305C883.301 423.982 882.65 411.612 881.348 401.195C880.697 390.779 879.72 381.013 878.418 371.898C877.116 362.784 875.814 353.344 874.512 343.578C872.559 323.396 873.535 306.469 877.441 292.797C882.65 279.776 889.16 269.034 896.973 260.57C905.436 251.456 918.783 247.224 937.012 247.875C972.168 249.177 993.327 247.549 1000.49 242.992C1015.46 233.878 1032.39 233.552 1051.27 242.016C1056.48 243.969 1061.04 246.573 1064.94 249.828C1101.4 258.943 1121.91 273.591 1126.46 293.773C1139.49 348.461 1146 384.919 1146 403.148C1146 420.727 1146.32 431.143 1146.97 434.398C1148.27 437.654 1149.25 440.258 1149.9 442.211C1151.2 443.513 1151.86 445.141 1151.86 447.094C1151.86 449.047 1151.2 454.255 1149.9 462.719C1148.6 471.182 1149.58 477.693 1152.83 482.25C1156.09 486.807 1159.67 489.086 1163.57 489.086C1168.13 489.086 1172.36 486.807 1176.27 482.25C1180.83 477.042 1183.76 466.951 1185.06 451.977C1187.01 436.352 1187.99 426.911 1187.99 423.656C1187.99 417.797 1188.96 412.589 1190.92 408.031C1193.52 402.823 1195.15 397.289 1195.8 391.43C1196.45 385.57 1197.43 379.385 1198.73 372.875C1200.68 355.948 1204.92 344.229 1211.43 337.719C1217.94 331.208 1224.77 325.674 1231.93 321.117C1239.1 315.909 1243.65 308.747 1245.61 299.633C1247.56 290.518 1249.51 282.055 1251.46 274.242C1254.07 266.43 1257.65 258.943 1262.21 251.781C1273.27 233.552 1289.55 224.438 1311.04 224.438ZM1559.08 822.094L1553.22 785.961C1553.22 779.451 1551.92 775.219 1549.32 773.266C1546.71 770.661 1542.48 766.755 1536.62 761.547C1530.76 756.339 1527.18 748.201 1525.88 737.133C1524.58 725.414 1524.25 712.068 1524.9 697.094C1526.2 678.214 1529.79 646.312 1535.64 601.391C1531.09 545.401 1528.16 509.268 1526.86 492.992C1519.69 407.055 1521.65 353.995 1532.71 333.812C1535.32 328.604 1537.92 324.698 1540.53 322.094C1545.74 316.885 1548.01 308.422 1547.36 296.703C1544.76 272.615 1557.45 256.013 1585.45 246.898C1593.91 244.294 1602.05 241.039 1609.86 237.133C1617.68 233.227 1625.81 229.646 1634.28 226.391C1653.16 219.88 1669.11 220.206 1682.13 227.367C1695.8 233.878 1709.8 236.482 1724.12 235.18C1738.44 233.227 1753.09 231.273 1768.07 229.32C1783.04 226.716 1797.36 225.089 1811.04 224.438C1825.36 223.786 1837.4 227.042 1847.17 234.203C1857.58 241.365 1868.33 249.177 1879.39 257.641C1891.11 266.104 1901.53 275.544 1910.64 285.961C1930.83 309.398 1939.29 332.185 1936.04 354.32C1946.45 379.06 1948.73 402.497 1942.87 424.633C1940.92 430.492 1940.59 436.352 1941.89 442.211C1944.5 453.93 1944.5 464.346 1941.89 473.461C1939.29 482.576 1938.64 492.341 1939.94 502.758C1941.89 512.523 1940.59 522.615 1936.04 533.031C1931.48 543.448 1928.55 553.214 1927.25 562.328C1925.94 571.443 1922.69 579.255 1917.48 585.766C1912.27 591.625 1907.39 595.206 1902.83 596.508C1898.93 597.159 1895.02 599.112 1891.11 602.367C1887.86 604.971 1885.25 607.901 1883.3 611.156C1882 614.411 1879.72 617.992 1876.46 621.898C1869.3 631.664 1859.21 639.802 1846.19 646.312C1853.35 658.682 1861.82 668.448 1871.58 675.609C1881.35 682.12 1889.49 689.607 1896 698.07C1903.16 705.883 1906.74 713.37 1906.74 720.531C1907.39 727.693 1909.02 734.854 1911.62 742.016C1914.23 749.177 1915.2 755.036 1914.55 759.594C1913.9 763.5 1912.92 768.057 1911.62 773.266C1910.97 777.823 1909.99 783.031 1908.69 788.891C1907.39 794.099 1906.74 800.284 1906.74 807.445C1907.39 813.956 1906.74 819.815 1904.79 825.023C1903.48 829.581 1901.2 834.464 1897.95 839.672C1895.35 844.229 1892.09 849.438 1888.18 855.297C1884.28 861.156 1880.7 868.318 1877.44 876.781C1873.54 887.198 1867.02 896.638 1857.91 905.102C1849.45 912.914 1842.61 919.424 1837.4 924.633C1832.85 929.19 1828.29 935.701 1823.73 944.164C1815.27 959.789 1803.55 969.88 1788.57 974.438C1774.9 978.344 1764.49 974.763 1757.32 963.695C1753.42 956.534 1746.26 955.232 1735.84 959.789C1726.07 964.346 1718.26 967.927 1712.4 970.531C1706.54 973.786 1699.38 974.763 1690.92 973.461C1683.11 972.81 1674.97 971.508 1666.5 969.555C1658.69 968.253 1650.55 968.904 1642.09 971.508C1633.63 974.763 1625.81 975.74 1618.65 974.438C1611.49 973.135 1604.98 970.857 1599.12 967.602C1586.1 961.091 1577.64 951.977 1573.73 940.258C1569.82 928.539 1567.22 916.495 1565.92 904.125C1564.62 891.104 1562.66 879.385 1560.06 868.969C1557.45 857.901 1556.15 850.089 1556.15 845.531L1559.08 822.094ZM1697.75 556.469C1697.75 590.974 1703.94 608.227 1716.31 608.227C1722.82 608.227 1728.68 603.669 1733.89 594.555C1739.1 584.789 1742.35 575.674 1743.65 567.211C1744.3 558.747 1744.63 550.284 1744.63 541.82C1745.28 532.706 1749.51 521.638 1757.32 508.617C1765.79 494.945 1768.39 482.576 1765.14 471.508C1762.53 459.789 1757.65 452.953 1750.49 451C1743.33 448.396 1736.82 444.815 1730.96 440.258C1725.75 435.049 1719.56 430.818 1712.4 427.562C1705.89 424.307 1700.03 426.911 1694.82 435.375C1690.27 443.188 1690.27 452.302 1694.82 462.719C1700.03 473.135 1701.66 487.133 1699.71 504.711C1698.4 522.289 1697.75 539.542 1697.75 556.469ZM1725.1 697.094C1710.12 692.536 1701.99 700.023 1700.68 719.555C1699.38 733.227 1697.75 747.224 1695.8 761.547C1693.85 775.87 1693.52 786.612 1694.82 793.773C1696.78 800.935 1698.73 808.747 1700.68 817.211C1704.59 820.466 1708.5 823.396 1712.4 826C1716.31 828.604 1719.89 831.208 1723.14 833.812C1727.05 826 1730.63 820.141 1733.89 816.234C1737.79 812.328 1741.05 808.096 1743.65 803.539C1750.16 793.122 1753.74 780.427 1754.39 765.453C1755.7 749.828 1754.72 737.458 1751.46 728.344C1746.26 711.417 1737.47 701 1725.1 697.094ZM2013.18 283.031C2028.81 264.151 2047.69 252.432 2069.82 247.875C2079.59 245.271 2089.36 242.992 2099.12 241.039C2108.89 239.086 2118.98 235.18 2129.39 229.32C2148.93 218.253 2162.27 212.719 2169.43 212.719C2177.25 212.719 2183.11 213.37 2187.01 214.672C2191.57 215.974 2196.45 216.951 2201.66 217.602C2207.52 218.253 2213.38 218.578 2219.24 218.578C2225.75 218.578 2232.91 219.229 2240.72 220.531C2265.46 223.786 2291.5 240.062 2318.85 269.359C2336.43 288.24 2347.17 307.771 2351.07 327.953C2355.63 348.135 2357.58 367.992 2356.93 387.523C2356.28 415.518 2358.24 436.352 2362.79 450.023C2367.35 463.695 2370.28 474.112 2371.58 481.273C2372.88 488.435 2371.91 498.526 2368.65 511.547C2366.05 523.917 2361.49 532.706 2354.98 537.914C2348.47 543.122 2341.31 546.378 2333.5 547.68C2325.68 548.982 2318.2 549.307 2311.04 548.656C2303.87 548.005 2298.01 547.68 2293.46 547.68C2288.9 547.68 2285.64 548.982 2283.69 551.586C2282.39 553.539 2280.76 555.818 2278.81 558.422C2274.25 562.979 2265.46 563.305 2252.44 559.398C2239.42 555.492 2228.68 547.354 2220.21 534.984C2211.75 521.964 2210.77 505.362 2217.29 485.18C2219.24 478.669 2221.19 472.81 2223.14 467.602C2225.1 461.742 2225.42 456.859 2224.12 452.953C2221.52 443.839 2215.33 438.956 2205.57 438.305C2195.8 437.654 2187.34 440.258 2180.18 446.117C2170.41 455.232 2163.9 466.625 2160.64 480.297C2158.04 493.318 2157.06 502.758 2157.71 508.617C2159.02 514.477 2159.67 520.661 2159.67 527.172C2159.67 533.682 2159.99 540.518 2160.64 547.68C2163.25 564.607 2167.15 576 2172.36 581.859C2178.22 587.719 2183.11 590.974 2187.01 591.625C2190.92 592.276 2194.5 592.602 2197.75 592.602C2201.66 591.951 2205.57 591.625 2209.47 591.625C2213.38 591.625 2218.91 593.253 2226.07 596.508C2233.24 599.763 2240.4 603.018 2247.56 606.273C2255.37 609.529 2262.21 614.737 2268.07 621.898C2273.93 629.06 2278.81 633.617 2282.71 635.57C2287.27 637.523 2291.18 639.477 2294.43 641.43C2297.69 642.732 2300.62 644.034 2303.22 645.336C2306.48 646.638 2309.08 649.893 2311.04 655.102C2319.5 677.888 2321.45 704.255 2316.89 734.203C2315.59 745.271 2314.29 754.06 2312.99 760.57C2312.34 767.081 2311.69 772.94 2311.04 778.148C2310.38 782.706 2309.73 786.938 2309.08 790.844C2308.43 794.099 2308.11 799.307 2308.11 806.469C2308.11 833.161 2303.55 853.669 2294.43 867.992C2285.97 882.315 2277.18 892.081 2268.07 897.289C2258.95 902.497 2253.09 906.404 2250.49 909.008C2247.88 911.612 2245.61 914.867 2243.65 918.773C2242.35 922.68 2240.07 926.911 2236.82 931.469C2229 942.536 2217.61 950.349 2202.64 954.906C2185.71 960.115 2167.48 962.393 2147.95 961.742C2129.07 961.742 2114.42 960.766 2104 958.812C2093.59 956.859 2083.82 951.977 2074.71 944.164C2066.24 936.352 2059.08 927.888 2053.22 918.773C2048.01 909.008 2043.78 903.799 2040.53 903.148C2037.27 901.846 2033.69 901.195 2029.79 901.195H2018.07C2007.65 901.195 2000.49 898.266 1996.58 892.406C1993.33 885.896 1992.02 880.036 1992.68 874.828C1993.98 868.969 1994.3 860.831 1993.65 850.414C1993.65 839.997 1993.65 830.232 1993.65 821.117C1994.3 812.003 1998.21 804.19 2005.37 797.68C2021 785.31 2034.67 778.799 2046.39 778.148C2058.11 777.497 2065.92 775.219 2069.82 771.312C2073.73 767.406 2076.66 763.826 2078.61 760.57C2081.22 757.315 2084.47 755.362 2088.38 754.711C2092.94 754.06 2097.49 754.385 2102.05 755.688C2113.12 758.943 2118.65 765.453 2118.65 775.219C2118.65 784.984 2118.65 794.099 2118.65 802.562C2119.3 810.375 2120.61 817.536 2122.56 824.047C2127.12 840.974 2135.58 848.786 2147.95 847.484C2161.62 846.182 2169.11 832.51 2170.41 806.469C2170.41 799.307 2170.41 792.471 2170.41 785.961V764.477C2170.41 733.878 2155.76 710.44 2126.46 694.164C2114.75 687.654 2103.35 681.469 2092.29 675.609C2081.22 669.75 2070.8 662.589 2061.04 654.125C2038.9 634.594 2024.9 612.133 2019.04 586.742C2013.18 561.352 2008.95 545.076 2006.35 537.914C2003.74 530.102 2001.14 524.893 1998.54 522.289C1996.58 519.685 1994.3 517.732 1991.7 516.43C1989.1 515.128 1985.51 511.221 1980.96 504.711C1973.8 494.945 1972.17 483.552 1976.07 470.531C1979.98 457.51 1983.24 446.768 1985.84 438.305C1988.44 429.19 1989.75 419.424 1989.75 409.008C1989.75 398.591 1989.1 388.5 1987.79 378.734C1987.14 368.318 1986.82 357.901 1986.82 347.484C1988.12 324.047 1996.91 302.562 2013.18 283.031Z" fill="white"/>
<path d="M210.449 1225.32L209.961 1192.6C210.286 1184.79 211.1 1179.09 212.402 1175.51C213.704 1171.93 214.518 1168.35 214.844 1164.77C215.495 1160.86 215.983 1156.96 216.309 1153.05C216.96 1148.82 217.611 1144.75 218.262 1140.84C219.889 1131.73 222.168 1126.85 225.098 1126.2C228.027 1125.54 229.818 1121.96 230.469 1115.45C232.096 1104.71 231.771 1096.08 229.492 1089.57C226.888 1081.76 227.051 1075.74 229.98 1071.51C235.514 1063.04 244.629 1061.74 257.324 1067.6C266.439 1071.51 272.949 1073.46 276.855 1073.46C280.762 1073.46 284.18 1073.14 287.109 1072.48C290.365 1071.51 294.759 1070.37 300.293 1069.07C306.152 1067.44 310.71 1069.55 313.965 1075.41C317.546 1080.95 319.01 1086.48 318.359 1092.02C318.034 1097.55 317.546 1102.76 316.895 1107.64C316.243 1112.2 315.592 1117.08 314.941 1122.29C312.663 1135.31 310.71 1143.94 309.082 1148.17C307.78 1152.07 306.803 1156.31 306.152 1160.86C305.501 1165.1 304.85 1169.65 304.199 1174.54C302.897 1188.86 301.432 1199.11 299.805 1205.3C291.341 1237.2 287.109 1256.57 287.109 1263.4C287.109 1270.24 286.784 1274.47 286.133 1276.1C285.482 1277.73 284.668 1279.35 283.691 1280.98C282.715 1282.61 281.413 1284.72 279.785 1287.33C278.158 1289.61 276.367 1293.35 274.414 1298.56C271.81 1305.39 270.671 1311.58 270.996 1317.11C271.647 1328.51 270.833 1337.3 268.555 1343.48C266.276 1349.67 263.835 1356.01 261.23 1362.52C258.952 1368.71 256.673 1374.89 254.395 1381.08C248.861 1394.75 245.443 1405.49 244.141 1413.3C242.839 1421.12 240.234 1426.98 236.328 1430.88C232.747 1435.11 228.841 1436.42 224.609 1434.79C220.703 1433.16 218.099 1431.21 216.797 1428.93C215.82 1426.65 214.844 1424.37 213.867 1422.09C210.938 1415.58 207.357 1411.68 203.125 1410.38C196.615 1407.77 191.732 1403.21 188.477 1396.7C185.547 1389.87 183.757 1381.73 183.105 1372.29C182.78 1362.85 182.292 1354.39 181.641 1346.9C180.99 1339.41 180.176 1332.58 179.199 1326.39C176.27 1311.09 173.177 1303.44 169.922 1303.44C167.969 1303.44 166.504 1305.23 165.527 1308.81C164.551 1312.07 163.574 1316.3 162.598 1321.51C159.668 1336.16 156.413 1346.25 152.832 1351.78C149.577 1357.32 147.461 1362.2 146.484 1366.43C145.508 1370.66 144.694 1374.73 144.043 1378.64C143.717 1382.54 143.392 1386.45 143.066 1390.36C142.741 1393.94 141.764 1397.68 140.137 1401.59C138.835 1405.49 137.207 1409.56 135.254 1413.79C133.301 1417.7 130.859 1421.12 127.93 1424.05C121.094 1430.23 113.281 1430.56 104.492 1425.02C98.9583 1421.44 92.7734 1418.68 85.9375 1416.72C79.1016 1414.44 74.5443 1412.65 72.2656 1411.35C69.987 1409.72 67.8711 1406.96 65.918 1403.05C64.2904 1399.14 62.9883 1393.77 62.0117 1386.94C61.3607 1379.78 60.3841 1371.64 59.082 1362.52C55.1758 1336.48 50.6185 1315.49 45.4102 1299.54C41.1784 1286.51 36.9466 1268.77 32.7148 1246.31C28.4831 1223.53 25.5534 1208.71 23.9258 1201.88C22.6237 1194.72 21.3216 1190.97 20.0195 1190.65C17.7409 1190.32 15.7878 1187.07 14.1602 1180.88C11.8815 1170.14 11.2305 1162 12.207 1156.47C13.1836 1150.93 13.3464 1145.89 12.6953 1141.33C12.3698 1136.45 11.7188 1131.57 10.7422 1126.68C9.76562 1121.8 8.6263 1117.08 7.32422 1112.52C6.34766 1107.97 5.37109 1103.08 4.39453 1097.88C1.46484 1085.51 4.06901 1076.55 12.207 1071.02C23.9258 1063.86 33.6914 1063.21 41.5039 1069.07C45.0846 1066.46 49.9674 1066.79 56.1523 1070.04C59.7331 1066.46 64.1276 1063.53 69.3359 1061.25C74.8698 1058.98 79.7526 1058.65 83.9844 1060.28C88.2161 1061.58 91.4714 1064.02 93.75 1067.6C96.0286 1070.86 97.819 1074.93 99.1211 1079.81C101.074 1086.64 102.539 1095.92 103.516 1107.64C104.818 1119.03 105.469 1127.17 105.469 1132.05C105.469 1136.94 105.469 1141.82 105.469 1146.7C105.469 1158.42 106.445 1171.12 108.398 1184.79C110.677 1198.46 111.654 1209.2 111.328 1217.02C111.328 1224.5 111.654 1229.87 112.305 1233.13C112.956 1236.06 113.607 1238.66 114.258 1240.94C114.909 1243.22 115.723 1245.34 116.699 1247.29C118.978 1250.87 121.745 1252.17 125 1251.2C126.953 1250.22 127.93 1248.75 127.93 1246.8C127.93 1244.52 127.604 1241.76 126.953 1238.5C126.628 1235.24 126.139 1231.66 125.488 1227.76C124.837 1223.85 124.674 1219.95 125 1216.04C125.326 1211.81 125.651 1206.76 125.977 1200.9C126.628 1194.72 127.116 1188.37 127.441 1181.86C129.069 1163.3 130.534 1150.12 131.836 1142.31C133.138 1134.17 134.115 1127.99 134.766 1123.75C135.417 1119.2 136.23 1114.31 137.207 1109.11C142.741 1104.87 146.973 1099.01 149.902 1091.53C148.6 1089.9 147.949 1088.43 147.949 1087.13L151.367 1072.97C151.693 1069.39 153.32 1066.3 156.25 1063.7C159.18 1060.77 161.947 1059.63 164.551 1060.28C167.155 1060.93 169.108 1061.74 170.41 1062.72C171.712 1063.7 173.014 1065.49 174.316 1068.09C176.27 1072.97 177.409 1080.95 177.734 1092.02C178.385 1103.08 178.874 1110.9 179.199 1115.45C179.85 1120.01 180.339 1124.08 180.664 1127.66C180.99 1130.92 181.315 1134.17 181.641 1137.43C181.966 1140.36 182.129 1145.08 182.129 1151.59C182.129 1157.77 181.966 1163.96 181.641 1170.14C181.315 1176.33 182.617 1182.51 185.547 1188.7C188.477 1194.88 190.104 1199.11 190.43 1201.39C190.755 1203.34 190.755 1205.46 190.43 1207.74C190.104 1209.69 189.616 1212.13 188.965 1215.06C188.639 1217.67 188.477 1221.74 188.477 1227.27C188.477 1237.36 190.918 1244.68 195.801 1249.24C203.288 1256.08 207.845 1253.47 209.473 1241.43C210.124 1236.55 210.449 1231.18 210.449 1225.32ZM453.613 1155.98C442.546 1158.91 440.43 1177.79 447.266 1212.62C449.544 1222.06 450.684 1230.04 450.684 1236.55C451.009 1242.73 450.195 1249.57 448.242 1257.05C446.289 1264.54 445.312 1270.56 445.312 1275.12C445.312 1279.68 444.661 1285.05 443.359 1291.23C443.685 1298.07 443.522 1305.07 442.871 1312.23C442.546 1319.07 442.22 1325.74 441.895 1332.25C440.918 1348.2 440.755 1357.64 441.406 1360.57C442.057 1363.5 443.034 1365.45 444.336 1366.43C445.964 1367.08 447.754 1367.73 449.707 1368.38C454.264 1370.01 457.031 1372.13 458.008 1374.73C458.984 1377.33 459.31 1381.08 458.984 1385.96C458.984 1390.52 458.496 1395.4 457.52 1400.61C454.59 1412.98 450.521 1420.95 445.312 1424.54C442.383 1426.49 439.29 1427.14 436.035 1426.49C433.105 1425.84 429.85 1425.19 426.27 1424.54C415.202 1422.58 405.762 1423.56 397.949 1427.46C378.743 1437.88 363.932 1437.88 353.516 1427.46C349.284 1423.23 346.68 1416.72 345.703 1407.93C344.401 1391.98 345.215 1381.73 348.145 1377.17C351.4 1372.61 354.004 1369.85 355.957 1368.87C358.236 1367.57 360.189 1366.43 361.816 1365.45C365.397 1363.83 367.188 1361.06 367.188 1357.15C367.188 1354.22 367.513 1351.13 368.164 1347.88C369.141 1344.29 369.954 1340.55 370.605 1336.64C372.233 1327.2 371.419 1319.39 368.164 1313.21C364.583 1306.05 362.956 1300.19 363.281 1295.63C363.932 1291.07 364.421 1287 364.746 1283.42L366.699 1271.7C367.35 1262.26 367.188 1254.29 366.211 1247.78C365.234 1240.94 364.421 1233.94 363.77 1226.78C363.444 1219.29 363.281 1212.3 363.281 1205.79C363.607 1199.27 363.77 1193.09 363.77 1187.23C363.77 1173.56 362.305 1165.42 359.375 1162.82C356.771 1160.21 354.329 1158.91 352.051 1158.91C349.772 1158.58 347.493 1158.42 345.215 1158.42C339.03 1159.07 335.124 1158.1 333.496 1155.49C329.915 1151.91 328.125 1147.35 328.125 1141.82C328.125 1136.29 329.102 1132.05 331.055 1129.12C333.333 1126.2 334.798 1122.94 335.449 1119.36C336.1 1115.45 336.426 1111.38 336.426 1107.15C337.077 1097.39 336.751 1091.04 335.449 1088.11C334.147 1084.85 333.171 1082.09 332.52 1079.81C332.194 1077.2 332.031 1074.76 332.031 1072.48C332.031 1063.04 338.704 1058.16 352.051 1057.84C360.189 1057.51 368.49 1057.67 376.953 1058.32C385.417 1058.65 392.09 1058.32 396.973 1057.35C413.9 1054.09 427.409 1052.79 437.5 1053.44C447.917 1054.09 454.59 1054.91 457.52 1055.88C465.658 1059.14 470.052 1068.09 470.703 1082.74C471.029 1089.57 471.191 1096.74 471.191 1104.22C471.191 1111.71 471.517 1119.36 472.168 1127.17C473.47 1143.45 467.285 1153.05 453.613 1155.98ZM510.742 1067.6C518.229 1068.25 524.74 1068.58 530.273 1068.58C536.133 1068.25 544.759 1068.25 556.152 1068.58C575.033 1069.55 588.379 1068.25 596.191 1064.67C612.142 1056.53 625 1055.56 634.766 1061.74C639.323 1064.35 643.717 1065.97 647.949 1066.62C652.181 1067.28 658.203 1065.32 666.016 1060.77C674.479 1057.18 681.478 1056.37 687.012 1058.32C692.546 1060.28 696.615 1062.72 699.219 1065.65C701.823 1068.58 703.451 1073.79 704.102 1081.27C705.078 1088.43 705.241 1095.6 704.59 1102.76C704.264 1109.92 703.613 1116.59 702.637 1122.78C700.684 1139.38 699.87 1150.28 700.195 1155.49C700.846 1160.7 701.497 1166.07 702.148 1171.61C703.125 1177.14 703.451 1182.51 703.125 1187.72C702.474 1200.41 697.266 1207.58 687.5 1209.2C680.339 1210.18 675.13 1208.55 671.875 1204.32C668.62 1199.76 665.853 1194.88 663.574 1189.67C661.621 1184.14 659.505 1179.26 657.227 1175.02C655.273 1170.79 652.344 1169.33 648.438 1170.63C644.531 1171.61 642.09 1175.84 641.113 1183.32C640.137 1190.49 639.811 1199.11 640.137 1209.2C640.462 1218.97 641.113 1229.22 642.09 1239.96C643.066 1250.38 643.717 1259.33 644.043 1266.82C644.368 1273.98 644.694 1281.31 645.02 1288.79C645.671 1296.28 645.996 1303.28 645.996 1309.79C645.996 1323.79 644.043 1333.39 640.137 1338.6C638.184 1341.2 637.207 1344.29 637.207 1347.88C637.207 1351.46 637.533 1355.2 638.184 1359.11C639.16 1363.01 640.137 1366.92 641.113 1370.82C642.09 1374.73 642.578 1379.45 642.578 1384.98C642.578 1398.01 636.719 1407.12 625 1412.33C620.768 1414.28 616.862 1417.54 613.281 1422.09C609.701 1426.65 606.934 1429.58 604.98 1430.88C603.353 1432.51 601.237 1433 598.633 1432.35C596.354 1432.02 594.564 1430.88 593.262 1428.93C592.285 1427.3 591.309 1425.51 590.332 1423.56C588.379 1418.35 585.612 1414.93 582.031 1413.3C577.799 1412.33 575.195 1408.75 574.219 1402.56C573.568 1396.38 573.079 1391.01 572.754 1386.45C572.754 1381.57 572.428 1375.71 571.777 1368.87C571.126 1362.04 569.01 1356.5 565.43 1352.27C561.849 1348.04 558.919 1345.43 556.641 1344.46C554.362 1343.15 552.897 1340.39 552.246 1336.16C551.595 1331.6 551.595 1327.04 552.246 1322.48C553.223 1317.93 554.362 1312.88 555.664 1307.35C559.57 1291.4 561.686 1276.42 562.012 1262.43C562.988 1236.38 562.988 1219.13 562.012 1210.67C560.71 1193.74 556.152 1185.28 548.34 1185.28C544.434 1185.6 541.667 1187.39 540.039 1190.65C538.411 1193.58 536.621 1197.16 534.668 1201.39C530.111 1212.13 521.81 1215.06 509.766 1210.18C505.534 1208.23 502.767 1205.13 501.465 1200.9C500.488 1196.67 499.837 1191.79 499.512 1186.25C499.512 1180.39 499.349 1174.37 499.023 1168.19C499.023 1161.68 497.884 1155.65 495.605 1150.12C493.652 1144.26 491.699 1138.73 489.746 1133.52C487.793 1128.31 486.979 1123.1 487.305 1117.89C487.63 1112.69 488.77 1107.64 490.723 1102.76C493.001 1097.88 493.652 1092.99 492.676 1088.11C492.025 1083.23 493.001 1078.51 495.605 1073.95C498.535 1069.07 503.581 1066.95 510.742 1067.6ZM851.074 1364.48L851.562 1327.37V1315.16C851.562 1305.39 850.586 1299.21 848.633 1296.61C845.703 1292.05 841.146 1289.93 834.961 1290.26C828.776 1290.26 824.219 1292.05 821.289 1295.63C818.685 1299.21 817.057 1303.6 816.406 1308.81C816.081 1314.02 815.755 1319.72 815.43 1325.9C815.43 1332.09 815.43 1338.76 815.43 1345.92C814.779 1360.24 814.779 1371.31 815.43 1379.12C816.406 1386.94 816.406 1391.98 815.43 1394.26C814.779 1396.21 813.151 1398.33 810.547 1400.61C807.943 1402.56 805.827 1405.33 804.199 1408.91C802.572 1412.17 801.107 1415.58 799.805 1419.16C795.898 1427.63 791.829 1432.02 787.598 1432.35C774.902 1433.65 763.997 1426.81 754.883 1411.84C752.93 1408.26 750.326 1404.84 747.07 1401.59C740.234 1394.1 738.932 1382.05 743.164 1365.45C744.792 1357.64 745.605 1349.67 745.605 1341.53C745.605 1333.06 745.28 1327.04 744.629 1323.46C743.978 1319.88 743.978 1315.97 744.629 1311.74C745.28 1307.18 744.792 1303.28 743.164 1300.02C741.536 1296.44 740.885 1291.89 741.211 1286.35C741.862 1280.82 741.536 1276.1 740.234 1272.19C739.258 1267.96 739.095 1264.22 739.746 1260.96C740.397 1257.71 739.909 1255.1 738.281 1253.15C736.979 1251.2 736.491 1248.43 736.816 1244.85C737.467 1240.94 737.956 1236.87 738.281 1232.64C739.258 1220.92 737.793 1211.97 733.887 1205.79C729.98 1199.6 726.562 1192.44 723.633 1184.3C721.029 1176.16 721.517 1166.4 725.098 1155C730.632 1137.75 732.259 1118.71 729.98 1097.88C729.329 1092.67 730.469 1086.64 733.398 1079.81C737.63 1069.07 751.465 1063.04 774.902 1061.74C782.389 1061.42 789.062 1060.44 794.922 1058.81C801.107 1057.18 807.129 1057.18 812.988 1058.81C819.173 1060.11 822.754 1063.86 823.73 1070.04C824.707 1076.23 825.521 1080.46 826.172 1082.74C827.148 1085.02 827.799 1087.3 828.125 1089.57C828.776 1093.81 828.125 1100.64 826.172 1110.08C824.219 1119.2 823.079 1127.01 822.754 1133.52C822.428 1139.7 822.266 1145.73 822.266 1151.59C822.917 1165.91 822.266 1176.16 820.312 1182.35C818.685 1188.21 818.197 1192.76 818.848 1196.02C819.499 1198.95 820.801 1201.39 822.754 1203.34C829.264 1209.2 838.216 1208.55 849.609 1201.39C851.237 1200.41 852.702 1198.79 854.004 1196.51C852.376 1187.39 851.4 1176.16 851.074 1162.82C850.749 1142.96 850.098 1127.5 849.121 1116.43C848.145 1105.04 848.307 1095.6 849.609 1088.11C850.911 1080.62 854.329 1073.62 859.863 1067.11C865.397 1060.6 870.443 1057.84 875 1058.81C879.883 1059.46 883.789 1061.42 886.719 1064.67C889.974 1067.6 892.904 1068.9 895.508 1068.58C898.112 1068.25 901.693 1066.62 906.25 1063.7C918.294 1056.53 929.525 1060.93 939.941 1076.88C936.686 1080.13 935.71 1086.16 937.012 1094.95C938.639 1103.41 938.965 1109.59 937.988 1113.5C937.012 1117.08 936.361 1122.29 936.035 1129.12C935.71 1135.64 935.384 1141.98 935.059 1148.17C935.059 1154.35 934.245 1162.49 932.617 1172.58C930.339 1186.58 930.176 1202.69 932.129 1220.92C934.082 1239.15 934.408 1255.59 933.105 1270.24C931.803 1284.89 931.478 1297.09 932.129 1306.86C932.78 1316.62 932.454 1323.14 931.152 1326.39C930.176 1329.65 929.036 1332.9 927.734 1336.16C922.852 1345.6 920.085 1355.2 919.434 1364.96C918.783 1373.1 918.294 1381.24 917.969 1389.38C917.643 1397.19 916.829 1404.19 915.527 1410.38C912.598 1424.37 905.924 1431.37 895.508 1431.37C883.789 1431.37 877.116 1422.42 875.488 1404.52C868.001 1402.24 861.816 1398.33 856.934 1392.8C852.376 1387.26 850.423 1377.82 851.074 1364.48ZM1011.23 1089.09C1014.81 1085.83 1017.9 1082.41 1020.51 1078.83C1023.11 1074.93 1026.53 1071.35 1030.76 1068.09C1042.15 1058.65 1053.55 1055.88 1064.94 1059.79C1078.94 1065 1091.8 1068.25 1103.52 1069.55C1115.23 1070.86 1123.7 1073.79 1128.91 1078.34C1134.44 1082.9 1139.16 1087.78 1143.07 1092.99C1152.51 1105.36 1158.2 1118.87 1160.16 1133.52C1160.48 1139.05 1161.46 1142.96 1163.09 1145.24C1167.32 1152.4 1168.62 1162 1166.99 1174.05C1165.69 1186.09 1165.2 1194.55 1165.53 1199.44C1166.18 1203.99 1166.99 1207.41 1167.97 1209.69C1169.27 1211.97 1170.41 1214.25 1171.39 1216.53C1173.99 1222.71 1175.29 1228.9 1175.29 1235.08C1175.29 1242.89 1172.69 1250.71 1167.48 1258.52C1165.2 1261.45 1164.39 1267.15 1165.04 1275.61C1165.69 1284.07 1166.18 1292.54 1166.5 1301C1166.83 1322.16 1165.69 1335.34 1163.09 1340.55C1160.48 1345.43 1158.53 1348.36 1157.23 1349.34C1156.25 1350.32 1155.27 1351.13 1154.3 1351.78C1149.41 1354.06 1145.02 1360.9 1141.11 1372.29C1137.53 1383.36 1132.65 1392.47 1126.46 1399.63C1120.28 1406.47 1113.77 1412.17 1106.93 1416.72C1100.42 1420.95 1095.21 1424.21 1091.31 1426.49C1087.73 1429.09 1085.12 1431.53 1083.5 1433.81C1081.87 1436.09 1080.24 1438.37 1078.61 1440.65C1074.38 1445.86 1069.01 1448.46 1062.5 1448.46C1051.43 1448.46 1043.29 1445.86 1038.09 1440.65C1035.81 1437.72 1033.37 1433.49 1030.76 1427.95C1025.88 1419.16 1019.37 1412 1011.23 1406.47C1002.12 1400.28 996.582 1391.01 994.629 1378.64C993.652 1374.4 993.327 1370.17 993.652 1365.94C994.303 1361.71 994.141 1356.34 993.164 1349.83C992.513 1343.32 991.211 1337.46 989.258 1332.25C987.305 1327.04 986.165 1322.16 985.84 1317.6C984.212 1303.93 979.655 1296.61 972.168 1295.63C966.634 1294.98 963.379 1286.68 962.402 1270.73C962.077 1262.59 962.402 1254.94 963.379 1247.78C964.355 1240.29 965.658 1233.94 967.285 1228.73C969.889 1219.29 970.703 1208.39 969.727 1196.02C968.75 1183.32 968.75 1172.09 969.727 1162.33C971.354 1144.1 975.26 1129.29 981.445 1117.89C984.375 1113.01 988.607 1108.13 994.141 1103.25C1000 1098.36 1005.7 1093.64 1011.23 1089.09ZM1041.99 1228.73C1042.97 1233.29 1044.6 1237.04 1046.88 1239.96C1049.48 1242.57 1051.27 1246.8 1052.25 1252.66C1053.55 1258.52 1054.04 1265.03 1053.71 1272.19C1053.39 1279.03 1053.22 1285.7 1053.22 1292.21C1053.22 1298.4 1053.55 1304.09 1054.2 1309.3C1054.85 1314.18 1055.83 1318.74 1057.13 1322.97C1060.71 1333.06 1065.76 1338.11 1072.27 1338.11C1082.36 1338.11 1089.36 1318.58 1093.26 1279.52C1094.56 1268.77 1095.21 1255.1 1095.21 1238.5C1095.21 1221.57 1092.61 1207.09 1087.4 1195.04C1082.19 1182.67 1075.85 1176.49 1068.36 1176.49C1061.2 1176.49 1054.69 1184.46 1048.83 1200.41C1043.62 1214.74 1041.34 1224.18 1041.99 1228.73ZM1285.16 1139.38L1282.71 1250.22C1282.71 1299.37 1289.55 1322.65 1303.22 1320.04C1314.94 1318.09 1320.31 1297.42 1319.34 1258.03C1319.34 1246.31 1320.15 1238.83 1321.78 1235.57C1323.73 1231.99 1325.03 1229.06 1325.68 1226.78C1327.31 1220.27 1327.64 1211.64 1326.66 1200.9C1326.01 1194.07 1324.87 1183.81 1323.24 1170.14C1321.61 1156.47 1320.15 1142.47 1318.85 1128.15C1317.55 1113.5 1316.89 1100.32 1316.89 1088.6C1316.89 1076.88 1318.03 1069.55 1320.31 1066.62C1322.92 1063.7 1326.01 1062.07 1329.59 1061.74C1333.5 1061.09 1337.4 1061.09 1341.31 1061.74C1345.54 1062.07 1349.45 1062.72 1353.03 1063.7C1356.93 1064.67 1360.03 1065.16 1362.3 1065.16C1364.91 1065.16 1367.84 1064.83 1371.09 1064.18C1374.67 1063.21 1378.09 1062.56 1381.35 1062.23C1384.93 1061.58 1388.18 1061.25 1391.11 1061.25C1394.37 1061.25 1397.3 1062.39 1399.9 1064.67C1402.51 1066.95 1404.62 1072.65 1406.25 1081.76C1408.2 1090.88 1409.51 1101.62 1410.16 1113.99C1411.13 1126.36 1411.62 1139.7 1411.62 1154.03C1411.62 1168.02 1411.46 1181.37 1411.13 1194.07C1409.83 1222.06 1408.53 1238.99 1407.23 1244.85C1406.25 1250.71 1404.95 1254.94 1403.32 1257.54C1401.69 1260.15 1400.07 1262.59 1398.44 1264.87C1395.18 1269.42 1394.69 1275.93 1396.97 1284.4C1399.25 1292.86 1401.04 1299.37 1402.34 1303.93C1404.62 1312.07 1404.79 1319.39 1402.83 1325.9C1400.88 1332.41 1400.23 1338.76 1400.88 1344.95C1402.51 1361.55 1400.55 1373.43 1395.02 1380.59C1392.42 1384.17 1388.35 1387.59 1382.81 1390.84C1371.74 1397.03 1363.61 1404.52 1358.4 1413.3C1355.79 1418.51 1352.7 1421.61 1349.12 1422.58C1347.17 1423.23 1344.24 1423.4 1340.33 1423.07C1336.43 1422.42 1332.19 1421.93 1327.64 1421.61C1323.08 1420.95 1318.68 1420.47 1314.45 1420.14C1310.22 1419.49 1307.29 1419.49 1305.66 1420.14C1304.04 1420.47 1302.57 1421.44 1301.27 1423.07C1299.97 1424.37 1298.5 1425.84 1296.88 1427.46C1288.09 1436.25 1278.97 1435.28 1269.53 1424.54C1267.58 1422.26 1265.62 1420.14 1263.67 1418.19C1262.04 1415.91 1260.42 1414.28 1258.79 1413.3C1257.16 1412 1254.88 1410.86 1251.95 1409.89C1249.35 1408.58 1246.42 1406.79 1243.16 1404.52C1229.17 1396.05 1220.38 1382.38 1216.8 1363.5C1214.84 1354.39 1213.22 1342.67 1211.91 1328.34C1210.61 1313.7 1209.47 1304.42 1208.5 1300.51C1207.85 1296.61 1205.89 1292.37 1202.64 1287.82C1199.38 1282.93 1197.27 1278.54 1196.29 1274.63C1195.31 1270.4 1195.15 1266.01 1195.8 1261.45C1196.45 1256.89 1197.27 1251.68 1198.24 1245.82C1200.85 1230.2 1201.5 1216.53 1200.2 1204.81C1198.89 1193.09 1198.57 1183.98 1199.22 1177.46C1200.2 1170.95 1200.36 1166.89 1199.71 1165.26C1199.06 1163.3 1197.92 1161.51 1196.29 1159.89C1194.99 1158.26 1194.66 1154.84 1195.31 1149.63C1195.96 1144.42 1196.29 1139.38 1196.29 1134.5C1196.29 1129.61 1196.29 1124.57 1196.29 1119.36C1197.27 1097.22 1200.68 1083.88 1206.54 1079.32C1211.43 1075.74 1216.47 1073.79 1221.68 1073.46C1229.82 1073.14 1235.84 1071.67 1239.75 1069.07C1243.98 1066.46 1247.4 1064.35 1250 1062.72C1266.28 1053.6 1276.37 1060.11 1280.27 1082.25C1282.88 1095.92 1284.51 1114.96 1285.16 1139.38ZM1453.12 1067.6C1460.61 1068.25 1467.12 1068.58 1472.66 1068.58C1478.52 1068.25 1487.14 1068.25 1498.54 1068.58C1517.42 1069.55 1530.76 1068.25 1538.57 1064.67C1554.52 1056.53 1567.38 1055.56 1577.15 1061.74C1581.71 1064.35 1586.1 1065.97 1590.33 1066.62C1594.56 1067.28 1600.59 1065.32 1608.4 1060.77C1616.86 1057.18 1623.86 1056.37 1629.39 1058.32C1634.93 1060.28 1639 1062.72 1641.6 1065.65C1644.21 1068.58 1645.83 1073.79 1646.48 1081.27C1647.46 1088.43 1647.62 1095.6 1646.97 1102.76C1646.65 1109.92 1646 1116.59 1645.02 1122.78C1643.07 1139.38 1642.25 1150.28 1642.58 1155.49C1643.23 1160.7 1643.88 1166.07 1644.53 1171.61C1645.51 1177.14 1645.83 1182.51 1645.51 1187.72C1644.86 1200.41 1639.65 1207.58 1629.88 1209.2C1622.72 1210.18 1617.51 1208.55 1614.26 1204.32C1611 1199.76 1608.24 1194.88 1605.96 1189.67C1604 1184.14 1601.89 1179.26 1599.61 1175.02C1597.66 1170.79 1594.73 1169.33 1590.82 1170.63C1586.91 1171.61 1584.47 1175.84 1583.5 1183.32C1582.52 1190.49 1582.19 1199.11 1582.52 1209.2C1582.85 1218.97 1583.5 1229.22 1584.47 1239.96C1585.45 1250.38 1586.1 1259.33 1586.43 1266.82C1586.75 1273.98 1587.08 1281.31 1587.4 1288.79C1588.05 1296.28 1588.38 1303.28 1588.38 1309.79C1588.38 1323.79 1586.43 1333.39 1582.52 1338.6C1580.57 1341.2 1579.59 1344.29 1579.59 1347.88C1579.59 1351.46 1579.92 1355.2 1580.57 1359.11C1581.54 1363.01 1582.52 1366.92 1583.5 1370.82C1584.47 1374.73 1584.96 1379.45 1584.96 1384.98C1584.96 1398.01 1579.1 1407.12 1567.38 1412.33C1563.15 1414.28 1559.24 1417.54 1555.66 1422.09C1552.08 1426.65 1549.32 1429.58 1547.36 1430.88C1545.74 1432.51 1543.62 1433 1541.02 1432.35C1538.74 1432.02 1536.95 1430.88 1535.64 1428.93C1534.67 1427.3 1533.69 1425.51 1532.71 1423.56C1530.76 1418.35 1527.99 1414.93 1524.41 1413.3C1520.18 1412.33 1517.58 1408.75 1516.6 1402.56C1515.95 1396.38 1515.46 1391.01 1515.14 1386.45C1515.14 1381.57 1514.81 1375.71 1514.16 1368.87C1513.51 1362.04 1511.39 1356.5 1507.81 1352.27C1504.23 1348.04 1501.3 1345.43 1499.02 1344.46C1496.74 1343.15 1495.28 1340.39 1494.63 1336.16C1493.98 1331.6 1493.98 1327.04 1494.63 1322.48C1495.61 1317.93 1496.74 1312.88 1498.05 1307.35C1501.95 1291.4 1504.07 1276.42 1504.39 1262.43C1505.37 1236.38 1505.37 1219.13 1504.39 1210.67C1503.09 1193.74 1498.54 1185.28 1490.72 1185.28C1486.82 1185.6 1484.05 1187.39 1482.42 1190.65C1480.79 1193.58 1479 1197.16 1477.05 1201.39C1472.49 1212.13 1464.19 1215.06 1452.15 1210.18C1447.92 1208.23 1445.15 1205.13 1443.85 1200.9C1442.87 1196.67 1442.22 1191.79 1441.89 1186.25C1441.89 1180.39 1441.73 1174.37 1441.41 1168.19C1441.41 1161.68 1440.27 1155.65 1437.99 1150.12C1436.04 1144.26 1434.08 1138.73 1432.13 1133.52C1430.18 1128.31 1429.36 1123.1 1429.69 1117.89C1430.01 1112.69 1431.15 1107.64 1433.11 1102.76C1435.38 1097.88 1436.04 1092.99 1435.06 1088.11C1434.41 1083.23 1435.38 1078.51 1437.99 1073.95C1440.92 1069.07 1445.96 1066.95 1453.12 1067.6Z" fill="white"/>
<path d="M1715.5 1326.11C1724.31 1325.33 1731.73 1325.31 1737.77 1326.03C1737.77 1326.03 1742.54 1326.73 1752.08 1328.12C1755.39 1328.59 1759.68 1328.78 1764.96 1328.71C1770.24 1328.44 1774.04 1329.02 1776.35 1330.44C1778.47 1331.85 1779.78 1334.23 1780.29 1337.56C1780.8 1340.7 1780.65 1343.23 1779.82 1345.17C1778.8 1346.9 1777.79 1348.54 1776.78 1350.08C1774.54 1353.94 1774.17 1357.15 1775.68 1359.73C1777.19 1362.11 1779.49 1363.82 1782.59 1364.87C1785.69 1365.92 1789.29 1366.58 1793.39 1366.87C1799.43 1367.6 1807.34 1367.78 1817.11 1367.42C1820.63 1367.31 1823.46 1367.37 1825.61 1367.61C1827.56 1367.66 1829.32 1367.7 1830.88 1367.74C1834.59 1367.82 1838.21 1367.32 1841.76 1366.23C1845.3 1365.14 1847.95 1364.61 1849.7 1364.65C1851.46 1364.69 1852.92 1365.02 1854.08 1365.63C1855.04 1366.05 1855.91 1366.75 1856.67 1367.74C1857.23 1368.73 1857.89 1369.63 1858.66 1370.43C1859.22 1371.22 1859.89 1372.12 1860.65 1373.11C1861.21 1373.9 1861.88 1374.8 1862.64 1375.79C1872.23 1375.04 1879.84 1375.02 1885.49 1375.73C1890.95 1376.44 1895.63 1376.94 1899.53 1377.23C1903.43 1377.51 1906.43 1378.56 1908.54 1380.37C1911.22 1382.77 1913.06 1387.5 1914.07 1394.56C1914.17 1398.66 1911.96 1401.64 1907.42 1403.49C1903.08 1405.34 1897.79 1406.1 1891.54 1405.76C1885.3 1405.23 1880.52 1405.22 1877.19 1405.73C1873.66 1406.23 1870.71 1406.94 1868.34 1407.87C1865.98 1408.59 1863.92 1409.33 1862.14 1410.07C1860.17 1410.8 1857.52 1411.43 1854.18 1411.94C1850.85 1412.45 1847.25 1411.97 1843.37 1410.52C1840.19 1413.18 1836.83 1414.96 1833.29 1415.85C1829.75 1416.75 1825.16 1416.54 1819.53 1415.24C1813.7 1413.74 1808.45 1412.74 1803.77 1412.24C1799.1 1411.55 1794.81 1411.25 1790.9 1411.36C1781.91 1411.54 1776.69 1413.47 1775.24 1417.15C1774.39 1419.87 1775.01 1422.91 1777.08 1426.28C1779.15 1429.45 1780.46 1431.93 1781.01 1433.7C1781.55 1435.47 1781.12 1437.22 1779.72 1438.94C1778.31 1440.47 1776.64 1441.22 1774.68 1441.17C1772.73 1440.93 1770.69 1440.49 1768.56 1439.86C1766.23 1439.22 1764 1438.68 1761.86 1438.24C1759.72 1437.6 1757.67 1437.65 1755.7 1438.39C1753.73 1439.13 1752.44 1440.07 1751.82 1441.23C1751.21 1442.39 1750.21 1443.44 1748.82 1444.39C1745.64 1446.85 1740.16 1447.41 1732.37 1446.06C1724.39 1444.7 1717.87 1443.67 1712.81 1442.97C1707.75 1442.27 1704.04 1441.79 1701.71 1441.54C1699.18 1441.09 1696.95 1440.36 1695.02 1439.34C1693.09 1438.32 1691.36 1436.81 1689.85 1434.82C1686.44 1429.86 1685.32 1423.49 1686.48 1415.7C1692.18 1379.88 1694.31 1359.52 1692.86 1354.6C1692.32 1352.63 1691.78 1350.86 1691.23 1349.29C1686.07 1335.69 1694.16 1327.96 1715.5 1326.11ZM1692.08 1286.89C1688.29 1272.93 1691.02 1264.98 1700.24 1263.04C1703.58 1262.34 1706.32 1262.21 1708.46 1262.65C1710.6 1263.09 1712.94 1263.34 1715.47 1263.39L1724.26 1263.6C1732.27 1263.78 1737.92 1264.2 1741.23 1264.87C1744.34 1265.52 1748.05 1265.71 1752.35 1265.42C1756.66 1265.12 1760.75 1265.41 1764.64 1266.28C1768.53 1266.96 1771.17 1266.92 1772.55 1266.17C1773.94 1265.42 1775.03 1264.47 1775.84 1263.32C1777.05 1261.78 1777.68 1259.75 1777.74 1257.21C1777.84 1252.91 1775.95 1250.04 1772.08 1248.58C1770.34 1247.95 1767.41 1247.89 1763.29 1248.38C1758.99 1248.67 1754.79 1248.57 1750.7 1248.09C1746.61 1247.6 1742.89 1247.61 1739.56 1248.12C1736.04 1248.43 1732.32 1248.74 1728.4 1249.04C1724.5 1249.15 1720.49 1249.15 1716.39 1249.06C1706.82 1248.84 1700.79 1247.62 1698.3 1245.42C1695.82 1243.21 1694.04 1239.85 1692.97 1235.33C1691.71 1230.61 1691.14 1225.62 1691.26 1220.35C1691.54 1208.04 1694.46 1200 1700.02 1196.22C1702.41 1194.52 1704.77 1193.7 1707.11 1193.75C1709.46 1193.8 1711.31 1193.94 1712.67 1194.17C1713.84 1194.39 1715.3 1194.43 1717.06 1194.27C1721.76 1193.79 1726.44 1194.2 1731.1 1195.47C1735.76 1196.75 1740.33 1197.74 1744.81 1198.43C1749.29 1198.92 1754.16 1199.33 1759.43 1199.64C1768.2 1200.43 1777.57 1200.94 1787.53 1201.17C1805.3 1201.58 1816.51 1202.52 1821.16 1203.99C1831.05 1207.54 1838.55 1208.3 1843.68 1206.27C1845.06 1205.71 1846.72 1205.56 1848.67 1205.8C1850.43 1205.84 1852.38 1205.98 1854.52 1206.23C1856.47 1206.27 1858.43 1206.32 1860.38 1206.36C1862.33 1206.41 1864.59 1205.97 1867.15 1205.05C1872.46 1203.41 1877.99 1205.2 1883.73 1210.41C1885.64 1212.22 1889.04 1213.08 1893.93 1212.99C1898.62 1212.91 1902.13 1212.89 1904.48 1212.94C1906.62 1212.99 1908.27 1213.62 1909.42 1214.81C1910.37 1215.81 1911.39 1218.08 1912.48 1221.62C1913.58 1224.97 1914.27 1228.7 1914.57 1232.81C1915.31 1243.18 1913.11 1249.67 1907.97 1252.29C1903.62 1254.54 1895.11 1254.93 1882.45 1253.46C1869.59 1251.8 1859.94 1250.7 1853.51 1250.16C1847.08 1249.43 1842.59 1249.42 1840.03 1250.14C1837.47 1250.86 1835.88 1252.1 1835.26 1253.84C1834.63 1255.59 1834.39 1257.44 1834.54 1259.39C1834.83 1263.7 1836.04 1266.66 1838.15 1268.27C1842.64 1268.18 1848.89 1268.22 1856.9 1268.41C1864.71 1268.59 1872.62 1268.87 1880.62 1269.24C1900.33 1270.28 1910.75 1271.31 1911.9 1272.31C1913.25 1273.12 1914.19 1274.71 1914.72 1277.06C1915.26 1279.42 1915.49 1281.96 1915.43 1284.7C1915.67 1290.95 1914.51 1295.03 1911.92 1296.92C1909.53 1298.82 1907.64 1300.34 1906.25 1301.48C1904.86 1302.62 1903.84 1304.26 1903.21 1306.39C1902.38 1308.33 1901.18 1309.47 1899.61 1309.83C1898.04 1310.18 1896.08 1310.53 1893.73 1310.87C1888.24 1311.72 1884.82 1311.64 1883.47 1310.63C1881.94 1309.62 1879.9 1309.08 1877.36 1309.02C1874.82 1308.77 1873.26 1309.03 1872.65 1309.79C1871.85 1310.56 1869 1311.27 1864.1 1311.94C1859.21 1312.42 1853.73 1312.78 1847.67 1313.03C1841.61 1313.28 1835.84 1313.34 1830.37 1313.22C1824.71 1313.09 1820.53 1312.41 1817.82 1311.17C1811.63 1308.29 1805.59 1307.96 1799.67 1310.17C1793.77 1312.18 1789.15 1313.34 1785.82 1313.66C1782.3 1313.97 1779.17 1314.19 1776.43 1314.32C1769.2 1314.35 1764.6 1314.64 1762.64 1315.18C1760.67 1315.72 1758.02 1316.05 1754.7 1316.17C1751.18 1316.28 1747.47 1316.29 1743.56 1316.2C1739.66 1316.11 1735.66 1316.02 1731.56 1315.93C1727.46 1315.64 1722.87 1315.63 1717.78 1315.9C1712.7 1315.98 1707.63 1315.77 1702.56 1315.26C1697.5 1314.56 1693.63 1312.71 1690.96 1309.72C1688.3 1306.53 1686.73 1302.78 1686.24 1298.47C1685.76 1293.97 1687.7 1290.11 1692.08 1286.89ZM1738.22 1178.93L1721.54 1177.96C1718.81 1177.9 1716.07 1178.13 1713.32 1178.65C1710.58 1178.98 1707.76 1178.23 1704.87 1176.41C1701.79 1174.38 1699.13 1171.49 1696.87 1167.73C1694.61 1163.96 1693.53 1159.74 1693.64 1155.05C1693.75 1150.37 1694.62 1146.67 1696.24 1143.98C1697.87 1141.28 1699.19 1138.77 1700.22 1136.45C1701.25 1134.13 1702.1 1131.51 1702.75 1128.59C1703.87 1122.37 1703.13 1116.29 1700.53 1110.37C1697.56 1103.86 1697.87 1098.69 1701.47 1094.86C1701.76 1090.77 1701.47 1086.46 1700.6 1081.95C1699.21 1074.49 1699.23 1069.42 1700.66 1066.71C1704.31 1060.74 1711.36 1059.93 1721.81 1064.27C1723.36 1064.89 1724.72 1065.22 1725.89 1065.24C1727.06 1065.27 1728.24 1065.3 1729.41 1065.32C1732.92 1065.4 1735.55 1065.76 1737.29 1066.38C1739.04 1067.01 1740.5 1067.34 1741.67 1067.36C1742.84 1067.39 1744.21 1067.42 1745.77 1067.46C1748.9 1067.14 1751.92 1067.7 1754.81 1069.13C1756.55 1069.95 1758.01 1070.38 1759.18 1070.4C1760.16 1070.43 1761.13 1070.45 1762.11 1070.47C1764.65 1070.53 1767.06 1071.95 1769.34 1074.74C1773.92 1079.34 1776.18 1083.1 1776.11 1086.03C1776.1 1086.62 1775.89 1087.2 1775.48 1087.78C1775.08 1088.35 1774.67 1089.22 1774.25 1090.38C1772.58 1095.03 1771.49 1099.99 1770.98 1105.25C1770.47 1110.32 1770.49 1114.03 1771.02 1116.39C1772.05 1122.28 1774.8 1125.95 1779.26 1127.42C1783.91 1129.09 1787.53 1128.79 1790.13 1126.5C1791.32 1125.55 1792.13 1124.5 1792.54 1123.33C1792.96 1122.17 1793.08 1121.1 1792.91 1120.12C1792.55 1118.94 1792.58 1117.47 1793.01 1115.72C1793.45 1113.78 1793.98 1111.84 1794.61 1109.9C1795.9 1104.66 1796.18 1101.15 1795.44 1099.37C1794.51 1097.39 1794.15 1096.12 1794.35 1095.54C1794.57 1094.76 1794.87 1094.18 1795.27 1093.8C1796.67 1092.46 1797.38 1091.21 1797.41 1090.04C1797.29 1086.91 1798.7 1084.79 1801.66 1083.69C1804.42 1082.58 1807.83 1082.85 1811.9 1084.51C1812.48 1084.52 1813.94 1084.85 1816.27 1085.49C1820.93 1086.96 1824.13 1087.72 1825.89 1087.76C1827.65 1087.61 1829.5 1087.94 1831.43 1088.77C1833.17 1089.59 1834.71 1090.7 1836.05 1092.1C1838.9 1095.49 1839.69 1099.12 1838.43 1103C1837.61 1104.74 1836.5 1106.27 1835.1 1107.61C1831.95 1117.5 1832.47 1124.25 1836.69 1127.87C1838.99 1129.87 1841.01 1130.99 1842.77 1131.23C1844.52 1131.46 1847.64 1131.63 1852.13 1131.74L1862.97 1131.99C1864.78 1129.49 1866.89 1127.19 1869.28 1125.1C1871.48 1123 1872.71 1120.39 1872.98 1117.27C1873.24 1114.15 1873.11 1111.41 1872.58 1109.06C1871.86 1106.5 1871.13 1104.14 1870.4 1101.97C1868.55 1097.24 1868.36 1092.94 1869.82 1089.07C1871.08 1085.19 1872.79 1082.78 1874.96 1081.86C1877.13 1080.93 1879.97 1080.8 1883.47 1081.47C1886.97 1082.13 1889.6 1082.49 1891.36 1082.53C1892.93 1082.37 1894.39 1082.3 1895.76 1082.34C1899.08 1082.41 1902.27 1083.76 1905.34 1086.37C1909.37 1089.19 1911.85 1091.79 1912.78 1094.16C1913.5 1096.52 1913.63 1099.55 1913.15 1103.25C1912.48 1106.95 1912.61 1109.98 1913.53 1112.34C1914.26 1114.7 1915.28 1116.88 1916.6 1118.86C1917.93 1120.65 1919.16 1122.44 1920.29 1124.22C1922.18 1127.19 1922.1 1130.51 1920.06 1134.18C1919.25 1135.53 1918.44 1136.88 1917.62 1138.22C1915.79 1141.7 1914.91 1145.98 1914.98 1151.06C1915.26 1156.14 1913.79 1160.6 1910.57 1164.44C1907.16 1168.27 1903.11 1170.22 1898.42 1170.31C1893.74 1170.2 1890.43 1169.83 1888.49 1169.2C1886.35 1168.57 1884.71 1167.94 1883.55 1167.33C1881.03 1166.49 1879.07 1166.84 1877.66 1168.37C1873.84 1172.97 1868.93 1174.52 1862.9 1173.01C1859.79 1172.35 1857.37 1171.71 1855.62 1171.09C1853.88 1170.46 1852.02 1170.32 1850.06 1170.66C1847.91 1171.01 1846.05 1171.16 1844.48 1171.12C1842.73 1170.89 1841.07 1170.85 1839.51 1171.01C1836.37 1171.33 1834.58 1172.65 1834.14 1174.99C1833.68 1177.91 1830.51 1179.79 1824.63 1180.63C1818.94 1181.67 1813.29 1181.15 1807.67 1179.07C1802.06 1176.79 1797.69 1175.81 1794.55 1176.13C1791.22 1176.44 1788.19 1176.67 1785.45 1176.8L1774.04 1176.24C1768.37 1176.11 1764.55 1176.51 1762.58 1177.44C1760.6 1178.37 1757.77 1178.6 1754.07 1178.13C1750.17 1177.65 1747.24 1177.68 1745.27 1178.22C1743.11 1178.75 1740.76 1178.99 1738.22 1178.93Z" fill="white"/>
<path d="M2089.72 1350.32C2092 1355.85 2095.42 1358.62 2099.98 1358.62C2104.21 1358.62 2106.98 1359.43 2108.28 1361.06C2110.56 1364.64 2110.56 1371.48 2108.28 1381.57C2106.98 1387.43 2106.16 1391.98 2105.84 1395.24C2105.84 1398.49 2105.67 1401.26 2105.35 1403.54C2104.7 1407.45 2102.42 1411.68 2098.51 1416.23C2094.28 1419.82 2089.56 1422.42 2084.35 1424.05C2079.47 1425.35 2075.4 1426.33 2072.14 1426.98C2068.89 1427.95 2065.31 1429.42 2061.4 1431.37C2055.54 1434.3 2050.5 1435.6 2046.27 1435.28C2042.36 1434.95 2039.27 1434.63 2036.99 1434.3C2035.04 1434.3 2032.59 1434.79 2029.66 1435.77C2027.06 1436.74 2024.94 1437.07 2023.32 1436.74C2021.69 1436.74 2020.06 1436.42 2018.43 1435.77C2013.55 1433.81 2008.99 1432.84 2004.76 1432.84C1998.9 1432.84 1995 1423.07 1993.04 1403.54C1992.07 1395.73 1991.9 1388.24 1992.55 1381.08C1993.21 1373.92 1994.35 1369.36 1995.97 1367.41C1997.6 1365.13 1999.55 1363.66 2001.83 1363.01C2004.11 1362.04 2006.23 1361.38 2008.18 1361.06C2010.13 1360.41 2011.92 1359.92 2013.55 1359.59C2015.5 1358.62 2016.48 1355.2 2016.48 1349.34C2016.81 1343.15 2017.13 1337.46 2017.46 1332.25C2017.78 1317.93 2018.92 1307.84 2020.88 1301.98C2024.13 1293.19 2023.64 1285.7 2019.41 1279.52C2015.18 1272.03 2013.55 1258.03 2014.53 1237.52C2015.18 1225.15 2015.02 1215.06 2014.04 1207.25C2012.74 1191.95 2012.25 1181.21 2012.57 1175.02C2012.9 1170.47 2013.06 1166.89 2013.06 1164.28C2013.06 1161.68 2012.9 1159.72 2012.57 1158.42C2011.6 1155.82 2008.67 1154.52 2003.79 1154.52C1998.9 1154.19 1994.35 1151.91 1990.11 1147.68C1985.88 1143.45 1984.09 1136.77 1984.74 1127.66C1985.72 1118.55 1985.72 1110.24 1984.74 1102.76C1983.77 1095.27 1984.25 1089.41 1986.21 1085.18C1988.16 1080.95 1989.3 1077.37 1989.62 1074.44C1989.95 1071.51 1990.44 1068.9 1991.09 1066.62C1993.04 1061.42 1997.44 1058.49 2004.27 1057.84C2011.43 1057.18 2017.95 1057.35 2023.8 1058.32C2029.99 1058.98 2035.69 1059.95 2040.89 1061.25C2054.57 1064.51 2063.52 1066.14 2067.75 1066.14C2071.01 1066.14 2074.59 1065.81 2078.49 1065.16C2082.72 1064.18 2086.79 1063.37 2090.7 1062.72C2099.81 1061.09 2106.65 1061.58 2111.21 1064.18C2116.09 1066.79 2119.02 1069.88 2120 1073.46C2121.3 1077.04 2121.95 1080.95 2121.95 1085.18C2121.95 1089.09 2121.62 1093.32 2120.97 1097.88C2120.65 1102.43 2120.97 1107.32 2121.95 1112.52C2124.88 1124.24 2125.04 1133.85 2122.44 1141.33C2119.83 1148.49 2117.39 1152.89 2115.11 1154.52C2112.83 1155.82 2110.56 1156.63 2108.28 1156.96C2106.32 1157.28 2104.21 1157.61 2101.93 1157.93C2099.98 1157.93 2098.19 1159.07 2096.56 1161.35C2093.95 1165.58 2092.65 1181.86 2092.65 1210.18L2093.63 1291.72C2093.63 1312.56 2092.33 1332.09 2089.72 1350.32ZM2149.29 1153.05C2148.97 1148.82 2148.8 1144.59 2148.8 1140.36C2148.8 1136.12 2149.46 1131.24 2150.76 1125.71C2152.06 1119.85 2155.32 1114.64 2160.52 1110.08C2166.06 1105.2 2170.78 1100.48 2174.68 1095.92C2178.59 1091.04 2182.01 1086.16 2184.94 1081.27C2187.87 1076.39 2191.45 1072.48 2195.68 1069.55C2210.33 1059.46 2230.84 1055.56 2257.2 1057.84C2267.95 1058.81 2279.34 1062.72 2291.38 1069.55C2297.24 1072.81 2302.29 1078.83 2306.52 1087.62C2310.75 1096.08 2313.68 1101.94 2315.31 1105.2C2316.94 1108.45 2319.05 1110.9 2321.66 1112.52C2324.26 1113.83 2326.54 1115.78 2328.49 1118.38C2330.77 1120.99 2333.05 1125.22 2335.33 1131.08C2337.93 1136.61 2340.21 1143.12 2342.16 1150.61C2347.37 1167.86 2349.65 1182.35 2349 1194.07C2348.35 1205.79 2347.86 1217.67 2347.54 1229.71C2346.88 1251.2 2344.77 1266.66 2341.19 1276.1C2337.61 1285.54 2334.84 1293.51 2332.89 1300.02C2331.26 1306.21 2330.28 1311.9 2329.96 1317.11C2329.63 1322.32 2329.47 1327.37 2329.47 1332.25C2328.82 1345.27 2327.84 1353.08 2326.54 1355.69C2325.56 1358.29 2323.77 1360.9 2321.17 1363.5C2318.56 1366.1 2315.63 1368.71 2312.38 1371.31C2309.45 1373.59 2306.52 1375.87 2303.59 1378.15C2300.66 1380.43 2298.54 1382.38 2297.24 1384.01C2295.94 1385.31 2294.31 1387.26 2292.36 1389.87C2290.73 1392.47 2288.94 1395.24 2286.99 1398.17C2285.36 1401.1 2283.73 1403.86 2282.11 1406.47C2280.8 1408.75 2279.83 1410.54 2279.18 1411.84C2278.52 1412.82 2277.39 1414.77 2275.76 1417.7C2274.13 1420.63 2272.18 1423.72 2269.9 1426.98C2257.2 1442.6 2245.16 1443.25 2233.77 1428.93C2232.79 1427.3 2231.16 1426.49 2228.88 1426.49C2226.93 1426.49 2224.49 1427.14 2221.56 1428.44C2218.95 1430.07 2215.21 1430.07 2210.33 1428.44C2205.45 1426.81 2201.54 1424.21 2198.61 1420.63C2196.01 1416.72 2193.4 1413.63 2190.8 1411.35C2188.52 1409.07 2186.24 1407.28 2183.96 1405.98C2181.68 1404.68 2179.4 1403.54 2177.12 1402.56C2170.94 1399.31 2167.68 1396.7 2167.36 1394.75C2167.03 1392.47 2166.71 1390.36 2166.38 1388.4C2166.38 1386.45 2166.06 1384.01 2165.41 1381.08C2162.8 1365.45 2156.45 1343.32 2146.36 1314.67C2138.55 1293.19 2136.43 1270.89 2140.02 1247.78C2142.62 1230.85 2145.06 1216.69 2147.34 1205.3C2150.92 1188.04 2152.22 1176 2151.25 1169.16C2150.6 1162.33 2149.94 1156.96 2149.29 1153.05ZM2244.02 1180.88C2238.16 1181.21 2234.25 1183.49 2232.3 1187.72C2230.35 1191.62 2228.88 1195.53 2227.91 1199.44C2226.93 1203.02 2225.63 1205.95 2224 1208.23C2222.7 1210.51 2221.4 1212.78 2220.09 1215.06C2214.56 1223.2 2213.91 1231.66 2218.14 1240.45C2224.33 1253.15 2227.58 1261.61 2227.91 1265.84C2228.23 1269.75 2228.56 1275.61 2228.88 1283.42C2229.21 1290.91 2229.86 1298.72 2230.84 1306.86C2233.77 1327.37 2238.16 1337.62 2244.02 1337.62C2247.27 1337.62 2250.37 1333.88 2253.3 1326.39C2253.95 1324.76 2254.27 1322 2254.27 1318.09C2254.6 1314.18 2255.25 1309.63 2256.23 1304.42C2259.81 1285.86 2261.11 1273.01 2260.13 1265.84C2259.48 1258.68 2258.99 1252.33 2258.67 1246.8C2258.67 1241.27 2258.67 1235.57 2258.67 1229.71V1199.93C2258.67 1192.76 2257.69 1187.72 2255.74 1184.79C2254.11 1181.53 2250.2 1180.23 2244.02 1180.88Z" fill="white"/>
</svg>
