<svg width="250" height="240" viewBox="0 0 250 240" fill="none" xmlns="http://www.w3.org/2000/svg">
<path d="M98.6016 20.5762C114.221 9.67952 134.979 9.67951 150.599 20.5762L212.747 63.9316C229.324 75.4958 236.27 96.6194 229.791 115.765L206.852 183.556C200.607 202.01 183.291 214.431 163.809 214.431H85.3916C65.9088 214.431 48.5936 202.01 42.3487 183.556L19.4092 115.765C12.9306 96.6194 19.8765 75.4958 36.4532 63.9316L98.6016 20.5762Z" fill="#D9D9D9" stroke="black" stroke-width="4"/>
<path d="M104.687 59.8988C116.651 51.5491 132.554 51.5491 144.518 59.8988L175.503 81.522C188.193 90.3785 193.511 106.551 188.552 121.211L177.297 154.482C172.516 168.617 159.254 178.131 144.332 178.131H104.873C89.9505 178.131 76.6892 168.617 71.9077 154.482L60.6533 121.211C55.6945 106.551 61.0119 90.3785 73.7025 81.522L104.687 59.8988Z" fill="#E9E7E7"/>
</svg>
