<svg width="199" height="181" viewBox="0 0 199 181" fill="none" xmlns="http://www.w3.org/2000/svg">
<path d="M118.621 2C139.931 2.00017 157.802 16.7135 162.637 36.5352C182.336 41.4561 196.929 59.2688 196.929 80.4922C196.929 88.7442 194.721 96.4797 190.866 103.144C194.721 109.808 196.929 117.544 196.929 125.797C196.929 150.82 176.644 171.104 151.621 171.104C147.598 171.104 143.697 170.577 139.983 169.593C132.545 174.943 123.421 178.097 113.559 178.097C102.863 178.097 93.0353 174.389 85.2852 168.191C85.1018 168.139 84.9191 168.086 84.7363 168.032C79.6429 170.015 74.1032 171.104 68.3086 171.104C44.4488 171.104 24.8961 152.662 23.1299 129.254C10.4333 121.226 2.00013 107.066 2 90.9336C2 74.7925 10.4415 60.6241 23.1494 52.5986C23.0514 51.382 23 50.152 23 48.9102C23 23.8871 43.2855 3.60156 68.3086 3.60156C77.1059 3.60163 85.3161 6.11124 92.2666 10.4502C99.6919 5.13152 108.791 2 118.621 2Z" fill="#437C39"/>
<path d="M118.621 2L118.621 0H118.621V2ZM162.637 36.5352L160.694 37.0091L160.98 38.1827L162.152 38.4755L162.637 36.5352ZM196.929 80.4922L198.929 80.4922V80.4922H196.929ZM190.866 103.144L189.135 102.142L188.556 103.144L189.135 104.145L190.866 103.144ZM196.929 125.797L198.929 125.797V125.797H196.929ZM151.621 171.104V173.104H151.621L151.621 171.104ZM139.983 169.593L140.496 167.66L139.583 167.417L138.816 167.969L139.983 169.593ZM113.559 178.097V180.097H113.559L113.559 178.097ZM85.2852 168.191L86.5342 166.629L86.2193 166.378L85.8314 166.267L85.2852 168.191ZM84.7363 168.032L85.2969 166.112L84.6444 165.922L84.0109 166.168L84.7363 168.032ZM68.3086 171.104V173.104H68.3086L68.3086 171.104ZM23.1299 129.254L25.1242 129.103L25.0486 128.101L24.1987 127.563L23.1299 129.254ZM2 90.9336H0V90.9336L2 90.9336ZM23.1494 52.5986L24.2173 54.2896L25.2401 53.6437L25.143 52.438L23.1494 52.5986ZM23 48.9102H21V48.9102L23 48.9102ZM68.3086 3.60156L68.3086 1.60156H68.3086V3.60156ZM92.2666 10.4502L91.2075 12.1467L92.343 12.8556L93.4312 12.0761L92.2666 10.4502ZM118.621 2L118.621 4C138.988 4.00016 156.072 18.062 160.694 37.0091L162.637 36.5352L164.58 36.0612C159.532 15.3649 140.875 0.000174165 118.621 0L118.621 2ZM162.637 36.5352L162.152 38.4755C180.982 43.1793 194.929 60.2085 194.929 80.4922H196.929H198.929C198.929 58.3291 183.69 39.7328 163.121 34.5948L162.637 36.5352ZM196.929 80.4922L194.929 80.4922C194.929 88.3829 192.818 95.7742 189.135 102.142L190.866 103.144L192.597 104.145C196.623 97.1852 198.929 89.1055 198.929 80.4922L196.929 80.4922ZM190.866 103.144L189.135 104.145C192.819 110.513 194.929 117.906 194.929 125.797H196.929H198.929C198.929 117.183 196.624 109.102 192.597 102.142L190.866 103.144ZM196.929 125.797L194.929 125.797C194.929 149.715 175.539 169.104 151.621 169.104L151.621 171.104L151.621 173.104C177.748 173.104 198.929 151.924 198.929 125.797L196.929 125.797ZM151.621 171.104V169.104C147.773 169.104 144.045 168.6 140.496 167.66L139.983 169.593L139.471 171.526C143.35 172.554 147.422 173.104 151.621 173.104V171.104ZM139.983 169.593L138.816 167.969C131.706 173.083 122.987 176.097 113.559 176.097L113.559 178.097L113.559 180.097C123.854 180.097 133.384 176.803 141.151 171.216L139.983 169.593ZM113.559 178.097V176.097C103.334 176.097 93.9429 172.554 86.5342 166.629L85.2852 168.191L84.0361 169.753C92.1277 176.224 102.393 180.097 113.559 180.097V178.097ZM85.2852 168.191L85.8314 166.267C85.6574 166.218 85.4852 166.167 85.2969 166.112L84.7363 168.032L84.1757 169.952C84.353 170.004 84.5463 170.061 84.739 170.115L85.2852 168.191ZM84.7363 168.032L84.0109 166.168C79.1446 168.063 73.8506 169.104 68.3086 169.104L68.3086 171.104L68.3086 173.104C74.3558 173.104 80.1413 171.967 85.4618 169.896L84.7363 168.032ZM68.3086 171.104V169.104C45.5029 169.104 26.8123 151.476 25.1242 129.103L23.1299 129.254L21.1356 129.404C22.9799 153.848 43.3947 173.104 68.3086 173.104V171.104ZM23.1299 129.254L24.1987 127.563C12.0572 119.887 4.00012 106.351 4 90.9336L2 90.9336L0 90.9336C0.000131845 107.781 8.80945 122.566 22.0611 130.944L23.1299 129.254ZM2 90.9336H4C4 75.5074 12.065 61.9642 24.2173 54.2896L23.1494 52.5986L22.0815 50.9076C8.81788 59.284 0 74.0777 0 90.9336H2ZM23.1494 52.5986L25.143 52.438C25.0491 51.2732 25 50.0968 25 48.9101L23 48.9102L21 48.9102C21 50.2072 21.0537 51.4908 21.1559 52.7593L23.1494 52.5986ZM23 48.9102H25C25 24.9917 44.3901 5.60156 68.3086 5.60156V3.60156V1.60156C42.181 1.60156 21 22.7825 21 48.9102H23ZM68.3086 3.60156L68.3086 5.60156C76.7202 5.60163 84.5651 8.00009 91.2075 12.1467L92.2666 10.4502L93.3257 8.75364C86.0672 4.22238 77.4916 1.60163 68.3086 1.60156L68.3086 3.60156ZM92.2666 10.4502L93.4312 12.0761C100.528 6.99256 109.222 4 118.621 4V2V0C108.359 0 98.8555 3.27048 91.102 8.82427L92.2666 10.4502Z" fill="black"/>
<circle cx="104.695" cy="93.0036" r="42.945" fill="#518B47"/>
<circle cx="83.4311" cy="67.6967" r="25.3061" fill="#518B47"/>
<circle cx="111.556" cy="66.8022" r="25.3061" fill="#518B47"/>
<circle cx="129.994" cy="85.3334" r="25.3061" fill="#518B47"/>
<circle cx="129.994" cy="110.642" r="25.3061" fill="#518B47"/>
<circle cx="108.744" cy="114.544" r="25.3061" fill="#518B47"/>
<circle cx="83.4311" cy="110.642" r="25.3061" fill="#518B47"/>
<circle cx="71.6811" cy="91.1693" r="25.3061" fill="#518B47"/>
</svg>
