<svg width="2487" height="2252" viewBox="0 0 2487 2252" fill="none" xmlns="http://www.w3.org/2000/svg">
<path d="M1482.99 25C1749.34 25 1972.74 208.862 2033.21 456.588C2279.52 518.048 2462 740.772 2462 1006.12C2462 1109.28 2434.42 1205.99 2386.23 1289.29C2434.42 1372.6 2462 1469.31 2462 1572.47C2462 1885.26 2208.44 2138.82 1895.65 2138.82C1845.34 2138.82 1796.57 2132.26 1750.13 2119.95C1657.16 2186.82 1543.09 2226.2 1419.83 2226.2C1286.15 2226.2 1163.3 2179.88 1066.43 2102.43C1063.99 2101.74 1061.55 2101.04 1059.12 2100.33C995.375 2125.18 926.018 2138.82 853.476 2138.82C555.15 2138.82 310.699 1908.17 288.73 1615.46C130.229 1515.07 25 1338.15 25 1136.65C25 935.043 130.344 758.037 288.991 657.678C287.754 642.4 287.122 626.951 287.122 611.354C287.122 298.567 540.688 45.002 853.476 45.002C963.586 45.002 1066.36 76.4259 1153.31 130.794C1246.17 64.2037 1360 25 1482.99 25Z" fill="#437C39"/>
<path d="M2033.21 456.588L2008.92 462.516L2012.51 477.188L2027.16 480.844L2033.21 456.588ZM2462 1006.12L2487 1006.12L2487 1006.12L2462 1006.12ZM2386.23 1289.29L2364.59 1276.78L2357.35 1289.29L2364.59 1301.81L2386.23 1289.29ZM2462 1572.47L2487 1572.47V1572.47H2462ZM1895.65 2138.82L1895.65 2163.82H1895.65V2138.82ZM1750.13 2119.95L1756.54 2095.79L1745.13 2092.76L1735.54 2099.66L1750.13 2119.95ZM1419.83 2226.2L1419.83 2251.2H1419.83V2226.2ZM1066.43 2102.43L1082.04 2082.91L1078.1 2079.76L1073.25 2078.38L1066.43 2102.43ZM1059.12 2100.33L1066.14 2076.33L1057.97 2073.94L1050.04 2077.04L1059.12 2100.33ZM853.476 2138.82L853.476 2163.82L853.476 2163.82L853.476 2138.82ZM288.73 1615.46L313.66 1613.59L312.72 1601.06L302.107 1594.34L288.73 1615.46ZM25 1136.65L0 1136.65L0 1136.65L25 1136.65ZM288.991 657.678L302.356 678.805L315.129 670.725L313.91 655.661L288.991 657.678ZM287.122 611.354L262.122 611.354V611.354H287.122ZM853.476 45.002L853.476 20.002H853.476V45.002ZM1153.31 130.794L1140.06 151.992L1154.26 160.874L1167.88 151.11L1153.31 130.794ZM1482.99 25V50C1737.55 50 1951.13 225.724 2008.92 462.516L2033.21 456.588L2057.5 450.66C1994.36 192 1761.13 0 1482.99 0V25ZM2033.21 456.588L2027.16 480.844C2262.6 539.592 2437 752.519 2437 1006.12L2462 1006.12L2487 1006.12C2487 729.025 2296.44 496.504 2039.26 432.332L2033.21 456.588ZM2462 1006.12H2437C2437 1104.76 2410.64 1197.17 2364.59 1276.78L2386.23 1289.29L2407.87 1301.81C2458.2 1214.81 2487 1113.79 2487 1006.12H2462ZM2386.23 1289.29L2364.59 1301.81C2410.64 1381.41 2437 1473.83 2437 1572.47H2462H2487C2487 1464.8 2458.2 1363.78 2407.87 1276.78L2386.23 1289.29ZM2462 1572.47L2437 1572.47C2437 1871.45 2194.63 2113.82 1895.65 2113.82V2138.82V2163.82C2222.24 2163.82 2487 1899.07 2487 1572.47L2462 1572.47ZM1895.65 2138.82L1895.65 2113.82C1847.52 2113.82 1800.9 2107.55 1756.54 2095.79L1750.13 2119.95L1743.73 2144.12C1792.23 2156.98 1843.16 2163.82 1895.65 2163.82L1895.65 2138.82ZM1750.13 2119.95L1735.54 2099.66C1646.67 2163.56 1537.68 2201.2 1419.83 2201.2V2226.2V2251.2C1548.5 2251.2 1667.64 2210.07 1764.73 2140.25L1750.13 2119.95ZM1419.83 2226.2L1419.83 2201.2C1292.03 2201.2 1174.64 2156.94 1082.04 2082.91L1066.43 2102.43L1050.81 2121.96C1151.96 2202.83 1280.28 2251.2 1419.83 2251.2L1419.83 2226.2ZM1066.43 2102.43L1073.25 2078.38C1070.87 2077.71 1068.5 2077.02 1066.14 2076.33L1059.12 2100.33L1052.11 2124.32C1054.6 2125.05 1057.1 2125.77 1059.6 2126.48L1066.43 2102.43ZM1059.12 2100.33L1050.04 2077.04C989.141 2100.78 922.861 2113.82 853.476 2113.82L853.476 2138.82L853.476 2163.82C929.176 2163.82 1001.61 2149.58 1068.2 2123.62L1059.12 2100.33ZM853.476 2138.82V2113.82C568.331 2113.82 334.657 1893.35 313.66 1613.59L288.73 1615.46L263.801 1617.33C286.741 1922.98 541.97 2163.82 853.476 2163.82V2138.82ZM288.73 1615.46L302.107 1594.34C150.538 1498.34 50 1329.23 50 1136.65L25 1136.65L0 1136.65C4.44054e-05 1347.07 109.92 1531.8 275.354 1636.58L288.73 1615.46ZM25 1136.65H50C50 943.969 150.648 774.775 302.356 678.805L288.991 657.678L275.626 636.55C110.04 741.299 0 926.116 0 1136.65H25ZM288.991 657.678L313.91 655.661C312.727 641.051 312.122 626.275 312.122 611.354H287.122H262.122C262.122 627.627 262.782 643.749 264.073 659.695L288.991 657.678ZM287.122 611.354L312.122 611.355C312.122 312.374 554.495 70.002 853.476 70.002V45.002V20.002C526.881 20.002 262.122 284.759 262.122 611.354L287.122 611.354ZM853.476 45.002L853.476 70.002C958.764 70.002 1056.96 100.036 1140.06 151.992L1153.31 130.794L1166.57 109.596C1075.75 52.8161 968.409 20.002 853.476 20.002L853.476 45.002ZM1153.31 130.794L1167.88 151.11C1256.64 87.4644 1365.4 50 1482.99 50V25V0C1354.61 0 1235.71 40.9429 1138.74 110.478L1153.31 130.794Z" fill="black"/>
<circle cx="1308.26" cy="1162.54" r="536.813" fill="#518B47"/>
<circle cx="1042.5" cy="846.214" r="316.326" fill="#518B47"/>
<circle cx="1394.11" cy="835.042" r="316.326" fill="#518B47"/>
<circle cx="1624.59" cy="1066.7" r="316.326" fill="#518B47"/>
<circle cx="1624.59" cy="1383.03" r="316.326" fill="#518B47"/>
<circle cx="1358.83" cy="1431.83" r="316.326" fill="#518B47"/>
<circle cx="1042.5" cy="1383.03" r="316.326" fill="#518B47"/>
<circle cx="896.099" cy="1139.61" r="316.326" fill="#518B47"/>
</svg>
