<svg width="3080" height="3080" viewBox="0 0 3080 3080" fill="none" xmlns="http://www.w3.org/2000/svg">
<g filter="url(#filter0_d_95_98)">
<rect x="4" width="3072" height="3072" rx="250" fill="#D9D9D9"/>
<rect x="29" y="25" width="3022" height="3022" rx="225" stroke="black" stroke-width="50"/>
</g>
<path d="M751.38 1126.36C968.159 1126.36 1143.89 950.625 1143.89 733.846C1143.89 517.068 968.159 341.334 751.38 341.334C534.602 341.334 358.868 517.068 358.868 733.846C358.868 950.625 534.602 1126.36 751.38 1126.36Z" fill="#DDA95E" stroke="black" stroke-width="50" stroke-miterlimit="10"/>
<path d="M704.846 1708.03C921.625 1708.03 1097.36 1532.3 1097.36 1315.52C1097.36 1098.74 921.625 923.006 704.846 923.006C488.068 923.006 312.334 1098.74 312.334 1315.52C312.334 1532.3 488.068 1708.03 704.846 1708.03Z" fill="#DDA95E" stroke="black" stroke-width="50" stroke-miterlimit="10"/>
<path d="M751.38 2801.57C968.159 2801.57 1143.89 2625.84 1143.89 2409.06C1143.89 2192.28 968.159 2016.55 751.38 2016.55C534.602 2016.55 358.868 2192.28 358.868 2409.06C358.868 2625.84 534.602 2801.57 751.38 2801.57Z" fill="#DDA95E" stroke="black" stroke-width="50" stroke-miterlimit="10"/>
<path d="M588.512 2312.97C805.29 2312.97 981.024 2137.23 981.024 1920.46C981.024 1703.68 805.29 1527.94 588.512 1527.94C371.734 1527.94 196 1703.68 196 1920.46C196 2137.23 371.734 2312.97 588.512 2312.97Z" fill="#DDA95E" stroke="black" stroke-width="50" stroke-miterlimit="10"/>
<path d="M1379.59 2778.31C1596.36 2778.31 1772.1 2602.57 1772.1 2385.79C1772.1 2169.01 1596.36 1993.28 1379.59 1993.28C1162.81 1993.28 987.073 2169.01 987.073 2385.79C987.073 2602.57 1162.81 2778.31 1379.59 2778.31Z" fill="#DDA95E" stroke="black" stroke-width="50" stroke-miterlimit="10"/>
<path d="M2333.53 2778.31C2550.31 2778.31 2726.04 2602.57 2726.04 2385.79C2726.04 2169.01 2550.31 1993.28 2333.53 1993.28C2116.75 1993.28 1941.01 2169.01 1941.01 2385.79C1941.01 2602.57 2116.75 2778.31 2333.53 2778.31Z" fill="#DDA95E" stroke="black" stroke-width="50" stroke-miterlimit="10"/>
<path d="M1170.18 2266.43C1386.96 2266.43 1562.7 2090.7 1562.7 1873.92C1562.7 1657.14 1386.96 1481.41 1170.18 1481.41C953.405 1481.41 777.671 1657.14 777.671 1873.92C777.671 2090.7 953.405 2266.43 1170.18 2266.43Z" fill="#DDA95E" stroke="black" stroke-width="50" stroke-miterlimit="10"/>
<path d="M1030.58 1452.09C1247.36 1452.09 1423.09 1276.36 1423.09 1059.58C1423.09 842.804 1247.36 667.07 1030.58 667.07C813.804 667.07 638.07 842.804 638.07 1059.58C638.07 1276.36 813.804 1452.09 1030.58 1452.09Z" fill="#DDA95E" stroke="black" stroke-width="50" stroke-miterlimit="10"/>
<path d="M1775.12 1010.02C1991.9 1010.02 2167.63 834.29 2167.63 617.512C2167.63 400.734 1991.9 225 1775.12 225C1558.34 225 1382.61 400.734 1382.61 617.512C1382.61 834.29 1558.34 1010.02 1775.12 1010.02Z" fill="#DDA95E" stroke="black" stroke-width="50" stroke-miterlimit="10"/>
<path d="M1379.59 1079.82C1596.36 1079.82 1772.1 904.091 1772.1 687.313C1772.1 470.534 1596.36 294.801 1379.59 294.801C1162.81 294.801 987.073 470.534 987.073 687.313C987.073 904.091 1162.81 1079.82 1379.59 1079.82Z" fill="#DDA95E" stroke="black" stroke-width="50" stroke-miterlimit="10"/>
<path d="M2496.39 1126.36C2713.17 1126.36 2888.91 950.625 2888.91 733.846C2888.91 517.068 2713.17 341.334 2496.39 341.334C2279.62 341.334 2103.88 517.068 2103.88 733.846C2103.88 950.625 2279.62 1126.36 2496.39 1126.36Z" fill="#DDA95E" stroke="black" stroke-width="50" stroke-miterlimit="10"/>
<path d="M2263.73 1801.1C2480.5 1801.1 2656.24 1625.36 2656.24 1408.59C2656.24 1191.81 2480.5 1016.07 2263.73 1016.07C2046.95 1016.07 1871.21 1191.81 1871.21 1408.59C1871.21 1625.36 2046.95 1801.1 2263.73 1801.1Z" fill="#DDA95E" stroke="black" stroke-width="50" stroke-miterlimit="10"/>
<path d="M2170.66 1219.43C2387.44 1219.43 2563.17 1043.69 2563.17 826.914C2563.17 610.136 2387.44 434.402 2170.66 434.402C1953.88 434.402 1778.15 610.136 1778.15 826.914C1778.15 1043.69 1953.88 1219.43 2170.66 1219.43Z" fill="#DDA95E" stroke="black" stroke-width="50" stroke-miterlimit="10"/>
<path d="M2519.66 1917.43C2736.44 1917.43 2912.17 1741.7 2912.17 1524.92C2912.17 1308.14 2736.44 1132.41 2519.66 1132.41C2302.88 1132.41 2127.15 1308.14 2127.15 1524.92C2127.15 1741.7 2302.88 1917.43 2519.66 1917.43Z" fill="#DDA95E" stroke="black" stroke-width="50" stroke-miterlimit="10"/>
<path d="M1705.32 1428.83C1922.1 1428.83 2097.83 1253.09 2097.83 1036.32C2097.83 819.537 1922.1 643.803 1705.32 643.803C1488.54 643.803 1312.81 819.537 1312.81 1036.32C1312.81 1253.09 1488.54 1428.83 1705.32 1428.83Z" fill="#DDA95E" stroke="black" stroke-width="50" stroke-miterlimit="10"/>
<path d="M2054.32 1731.3C2271.1 1731.3 2446.84 1555.56 2446.84 1338.78C2446.84 1122.01 2271.1 946.272 2054.32 946.272C1837.55 946.272 1661.81 1122.01 1661.81 1338.78C1661.81 1555.56 1837.55 1731.3 2054.32 1731.3Z" fill="#DDA95E" stroke="black" stroke-width="50" stroke-miterlimit="10"/>
<path d="M2380.06 2429.3C2596.84 2429.3 2772.57 2253.57 2772.57 2036.79C2772.57 1820.01 2596.84 1644.28 2380.06 1644.28C2163.28 1644.28 1987.55 1820.01 1987.55 2036.79C1987.55 2253.57 2163.28 2429.3 2380.06 2429.3Z" fill="#DDA95E" stroke="black" stroke-width="50" stroke-miterlimit="10"/>
<path d="M1775.12 2755.04C1991.9 2755.04 2167.63 2579.3 2167.63 2362.53C2167.63 2145.75 1991.9 1970.01 1775.12 1970.01C1558.34 1970.01 1382.61 2145.75 1382.61 2362.53C1382.61 2579.3 1558.34 2755.04 1775.12 2755.04Z" fill="#DDA95E" stroke="black" stroke-width="50" stroke-miterlimit="10"/>
<path d="M1333.05 1731.3C1549.83 1731.3 1725.56 1555.56 1725.56 1338.78C1725.56 1122.01 1549.83 946.272 1333.05 946.272C1116.27 946.272 940.54 1122.01 940.54 1338.78C940.54 1555.56 1116.27 1731.3 1333.05 1731.3Z" fill="#DDA95E" stroke="black" stroke-width="50" stroke-miterlimit="10"/>
<path d="M1821.66 2196.63C2038.43 2196.63 2214.17 2020.9 2214.17 1804.12C2214.17 1587.34 2038.43 1411.61 1821.66 1411.61C1604.88 1411.61 1429.14 1587.34 1429.14 1804.12C1429.14 2020.9 1604.88 2196.63 1821.66 2196.63Z" fill="#DDA95E" stroke="black" stroke-width="50" stroke-miterlimit="10"/>
<defs>
<filter id="filter0_d_95_98" x="0" y="0" width="3080" height="3080" filterUnits="userSpaceOnUse" color-interpolation-filters="sRGB">
<feFlood flood-opacity="0" result="BackgroundImageFix"/>
<feColorMatrix in="SourceAlpha" type="matrix" values="0 0 0 0 0 0 0 0 0 0 0 0 0 0 0 0 0 0 127 0" result="hardAlpha"/>
<feOffset dy="4"/>
<feGaussianBlur stdDeviation="2"/>
<feComposite in2="hardAlpha" operator="out"/>
<feColorMatrix type="matrix" values="0 0 0 0 0 0 0 0 0 0 0 0 0 0 0 0 0 0 0.25 0"/>
<feBlend mode="normal" in2="BackgroundImageFix" result="effect1_dropShadow_95_98"/>
<feBlend mode="normal" in="SourceGraphic" in2="effect1_dropShadow_95_98" result="shape"/>
</filter>
</defs>
</svg>
