<svg width="2744" height="2744" viewBox="0 0 2744 2744" fill="none" xmlns="http://www.w3.org/2000/svg">
<circle cx="1372" cy="1372" r="1347" fill="#D9D9D9" stroke="black" stroke-width="50"/>
<circle cx="1371.5" cy="2406.5" r="312.5" fill="#FF931E" stroke="black" stroke-width="50"/>
<circle cx="2098.5" cy="2069.5" r="312.5" fill="#FF931E" stroke="black" stroke-width="50"/>
<circle cx="2144.5" cy="673.5" r="312.5" fill="#FF931E" stroke="black" stroke-width="50"/>
<circle cx="598.5" cy="675.5" r="312.5" fill="#FF931E" stroke="black" stroke-width="50"/>
<circle cx="674.5" cy="2144.5" r="312.5" fill="#FF931E" stroke="black" stroke-width="50"/>
<circle cx="1371.5" cy="337.5" r="312.5" fill="#FF931E" stroke="black" stroke-width="50"/>
<circle cx="2406.5" cy="1371.5" r="312.5" fill="#FF931E" stroke="black" stroke-width="50"/>
<circle cx="337.5" cy="1371.5" r="312.5" fill="#FF931E" stroke="black" stroke-width="50"/>
<mask id="path-10-inside-1_110_28" fill="white">
<path d="M1372 361C1930.36 361 2383 813.64 2383 1372C2383 1930.36 1930.36 2383 1372 2383C813.64 2383 361 1930.36 361 1372C361 813.64 813.64 361 1372 361ZM1372 725.16C1014.76 725.16 725.16 1014.76 725.16 1372C725.16 1729.24 1014.76 2018.84 1372 2018.84C1729.24 2018.84 2018.84 1729.24 2018.84 1372C2018.84 1014.76 1729.24 725.16 1372 725.16Z"/>
</mask>
<path d="M1372 361C1930.36 361 2383 813.64 2383 1372C2383 1930.36 1930.36 2383 1372 2383C813.64 2383 361 1930.36 361 1372C361 813.64 813.64 361 1372 361ZM1372 725.16C1014.76 725.16 725.16 1014.76 725.16 1372C725.16 1729.24 1014.76 2018.84 1372 2018.84C1729.24 2018.84 2018.84 1729.24 2018.84 1372C2018.84 1014.76 1729.24 725.16 1372 725.16Z" fill="#BCBCBC"/>
<path d="M1372 361V411C1902.75 411 2333 841.254 2333 1372H2383H2433C2433 786.026 1957.97 311 1372 311V361ZM2383 1372H2333C2333 1902.75 1902.75 2333 1372 2333V2383V2433C1957.97 2433 2433 1957.97 2433 1372H2383ZM1372 2383V2333C841.254 2333 411 1902.75 411 1372H361H311C311 1957.97 786.026 2433 1372 2433V2383ZM361 1372H411C411 841.254 841.254 411 1372 411V361V311C786.026 311 311 786.026 311 1372H361ZM1372 725.16V675.16C987.146 675.16 675.16 987.146 675.16 1372H725.16H775.16C775.16 1042.37 1042.37 775.16 1372 775.16V725.16ZM725.16 1372H675.16C675.16 1756.85 987.146 2068.84 1372 2068.84V2018.84V1968.84C1042.37 1968.84 775.16 1701.63 775.16 1372H725.16ZM1372 2018.84V2068.84C1756.85 2068.84 2068.84 1756.85 2068.84 1372H2018.84H1968.84C1968.84 1701.63 1701.63 1968.84 1372 1968.84V2018.84ZM2018.84 1372H2068.84C2068.84 987.146 1756.85 675.16 1372 675.16V725.16V775.16C1701.63 775.16 1968.84 1042.37 1968.84 1372H2018.84Z" fill="black" mask="url(#path-10-inside-1_110_28)"/>
</svg>
