<svg width="3115" height="2991" viewBox="0 0 3115 2991" fill="none" xmlns="http://www.w3.org/2000/svg">
<path d="M1232.52 257.197C1427.76 120.989 1687.24 120.988 1882.48 257.196L2659.34 799.149C2866.55 943.702 2953.37 1207.74 2872.39 1447.06L2585.64 2294.45C2507.58 2525.13 2291.14 2680.38 2047.61 2680.38H1067.39C823.857 2680.38 607.422 2525.13 529.36 2294.45L242.611 1447.06C161.629 1207.74 248.452 943.702 455.659 799.149L1232.52 257.197Z" fill="#D9D9D9" stroke="black" stroke-width="50"/>
<path d="M1308.55 748.735C1458.11 644.364 1656.89 644.363 1806.45 748.735L2193.75 1019.02C2352.38 1129.73 2418.85 1331.89 2356.87 1515.13L2216.19 1931.02C2156.42 2107.71 1990.65 2226.63 1804.12 2226.63H1310.88C1124.35 2226.63 958.583 2107.71 898.814 1931.02L758.134 1515.13C696.15 1331.89 762.618 1129.73 921.25 1019.02L1308.55 748.735Z" fill="#E9E7E7"/>
</svg>
