<svg width="173" height="190" viewBox="0 0 173 190" fill="none" xmlns="http://www.w3.org/2000/svg">
<rect x="78.3025" y="189.281" width="127.535" height="9.5703" transform="rotate(-90 78.3025 189.281)" fill="#A19C94"/>
<rect x="70.6775" y="61.7461" width="9.5703" height="24.7579" transform="rotate(-90 70.6775 61.7461)" fill="#6C6963"/>
<path d="M83.0689 0L99.1047 53.1747L67.0332 53.1747L83.0689 0Z" fill="#A19C94"/>
<rect x="0.0527344" y="152.547" width="172.481" height="6.89923" fill="white"/>
<path d="M86.2402 68.5469C133.87 68.5469 172.48 106.122 172.48 152.473C172.48 152.497 172.48 152.522 172.48 152.547H161.918C161.918 152.526 161.918 152.505 161.918 152.484C161.918 111.844 128.064 78.8984 86.3027 78.8984C44.5418 78.8987 10.6875 111.844 10.6875 152.484C10.6875 152.505 10.6875 152.526 10.6875 152.547H0C-2.1961e-05 152.522 6.78325e-09 152.497 0 152.473C1.69479e-05 106.122 38.6111 68.5471 86.2402 68.5469Z" fill="#AC842E"/>
</svg>
