<svg width="173" height="190" viewBox="0 0 173 190" fill="none" xmlns="http://www.w3.org/2000/svg">
<rect x="78.25" y="189.281" width="127.535" height="9.5703" transform="rotate(-90 78.25 189.281)" fill="#00FF00"/>
<rect x="70.625" y="61.7461" width="9.5703" height="24.7579" transform="rotate(-90 70.625 61.7461)" fill="#C3FFC3"/>
<path d="M83.0164 0L99.0522 53.1747L66.9807 53.1747L83.0164 0Z" fill="#00FF00"/>
<rect y="152.543" width="172.481" height="6.89923" fill="white"/>
<path d="M86.3125 68.543C133.942 68.543 172.553 106.118 172.553 152.469C172.553 152.493 172.553 152.518 172.553 152.543H161.99C161.99 152.522 161.99 152.501 161.99 152.48C161.99 111.84 128.136 78.8945 86.375 78.8945C44.6141 78.8948 10.7598 111.84 10.7598 152.48C10.7598 152.501 10.7597 152.522 10.7598 152.543H0.0722656C0.0722437 152.518 0.0722656 152.493 0.0722656 152.469C0.0722826 106.118 38.6834 68.5432 86.3125 68.543Z" fill="#AC842E"/>
</svg>
