<svg width="2157" height="2366" viewBox="0 0 2157 2366" fill="none" xmlns="http://www.w3.org/2000/svg">
<rect x="977.641" y="2366" width="1594.18" height="119.629" transform="rotate(-90 977.641 2366)" fill="#3C63E8"/>
<rect x="882.719" y="771.817" width="119.629" height="309.474" transform="rotate(-90 882.719 771.817)" fill="#91A7F1"/>
<path d="M1037.46 0L1237.9 664.684L837.009 664.684L1037.46 0Z" fill="#3C63E8"/>
<rect y="1906.77" width="2156.01" height="86.2404" fill="white"/>
<path d="M1078.01 856.793C1673.37 856.793 2156.01 1326.48 2156.01 1905.87C2156.01 1906.17 2156.01 1906.47 2156.01 1906.77H2024.05C2024.05 1906.5 2024.05 1906.24 2024.05 1905.98C2024.05 1397.97 1600.88 986.152 1078.86 986.152C556.848 986.152 133.672 1397.97 133.672 1905.98C133.672 1906.24 133.673 1906.5 133.673 1906.77H0.00195312C0.00169136 1906.47 3.8907e-07 1906.17 0 1905.87C0 1326.48 482.64 856.793 1078.01 856.793Z" fill="#AC842E"/>
</svg>
