<svg width="173" height="190" viewBox="0 0 173 190" fill="none" xmlns="http://www.w3.org/2000/svg">
<rect x="78.25" y="189.281" width="127.535" height="9.5703" transform="rotate(-90 78.25 189.281)" fill="#964B00"/>
<rect x="70.6875" y="61.7461" width="9.5703" height="24.7579" transform="rotate(-90 70.6875 61.7461)" fill="#552B00"/>
<path d="M83.0789 0L99.1147 53.1747L67.0432 53.1747L83.0789 0Z" fill="#964B00"/>
<rect y="152.547" width="172.481" height="6.89923" fill="white"/>
<path d="M86.25 68.5469C133.879 68.5469 172.49 106.122 172.49 152.473C172.49 152.497 172.49 152.522 172.49 152.547H161.928C161.928 152.526 161.928 152.505 161.928 152.484C161.928 111.844 128.074 78.8984 86.3125 78.8984C44.5516 78.8987 10.6973 111.844 10.6973 152.484C10.6973 152.505 10.6972 152.526 10.6973 152.547H0.00976562C0.00974366 152.522 0.00976563 152.497 0.00976562 152.473C0.00978257 106.122 38.6209 68.5471 86.25 68.5469Z" fill="#AC842E"/>
</svg>
