<svg width="173" height="190" viewBox="0 0 173 190" fill="none" xmlns="http://www.w3.org/2000/svg">
<rect x="78.1875" y="189.281" width="127.535" height="9.5703" transform="rotate(-90 78.1875 189.281)" fill="white"/>
<rect x="70.625" y="61.7461" width="9.5703" height="24.7579" transform="rotate(-90 70.625 61.7461)" fill="#E6E6E6"/>
<path d="M83.0164 0L99.0522 53.1747L66.9807 53.1747L83.0164 0Z" fill="white"/>
<rect y="152.543" width="172.481" height="6.89923" fill="white"/>
<path d="M86.25 68.543C133.879 68.543 172.49 106.118 172.49 152.469C172.49 152.493 172.49 152.518 172.49 152.543H161.928C161.928 152.522 161.928 152.501 161.928 152.48C161.928 111.84 128.074 78.8945 86.3125 78.8945C44.5516 78.8948 10.6973 111.84 10.6973 152.48C10.6973 152.501 10.6972 152.522 10.6973 152.543H0.00976562C0.00974366 152.518 0.00976563 152.493 0.00976562 152.469C0.00978257 106.118 38.6209 68.5432 86.25 68.543Z" fill="#AC842E"/>
</svg>
