<svg width="68" height="83" viewBox="0 0 68 83" fill="none" xmlns="http://www.w3.org/2000/svg">
<circle cx="34" cy="48.5664" r="32" fill="#D92B2B" stroke="black" stroke-width="4"/>
<rect x="25.125" y="5.69531" width="17.7084" height="17.7084" fill="#D92B2B" stroke="black" stroke-width="4"/>
<mask id="path-3-inside-1_149_637" fill="white">
<ellipse cx="33.9376" cy="3.68" rx="10.88" ry="3.68"/>
</mask>
<ellipse cx="33.9376" cy="3.68" rx="10.88" ry="3.68" fill="#D9D9D9"/>
<path d="M44.8176 3.68H40.8176C40.8176 3.09916 40.9995 2.63976 41.1742 2.35112C41.2569 2.21435 41.3343 2.12098 41.3841 2.06677C41.4096 2.03909 41.4299 2.0194 41.4432 2.0071C41.4565 1.99478 41.4641 1.98875 41.4644 1.98846C41.4648 1.98814 41.4592 1.99265 41.4466 2.00151C41.434 2.01035 41.4155 2.02281 41.3902 2.03851C41.3391 2.07033 41.2664 2.11186 41.1688 2.16075C40.9706 2.25995 40.7 2.37443 40.3493 2.49303C38.8939 2.98532 36.6268 3.36 33.9376 3.36V7.36V11.36C37.2573 11.36 40.4302 10.9109 42.9126 10.0713C44.1335 9.6583 45.4093 9.07726 46.4608 8.23639C47.4735 7.4265 48.8176 5.91385 48.8176 3.68H44.8176ZM33.9376 7.36V3.36C31.2484 3.36 28.9814 2.98532 27.5259 2.49303C27.1753 2.37443 26.9046 2.25995 26.7065 2.16075C26.6088 2.11186 26.5361 2.07033 26.485 2.03851C26.4598 2.02281 26.4412 2.01035 26.4286 2.00151C26.416 1.99265 26.4104 1.98814 26.4108 1.98846C26.4112 1.98875 26.4187 1.99478 26.432 2.0071C26.4453 2.0194 26.4657 2.03909 26.4911 2.06677C26.541 2.12098 26.6183 2.21435 26.7011 2.35112C26.8757 2.63976 27.0576 3.09916 27.0576 3.68H23.0576H19.0576C19.0576 5.91385 20.4017 7.4265 21.4145 8.23639C22.466 9.07726 23.7417 9.6583 24.9627 10.0713C27.445 10.9109 30.618 11.36 33.9376 11.36V7.36ZM23.0576 3.68H27.0576C27.0576 4.26084 26.8757 4.72024 26.7011 5.00888C26.6183 5.14565 26.541 5.23902 26.4911 5.29323C26.4657 5.32091 26.4453 5.3406 26.432 5.3529C26.4187 5.36522 26.4112 5.37125 26.4108 5.37154C26.4104 5.37186 26.416 5.36735 26.4286 5.35849C26.4412 5.34965 26.4598 5.33719 26.485 5.32149C26.5361 5.28967 26.6088 5.24815 26.7065 5.19925C26.9046 5.10005 27.1753 4.98557 27.5259 4.86697C28.9814 4.37468 31.2484 4 33.9376 4V0V-4C30.618 -4 27.445 -3.55089 24.9627 -2.71128C23.7417 -2.2983 22.466 -1.71726 21.4145 -0.876388C20.4017 -0.066501 19.0576 1.44615 19.0576 3.68H23.0576ZM33.9376 0V4C36.6268 4 38.8939 4.37468 40.3493 4.86697C40.7 4.98557 40.9706 5.10005 41.1688 5.19925C41.2664 5.24815 41.3391 5.28967 41.3902 5.32149C41.4155 5.33719 41.434 5.34965 41.4466 5.35849C41.4592 5.36735 41.4648 5.37186 41.4644 5.37154C41.4641 5.37125 41.4565 5.36522 41.4432 5.3529C41.4299 5.3406 41.4096 5.32091 41.3841 5.29323C41.3343 5.23902 41.2569 5.14565 41.1742 5.00888C40.9995 4.72024 40.8176 4.26084 40.8176 3.68H44.8176H48.8176C48.8176 1.44615 47.4735 -0.066501 46.4608 -0.876388C45.4093 -1.71726 44.1335 -2.2983 42.9126 -2.71128C40.4302 -3.55089 37.2573 -4 33.9376 -4V0Z" fill="black" mask="url(#path-3-inside-1_149_637)"/>
</svg>
