<svg width="850" height="1033" viewBox="0 0 850 1033" fill="none" xmlns="http://www.w3.org/2000/svg">
<circle cx="425" cy="607.084" r="400" fill="#D92B2B" stroke="black" stroke-width="50"/>
<rect x="314.199" y="71.1995" width="221.356" height="221.356" fill="#D92B2B" stroke="black" stroke-width="50"/>
<mask id="path-3-inside-1_137_1802" fill="white">
<ellipse cx="425" cy="46" rx="136" ry="46"/>
</mask>
<ellipse cx="425" cy="46" rx="136" ry="46" fill="#D9D9D9"/>
<path d="M561 46H511C511 38.7395 513.274 32.997 515.457 29.389C516.491 27.6794 517.458 26.5122 518.081 25.8347C518.4 25.4887 518.654 25.2425 518.82 25.0887C518.987 24.9348 519.081 24.8593 519.085 24.8557C519.09 24.8518 519.02 24.9081 518.862 25.0189C518.705 25.1294 518.473 25.2852 518.158 25.4813C517.519 25.8791 516.61 26.3982 515.389 27.0094C512.913 28.2493 509.529 29.6804 505.146 31.1629C486.953 37.3165 458.615 42 425 42V92V142C466.496 142 506.158 136.386 537.187 125.891C552.449 120.729 568.396 113.466 581.54 102.955C594.199 92.8313 611 73.9231 611 46H561ZM425 92V42C391.385 42 363.047 37.3165 344.854 31.1629C340.471 29.6804 337.087 28.2493 334.611 27.0094C333.39 26.3982 332.481 25.8791 331.842 25.4813C331.527 25.2852 331.295 25.1294 331.138 25.0189C330.98 24.9081 330.91 24.8518 330.915 24.8557C330.919 24.8593 331.013 24.9348 331.18 25.0887C331.346 25.2425 331.6 25.4887 331.919 25.8347C332.542 26.5122 333.509 27.6794 334.543 29.389C336.726 32.997 339 38.7395 339 46H289H239C239 73.9231 255.801 92.8313 268.46 102.955C281.604 113.466 297.551 120.729 312.813 125.891C343.842 136.386 383.504 142 425 142V92ZM289 46H339C339 53.2605 336.726 59.003 334.543 62.611C333.509 64.3206 332.542 65.4878 331.919 66.1653C331.6 66.5113 331.346 66.7575 331.18 66.9113C331.013 67.0652 330.919 67.1407 330.915 67.1443C330.91 67.1482 330.98 67.0919 331.138 66.9811C331.295 66.8706 331.527 66.7148 331.842 66.5186C332.481 66.1209 333.39 65.6018 334.611 64.9906C337.087 63.7507 340.471 62.3196 344.854 60.8371C363.047 54.6835 391.385 50 425 50V0V-50C383.504 -50 343.842 -44.3861 312.813 -33.891C297.551 -28.7288 281.604 -21.4658 268.46 -10.9548C255.801 -0.831263 239 18.0769 239 46H289ZM425 0V50C458.615 50 486.953 54.6835 505.146 60.8371C509.529 62.3196 512.913 63.7507 515.389 64.9906C516.61 65.6018 517.519 66.1209 518.158 66.5186C518.473 66.7148 518.705 66.8706 518.862 66.9811C519.02 67.0919 519.09 67.1482 519.085 67.1443C519.081 67.1407 518.987 67.0652 518.82 66.9113C518.654 66.7575 518.4 66.5113 518.081 66.1653C517.458 65.4878 516.491 64.3206 515.457 62.611C513.274 59.003 511 53.2605 511 46H561H611C611 18.0769 594.199 -0.831263 581.54 -10.9548C568.396 -21.4658 552.449 -28.7288 537.187 -33.891C506.158 -44.3861 466.496 -50 425 -50V0Z" fill="black" mask="url(#path-3-inside-1_137_1802)"/>
</svg>
